<?xml version="1.0" encoding="UTF-8" standalone="no"?>
<svg xmlns="http://www.w3.org/2000/svg"
     xmlns:xlink="http://www.w3.org/1999/xlink"
     width="576px" height="432px" viewBox="0 0 576 432">
<title>glps_renderer figure</title>
<desc>
Creator: GL2PS 1.3.5, (C) 1999-2009 C. Geuzaine
For: Octave
CreationDate: Tue Jan 31 15:37:31 2012
</desc>
<defs>
</defs>
<g shape-rendering="crispEdges">
<text fill="#000000" x="298.08" y="389.481" font-size="10" text-anchor="middle" baseline-shift="-10" font-family="Helvetica">200</text>
<text fill="#000000" x="409.68" y="389.481" font-size="10" text-anchor="middle" baseline-shift="-10" font-family="Helvetica">300</text>
<text fill="#000000" x="521.28" y="389.481" font-size="10" text-anchor="middle" baseline-shift="-10" font-family="Helvetica">400</text>
<text fill="#000000" x="69.8755" y="384.48" font-size="10" text-anchor="end" baseline-shift="-5" font-family="Helvetica">-5</text>
<text fill="#000000" x="69.8755" y="314.064" font-size="10" text-anchor="end" baseline-shift="-5" font-family="Helvetica">-4</text>
<text fill="#000000" x="69.8755" y="243.648" font-size="10" text-anchor="end" baseline-shift="-5" font-family="Helvetica">-3</text>
<text fill="#000000" x="74.88" y="389.481" font-size="10" text-anchor="middle" baseline-shift="-10" font-family="Helvetica">0</text>
<text fill="#000000" x="186.48" y="389.481" font-size="10" text-anchor="middle" baseline-shift="-10" font-family="Helvetica">100</text>
<text fill="#000000" x="69.8755" y="173.232" font-size="10" text-anchor="end" baseline-shift="-5" font-family="Helvetica">-2</text>
<text fill="#000000" x="69.8755" y="102.816" font-size="10" text-anchor="end" baseline-shift="-5" font-family="Helvetica">-1</text>
<text fill="#000000" x="69.8755" y="32.4" font-size="10" text-anchor="end" baseline-shift="-5" font-family="Helvetica">0</text>
<text fill="#000000" x="298.08" y="402.481" font-size="10" text-anchor="middle" baseline-shift="-10" font-family="Helvetica">time (10 seconds per unit)</text>
<text fill="#000000" x="60.8755" y="208.44" font-size="10" transform="rotate(-90, 60.8755, 208.44)" text-anchor="middle" baseline-shift="0" font-family="Helvetica">volt-ampere reactive (var)</text>
<polyline fill="none" stroke="#000000" stroke-width="0.5" stroke-dasharray="16,0" points="74.8789,32.3984 521.281,32.3984"/>
<polyline fill="none" stroke="#000000" stroke-width="0.5" stroke-dasharray="16,0" points="74.8789,384.48 74.8789,32.3984"/>
<polyline fill="none" stroke="#000000" stroke-width="0.5" stroke-dasharray="16,0" points="521.281,384.48 521.281,32.3984"/>
<polyline fill="none" stroke="#000000" stroke-width="0.5" stroke-dasharray="0,3,1,3,1,3,1,3,1,0" points="74.8789,384.48 74.8789,32.3984"/>
<polyline fill="none" stroke="#000000" stroke-width="0.5" stroke-dasharray="0,3,1,3,1,3,1,3,1,0" points="186.48,384.48 186.48,32.3984"/>
<polyline fill="none" stroke="#000000" stroke-width="0.5" stroke-dasharray="0,3,1,3,1,3,1,3,1,0" points="298.078,384.48 298.078,32.3984"/>
<polyline fill="none" stroke="#000000" stroke-width="0.5" stroke-dasharray="0,3,1,3,1,3,1,3,1,0" points="409.68,384.48 409.68,32.3984"/>
<polyline fill="none" stroke="#000000" stroke-width="0.5" stroke-dasharray="16,0" points="74.8789,384.48 521.281,384.48"/>
<polyline fill="none" stroke="#000000" stroke-width="0.5" stroke-dasharray="0,3,1,3,1,3,1,3,1,0" points="521.281,384.48 521.281,32.3984"/>
<polyline fill="none" stroke="#000000" stroke-width="0.5" stroke-dasharray="16,0" points="74.8789,384.48 74.8789,377.477"/>
<polyline fill="none" stroke="#000000" stroke-width="0.5" stroke-dasharray="16,0" points="74.8789,32.3984 74.8789,39.4023"/>
<polyline fill="none" stroke="#000000" stroke-width="0.5" stroke-dasharray="16,0" points="186.48,384.48 186.48,377.477"/>
<polyline fill="none" stroke="#000000" stroke-width="0.5" stroke-dasharray="16,0" points="186.48,32.3984 186.48,39.4023"/>
<polyline fill="none" stroke="#000000" stroke-width="0.5" stroke-dasharray="16,0" points="298.078,384.48 298.078,377.477"/>
<polyline fill="none" stroke="#000000" stroke-width="0.5" stroke-dasharray="16,0" points="298.078,32.3984 298.078,39.4023"/>
<polyline fill="none" stroke="#000000" stroke-width="0.5" stroke-dasharray="16,0" points="409.68,384.48 409.68,377.477"/>
<polyline fill="none" stroke="#000000" stroke-width="0.5" stroke-dasharray="16,0" points="409.68,32.3984 409.68,39.4023"/>
<polyline fill="none" stroke="#000000" stroke-width="0.5" stroke-dasharray="16,0" points="521.281,384.48 521.281,377.477"/>
<polyline fill="none" stroke="#000000" stroke-width="0.5" stroke-dasharray="16,0" points="521.281,32.3984 521.281,39.4023"/>
<polyline fill="none" stroke="#000000" stroke-width="0.5" stroke-dasharray="0,3,1,3,1,3,1,3,1,0" points="97.1992,384.48 97.1992,32.3984"/>
<polyline fill="none" stroke="#000000" stroke-width="0.5" stroke-dasharray="0,3,1,3,1,3,1,3,1,0" points="119.52,384.48 119.52,32.3984"/>
<polyline fill="none" stroke="#000000" stroke-width="0.5" stroke-dasharray="0,3,1,3,1,3,1,3,1,0" points="141.84,384.48 141.84,32.3984"/>
<polyline fill="none" stroke="#000000" stroke-width="0.5" stroke-dasharray="0,3,1,3,1,3,1,3,1,0" points="164.16,384.48 164.16,32.3984"/>
<polyline fill="none" stroke="#000000" stroke-width="0.5" stroke-dasharray="0,3,1,3,1,3,1,3,1,0" points="208.801,384.48 208.801,32.3984"/>
<polyline fill="none" stroke="#000000" stroke-width="0.5" stroke-dasharray="0,3,1,3,1,3,1,3,1,0" points="231.121,384.48 231.121,32.3984"/>
<polyline fill="none" stroke="#000000" stroke-width="0.5" stroke-dasharray="0,3,1,3,1,3,1,3,1,0" points="253.441,384.48 253.441,32.3984"/>
<polyline fill="none" stroke="#000000" stroke-width="0.5" stroke-dasharray="0,3,1,3,1,3,1,3,1,0" points="275.762,384.48 275.762,32.3984"/>
<polyline fill="none" stroke="#000000" stroke-width="0.5" stroke-dasharray="0,3,1,3,1,3,1,3,1,0" points="320.398,384.48 320.398,32.3984"/>
<polyline fill="none" stroke="#000000" stroke-width="0.5" stroke-dasharray="0,3,1,3,1,3,1,3,1,0" points="342.719,384.48 342.719,32.3984"/>
<polyline fill="none" stroke="#000000" stroke-width="0.5" stroke-dasharray="0,3,1,3,1,3,1,3,1,0" points="365.039,384.48 365.039,32.3984"/>
<polyline fill="none" stroke="#000000" stroke-width="0.5" stroke-dasharray="0,3,1,3,1,3,1,3,1,0" points="387.359,384.48 387.359,32.3984"/>
<polyline fill="none" stroke="#000000" stroke-width="0.5" stroke-dasharray="0,3,1,3,1,3,1,3,1,0" points="432,384.48 432,32.3984"/>
<polyline fill="none" stroke="#000000" stroke-width="0.5" stroke-dasharray="0,3,1,3,1,3,1,3,1,0" points="454.32,384.48 454.32,32.3984"/>
<polyline fill="none" stroke="#000000" stroke-width="0.5" stroke-dasharray="0,3,1,3,1,3,1,3,1,0" points="476.641,384.48 476.641,32.3984"/>
<polyline fill="none" stroke="#000000" stroke-width="0.5" stroke-dasharray="0,3,1,3,1,3,1,3,1,0" points="498.961,384.48 498.961,32.3984"/>
<polyline fill="none" stroke="#000000" stroke-width="0.5" stroke-dasharray="0,3,1,3,1,3,1,3,1,0" points="74.8789,384.48 521.281,384.48"/>
<polyline fill="none" stroke="#000000" stroke-width="0.5" stroke-dasharray="0,3,1,3,1,3,1,3,1,0" points="74.8789,314.062 521.281,314.062"/>
<polyline fill="none" stroke="#000000" stroke-width="0.5" stroke-dasharray="0,3,1,3,1,3,1,3,1,0" points="74.8789,243.648 521.281,243.648"/>
<polyline fill="none" stroke="#000000" stroke-width="0.5" stroke-dasharray="0,3,1,3,1,3,1,3,1,0" points="74.8789,173.23 521.281,173.23"/>
<polyline fill="none" stroke="#000000" stroke-width="0.5" stroke-dasharray="0,3,1,3,1,3,1,3,1,0" points="74.8789,102.816 521.281,102.816"/>
<polyline fill="none" stroke="#000000" stroke-width="0.5" stroke-dasharray="0,3,1,3,1,3,1,3,1,0" points="74.8789,32.3984 521.281,32.3984"/>
<polyline fill="none" stroke="#000000" stroke-width="0.5" stroke-dasharray="16,0" points="74.8789,384.48 81.8867,384.48"/>
<polyline fill="none" stroke="#000000" stroke-width="0.5" stroke-dasharray="16,0" points="521.281,384.48 514.273,384.48"/>
<polyline fill="none" stroke="#000000" stroke-width="0.5" stroke-dasharray="16,0" points="74.8789,314.062 81.8867,314.062"/>
<polyline fill="none" stroke="#000000" stroke-width="0.5" stroke-dasharray="16,0" points="521.281,314.062 514.273,314.062"/>
<polyline fill="none" stroke="#000000" stroke-width="0.5" stroke-dasharray="16,0" points="74.8789,243.648 81.8867,243.648"/>
<polyline fill="none" stroke="#000000" stroke-width="0.5" stroke-dasharray="16,0" points="521.281,243.648 514.273,243.648"/>
<polyline fill="none" stroke="#000000" stroke-width="0.5" stroke-dasharray="16,0" points="74.8789,173.23 81.8867,173.23"/>
<polyline fill="none" stroke="#000000" stroke-width="0.5" stroke-dasharray="16,0" points="521.281,173.23 514.273,173.23"/>
<polyline fill="none" stroke="#000000" stroke-width="0.5" stroke-dasharray="16,0" points="74.8789,102.816 81.8867,102.816"/>
<polyline fill="none" stroke="#000000" stroke-width="0.5" stroke-dasharray="16,0" points="521.281,102.816 514.273,102.816"/>
<polyline fill="none" stroke="#000000" stroke-width="0.5" stroke-dasharray="16,0" points="74.8789,32.3984 81.8867,32.3984"/>
<polyline fill="none" stroke="#000000" stroke-width="0.5" stroke-dasharray="16,0" points="521.281,32.3984 514.273,32.3984"/>
<polyline fill="none" stroke="#000000" stroke-width="0.5" stroke-dasharray="0,3,1,3,1,3,1,3,1,0" points="74.8789,370.398 521.281,370.398"/>
<polyline fill="none" stroke="#000000" stroke-width="0.5" stroke-dasharray="0,3,1,3,1,3,1,3,1,0" points="74.8789,356.312 521.281,356.312"/>
<polyline fill="none" stroke="#000000" stroke-width="0.5" stroke-dasharray="0,3,1,3,1,3,1,3,1,0" points="74.8789,342.23 521.281,342.23"/>
<polyline fill="none" stroke="#000000" stroke-width="0.5" stroke-dasharray="0,3,1,3,1,3,1,3,1,0" points="74.8789,328.148 521.281,328.148"/>
<polyline fill="none" stroke="#000000" stroke-width="0.5" stroke-dasharray="0,3,1,3,1,3,1,3,1,0" points="74.8789,299.98 521.281,299.98"/>
<polyline fill="none" stroke="#000000" stroke-width="0.5" stroke-dasharray="0,3,1,3,1,3,1,3,1,0" points="74.8789,285.898 521.281,285.898"/>
<polyline fill="none" stroke="#000000" stroke-width="0.5" stroke-dasharray="0,3,1,3,1,3,1,3,1,0" points="74.8789,271.812 521.281,271.812"/>
<polyline fill="none" stroke="#000000" stroke-width="0.5" stroke-dasharray="0,3,1,3,1,3,1,3,1,0" points="74.8789,257.73 521.281,257.73"/>
<polyline fill="none" stroke="#000000" stroke-width="0.5" stroke-dasharray="0,3,1,3,1,3,1,3,1,0" points="74.8789,229.566 521.281,229.566"/>
<polyline fill="none" stroke="#000000" stroke-width="0.5" stroke-dasharray="0,3,1,3,1,3,1,3,1,0" points="74.8789,215.48 521.281,215.48"/>
<polyline fill="none" stroke="#000000" stroke-width="0.5" stroke-dasharray="0,3,1,3,1,3,1,3,1,0" points="74.8789,201.398 521.281,201.398"/>
<polyline fill="none" stroke="#000000" stroke-width="0.5" stroke-dasharray="0,3,1,3,1,3,1,3,1,0" points="74.8789,187.316 521.281,187.316"/>
<polyline fill="none" stroke="#000000" stroke-width="0.5" stroke-dasharray="0,3,1,3,1,3,1,3,1,0" points="74.8789,159.148 521.281,159.148"/>
<polyline fill="none" stroke="#000000" stroke-width="0.5" stroke-dasharray="0,3,1,3,1,3,1,3,1,0" points="74.8789,145.066 521.281,145.066"/>
<polyline fill="none" stroke="#000000" stroke-width="0.5" stroke-dasharray="0,3,1,3,1,3,1,3,1,0" points="74.8789,130.98 521.281,130.98"/>
<polyline fill="none" stroke="#000000" stroke-width="0.5" stroke-dasharray="0,3,1,3,1,3,1,3,1,0" points="74.8789,116.898 521.281,116.898"/>
<polyline fill="none" stroke="#000000" stroke-width="0.5" stroke-dasharray="0,3,1,3,1,3,1,3,1,0" points="74.8789,88.7344 521.281,88.7344"/>
<polyline fill="none" stroke="#000000" stroke-width="0.5" stroke-dasharray="0,3,1,3,1,3,1,3,1,0" points="74.8789,74.6484 521.281,74.6484"/>
<polyline fill="none" stroke="#000000" stroke-width="0.5" stroke-dasharray="0,3,1,3,1,3,1,3,1,0" points="74.8789,60.5664 521.281,60.5664"/>
<polyline fill="none" stroke="#000000" stroke-width="0.5" stroke-dasharray="0,3,1,3,1,3,1,3,1,0" points="74.8789,46.4844 521.281,46.4844"/>
<polyline fill="none" stroke="#ff0000" stroke-width="1.5" points="75.9961,32.3984 77.1133,32.3984 78.2266,32.3984 79.3438,32.3984 80.4609,32.3984 81.5742,266.887 82.6914,259.562 83.8086,274.207 84.9258,288.855 86.0391,318.219 87.1562,332.863 88.2734,340.188 89.3867,332.863 90.5039,318.219 91.6211,318.219 92.7344,310.895 93.8516,303.5 94.9688,296.18 96.0859,296.18 97.1992,296.18 98.3164,288.855 99.4336,288.855 100.547,288.855 101.664,288.855 102.781,281.531 103.895,281.531 105.012,281.531 106.129,274.207 107.242,274.207 108.359,274.207 109.477,266.887 110.594,266.887 111.707,266.887 112.824,259.562 113.941,259.562 115.055,259.562 116.172,259.562 117.289,259.562 118.402,259.562 119.52,252.238 120.637,259.562 121.754,252.238 122.867,252.238 123.984,252.238 125.102,252.238 126.215,252.238 127.332,252.238 128.449,252.238 129.562,252.238 130.68,252.238 131.797,252.238 132.91,252.238 134.027,252.238 135.145,252.238 136.262,252.238 137.375,252.238 138.492,252.238 139.609,252.238 140.723,252.238 141.84,252.238 142.957,252.238 144.07,252.238 145.188,252.238 146.305,252.238 147.422,252.238 148.535,259.562 149.652,259.562 150.77,259.562 151.883,259.562 153,259.562 154.117,266.887 155.23,266.887 156.348,266.887 157.465,266.887 158.578,266.887 159.695,266.887 160.812,274.207 161.93,274.207 163.043,274.207 164.16,274.207 165.277,274.207 166.391,274.207 167.508,274.207 168.625,281.531 169.738,281.531 170.855,281.531 171.973,281.531 173.09,281.531 174.203,281.531 175.32,288.855 176.438,288.855 177.551,288.855 178.668,288.855 179.785,296.18 180.898,288.855 182.016,296.18 183.133,296.18 184.246,296.18 185.363,296.18 186.48,296.18 187.598,303.5 188.711,296.18 189.828,296.18 190.945,303.5 192.059,303.5 193.176,303.5 194.293,303.5 195.406,303.5 196.523,310.895 197.641,310.895 198.758,310.895 199.871,310.895 200.988,310.895 202.105,318.219 203.219,318.219 204.336,310.895 205.453,318.219 206.566,318.219 207.684,318.219 208.801,318.219 209.914,318.219 211.031,318.219 212.148,318.219 213.266,318.219 214.379,318.219 215.496,318.219 216.613,318.219 217.727,318.219 218.844,318.219 219.961,325.543 221.074,325.543 222.191,325.543 223.309,325.543 224.426,325.543 225.539,325.543 226.656,325.543 227.773,325.543 228.887,325.543 230.004,325.543 231.121,325.543 232.234,325.543 233.352,325.543 234.469,325.543 235.586,325.543 236.699,325.543 237.816,325.543 238.934,325.543 240.047,325.543 241.164,325.543 242.281,325.543 243.395,332.863 244.512,325.543 245.629,325.543 246.742,332.863 247.859,332.863 248.977,332.863 250.094,332.863 251.207,332.863 252.324,332.863 253.441,332.863 254.555,332.863 255.672,332.863 256.789,332.863 257.902,332.863 259.02,332.863 260.137,332.863 261.254,332.863 262.367,332.863 263.484,332.863 264.602,332.863 265.715,332.863 266.832,332.863 267.949,332.863 269.062,332.863 270.18,332.863 271.297,332.863 272.41,332.863 273.527,332.863 274.645,332.863 275.762,332.863 276.875,332.863 277.992,332.863 279.109,332.863 280.223,332.863 281.34,332.863 282.457,332.863 283.57,318.219 284.688,332.863 285.805,332.863 286.922,332.863 288.035,332.863 289.152,332.863 290.27,340.188 291.383,332.863 292.5,332.863 293.617,332.863 294.73,332.863 295.848,332.863 296.965,332.863 298.078,332.863 299.195,332.863 300.312,332.863 301.43,332.863 302.543,332.863 303.66,32.3984 304.777,32.3984 305.891,32.3984 307.008,32.3984 308.125,32.3984 309.238,32.3984 310.355,32.3984 311.473,32.3984 312.59,32.3984 313.703,259.562 314.82,266.887 315.938,274.207 317.051,288.855 318.168,296.18 319.285,303.5 320.398,310.895 321.516,310.895 322.633,318.219 323.746,318.219 324.863,318.219 325.98,318.219 327.098,325.543 328.211,325.543 329.328,325.543 330.445,325.543 331.559,325.543 332.676,332.863 333.793,325.543 334.906,332.863 336.023,332.863 337.141,332.863 338.258,332.863 339.371,332.863 340.488,332.863 341.605,332.863 342.719,332.863 343.836,332.863 344.953,332.863 346.066,332.863 347.184,332.863 348.301,332.863 349.414,332.863 350.531,332.863 351.648,332.863 352.766,332.863 353.879,332.863 354.996,332.863 356.113,332.863 357.227,332.863 358.344,332.863 359.461,332.863 360.574,332.863 361.691,332.863 362.809,332.863 363.926,332.863 365.039,340.188 366.156,332.863 367.273,332.863 368.387,340.188 369.504,340.188 370.621,332.863 371.734,332.863 372.852,340.188 373.969,332.863 375.082,332.863 376.199,332.863 377.316,332.863 378.434,332.863 379.547,332.863 380.664,340.188 381.781,332.863 382.895,332.863 384.012,340.188 385.129,332.863 386.242,332.863 387.359,332.863 388.477,332.863 389.594,332.863 390.707,340.188 391.824,340.188 392.941,332.863 394.055,332.863 395.172,332.863 396.289,332.863 397.402,340.188 398.52,332.863 399.637,332.863 400.75,332.863 401.867,332.863 402.984,332.863 404.102,332.863 405.215,332.863 406.332,332.863 407.449,332.863 408.562,332.863 409.68,332.863 410.797,340.188 411.91,340.188 413.027,332.863 414.145,332.863 415.262,332.863 416.375,332.863 417.492,332.863 418.609,332.863 419.723,332.863 420.84,332.863 421.957,332.863 423.07,332.863 424.188,332.863 425.305,332.863 426.422,332.863 427.535,332.863 428.652,332.863 429.77,332.863 430.883,332.863 432,332.863 433.117,332.863 434.23,332.863 435.348,332.863 436.465,332.863 437.578,332.863 438.695,332.863 439.812,340.188 440.93,332.863 442.043,332.863 443.16,332.863 444.277,340.188 445.391,332.863 446.508,332.863 447.625,332.863 448.738,332.863 449.855,332.863 450.973,332.863 452.09,332.863 453.203,332.863 454.32,332.863 455.438,332.863 456.551,332.863 457.668,332.863 458.785,332.863 459.898,332.863 461.016,332.863 462.133,332.863 463.246,332.863 464.363,332.863 465.48,332.863 466.598,332.863 467.711,332.863 468.828,332.863 469.945,332.863 471.059,332.863 472.176,332.863 473.293,332.863 474.406,332.863 475.523,332.863"/>
<polyline fill="none" stroke="#000000" stroke-width="0.5" stroke-dasharray="16,0" points="521.281,384.48 521.281,384.48"/>
<polyline fill="none" stroke="#000000" stroke-width="0.5" stroke-dasharray="16,0" points="74.8789,384.48 74.8789,384.48"/>
<polyline fill="none" stroke="#000000" stroke-width="0.5" stroke-dasharray="16,0" points="74.8789,32.3984 74.8789,32.3984"/>
<polyline fill="none" stroke="#000000" stroke-width="0.5" stroke-dasharray="16,0" points="521.281,32.3984 521.281,32.3984"/>
<text fill="#000000" x="298.08" y="22.4" font-size="10" text-anchor="middle" baseline-shift="0" font-family="Helvetica">Lamp 3EmmeLight EB11G-C9 9W (reactive power)</text>
<polyline fill="none" stroke="#000000" stroke-width="0.5" stroke-dasharray="16,0" points="521.281,384.48 521.281,32.3984"/>
<polyline fill="none" stroke="#000000" stroke-width="0.5" stroke-dasharray="16,0" points="74.8789,384.48 74.8789,32.3984 521.281,32.3984"/>
<polyline fill="none" stroke="#000000" stroke-width="0.5" stroke-dasharray="16,0" points="74.8789,384.48 521.281,384.48"/>
</g>
</svg>
