<?xml version="1.0" encoding="UTF-8" standalone="no"?>
<svg xmlns="http://www.w3.org/2000/svg"
     xmlns:xlink="http://www.w3.org/1999/xlink"
     width="576px" height="432px" viewBox="0 0 576 432">
<title>glps_renderer figure</title>
<desc>
Creator: GL2PS 1.3.5, (C) 1999-2009 C. Geuzaine
For: Octave
CreationDate: Tue Jan 31 15:37:34 2012
</desc>
<defs>
</defs>
<g shape-rendering="crispEdges">
<text fill="#000000" x="298.08" y="389.482" font-size="10" text-anchor="middle" baseline-shift="-10" font-family="Helvetica">200</text>
<text fill="#000000" x="409.68" y="389.482" font-size="10" text-anchor="middle" baseline-shift="-10" font-family="Helvetica">300</text>
<text fill="#000000" x="521.28" y="389.482" font-size="10" text-anchor="middle" baseline-shift="-10" font-family="Helvetica">400</text>
<text fill="#000000" x="69.8755" y="384.48" font-size="10" text-anchor="end" baseline-shift="-5" font-family="Helvetica">222</text>
<text fill="#000000" x="69.8755" y="314.064" font-size="10" text-anchor="end" baseline-shift="-5" font-family="Helvetica">223</text>
<text fill="#000000" x="69.8755" y="243.649" font-size="10" text-anchor="end" baseline-shift="-5" font-family="Helvetica">224</text>
<text fill="#000000" x="74.88" y="389.482" font-size="10" text-anchor="middle" baseline-shift="-10" font-family="Helvetica">0</text>
<text fill="#000000" x="186.48" y="389.482" font-size="10" text-anchor="middle" baseline-shift="-10" font-family="Helvetica">100</text>
<text fill="#000000" x="69.8755" y="173.233" font-size="10" text-anchor="end" baseline-shift="-5" font-family="Helvetica">225</text>
<text fill="#000000" x="69.8755" y="102.816" font-size="10" text-anchor="end" baseline-shift="-5" font-family="Helvetica">226</text>
<text fill="#000000" x="69.8755" y="32.4" font-size="10" text-anchor="end" baseline-shift="-5" font-family="Helvetica">227</text>
<text fill="#000000" x="298.08" y="402.481" font-size="10" text-anchor="middle" baseline-shift="-10" font-family="Helvetica">time (10 seconds per unit)</text>
<text fill="#000000" x="51.8755" y="208.44" font-size="10" transform="rotate(-90, 51.8755, 208.44)" text-anchor="middle" baseline-shift="0" font-family="Helvetica">volt (V)</text>
<polyline fill="none" stroke="#000000" stroke-width="0.5" stroke-dasharray="16,0" points="74.8789,32.3984 521.281,32.3984"/>
<polyline fill="none" stroke="#000000" stroke-width="0.5" stroke-dasharray="16,0" points="74.8789,384.48 74.8789,32.3984"/>
<polyline fill="none" stroke="#000000" stroke-width="0.5" stroke-dasharray="16,0" points="521.281,384.48 521.281,32.3984"/>
<polyline fill="none" stroke="#000000" stroke-width="0.5" stroke-dasharray="0,3,1,3,1,3,1,3,1,0" points="74.8789,384.48 74.8789,32.3984"/>
<polyline fill="none" stroke="#000000" stroke-width="0.5" stroke-dasharray="0,3,1,3,1,3,1,3,1,0" points="186.48,384.48 186.48,32.3984"/>
<polyline fill="none" stroke="#000000" stroke-width="0.5" stroke-dasharray="0,3,1,3,1,3,1,3,1,0" points="298.078,384.48 298.078,32.3984"/>
<polyline fill="none" stroke="#000000" stroke-width="0.5" stroke-dasharray="0,3,1,3,1,3,1,3,1,0" points="409.68,384.48 409.68,32.3984"/>
<polyline fill="none" stroke="#000000" stroke-width="0.5" stroke-dasharray="16,0" points="74.8789,384.48 521.281,384.48"/>
<polyline fill="none" stroke="#000000" stroke-width="0.5" stroke-dasharray="0,3,1,3,1,3,1,3,1,0" points="521.281,384.48 521.281,32.3984"/>
<polyline fill="none" stroke="#000000" stroke-width="0.5" stroke-dasharray="16,0" points="74.8789,384.48 74.8789,377.48"/>
<polyline fill="none" stroke="#000000" stroke-width="0.5" stroke-dasharray="16,0" points="74.8789,32.3984 74.8789,39.4023"/>
<polyline fill="none" stroke="#000000" stroke-width="0.5" stroke-dasharray="16,0" points="186.48,384.48 186.48,377.48"/>
<polyline fill="none" stroke="#000000" stroke-width="0.5" stroke-dasharray="16,0" points="186.48,32.3984 186.48,39.4023"/>
<polyline fill="none" stroke="#000000" stroke-width="0.5" stroke-dasharray="16,0" points="298.078,384.48 298.078,377.48"/>
<polyline fill="none" stroke="#000000" stroke-width="0.5" stroke-dasharray="16,0" points="298.078,32.3984 298.078,39.4023"/>
<polyline fill="none" stroke="#000000" stroke-width="0.5" stroke-dasharray="16,0" points="409.68,384.48 409.68,377.48"/>
<polyline fill="none" stroke="#000000" stroke-width="0.5" stroke-dasharray="16,0" points="409.68,32.3984 409.68,39.4023"/>
<polyline fill="none" stroke="#000000" stroke-width="0.5" stroke-dasharray="16,0" points="521.281,384.48 521.281,377.48"/>
<polyline fill="none" stroke="#000000" stroke-width="0.5" stroke-dasharray="16,0" points="521.281,32.3984 521.281,39.4023"/>
<polyline fill="none" stroke="#000000" stroke-width="0.5" stroke-dasharray="0,3,1,3,1,3,1,3,1,0" points="97.1992,384.48 97.1992,32.3984"/>
<polyline fill="none" stroke="#000000" stroke-width="0.5" stroke-dasharray="0,3,1,3,1,3,1,3,1,0" points="119.52,384.48 119.52,32.3984"/>
<polyline fill="none" stroke="#000000" stroke-width="0.5" stroke-dasharray="0,3,1,3,1,3,1,3,1,0" points="141.84,384.48 141.84,32.3984"/>
<polyline fill="none" stroke="#000000" stroke-width="0.5" stroke-dasharray="0,3,1,3,1,3,1,3,1,0" points="164.16,384.48 164.16,32.3984"/>
<polyline fill="none" stroke="#000000" stroke-width="0.5" stroke-dasharray="0,3,1,3,1,3,1,3,1,0" points="208.801,384.48 208.801,32.3984"/>
<polyline fill="none" stroke="#000000" stroke-width="0.5" stroke-dasharray="0,3,1,3,1,3,1,3,1,0" points="231.121,384.48 231.121,32.3984"/>
<polyline fill="none" stroke="#000000" stroke-width="0.5" stroke-dasharray="0,3,1,3,1,3,1,3,1,0" points="253.441,384.48 253.441,32.3984"/>
<polyline fill="none" stroke="#000000" stroke-width="0.5" stroke-dasharray="0,3,1,3,1,3,1,3,1,0" points="275.762,384.48 275.762,32.3984"/>
<polyline fill="none" stroke="#000000" stroke-width="0.5" stroke-dasharray="0,3,1,3,1,3,1,3,1,0" points="320.398,384.48 320.398,32.3984"/>
<polyline fill="none" stroke="#000000" stroke-width="0.5" stroke-dasharray="0,3,1,3,1,3,1,3,1,0" points="342.719,384.48 342.719,32.3984"/>
<polyline fill="none" stroke="#000000" stroke-width="0.5" stroke-dasharray="0,3,1,3,1,3,1,3,1,0" points="365.039,384.48 365.039,32.3984"/>
<polyline fill="none" stroke="#000000" stroke-width="0.5" stroke-dasharray="0,3,1,3,1,3,1,3,1,0" points="387.359,384.48 387.359,32.3984"/>
<polyline fill="none" stroke="#000000" stroke-width="0.5" stroke-dasharray="0,3,1,3,1,3,1,3,1,0" points="432,384.48 432,32.3984"/>
<polyline fill="none" stroke="#000000" stroke-width="0.5" stroke-dasharray="0,3,1,3,1,3,1,3,1,0" points="454.32,384.48 454.32,32.3984"/>
<polyline fill="none" stroke="#000000" stroke-width="0.5" stroke-dasharray="0,3,1,3,1,3,1,3,1,0" points="476.641,384.48 476.641,32.3984"/>
<polyline fill="none" stroke="#000000" stroke-width="0.5" stroke-dasharray="0,3,1,3,1,3,1,3,1,0" points="498.961,384.48 498.961,32.3984"/>
<polyline fill="none" stroke="#000000" stroke-width="0.5" stroke-dasharray="0,3,1,3,1,3,1,3,1,0" points="74.8789,384.48 521.281,384.48"/>
<polyline fill="none" stroke="#000000" stroke-width="0.5" stroke-dasharray="0,3,1,3,1,3,1,3,1,0" points="74.8789,314.066 521.281,314.066"/>
<polyline fill="none" stroke="#000000" stroke-width="0.5" stroke-dasharray="0,3,1,3,1,3,1,3,1,0" points="74.8789,243.648 521.281,243.648"/>
<polyline fill="none" stroke="#000000" stroke-width="0.5" stroke-dasharray="0,3,1,3,1,3,1,3,1,0" points="74.8789,173.234 521.281,173.234"/>
<polyline fill="none" stroke="#000000" stroke-width="0.5" stroke-dasharray="0,3,1,3,1,3,1,3,1,0" points="74.8789,102.816 521.281,102.816"/>
<polyline fill="none" stroke="#000000" stroke-width="0.5" stroke-dasharray="0,3,1,3,1,3,1,3,1,0" points="74.8789,32.3984 521.281,32.3984"/>
<polyline fill="none" stroke="#000000" stroke-width="0.5" stroke-dasharray="16,0" points="74.8789,384.48 81.8867,384.48"/>
<polyline fill="none" stroke="#000000" stroke-width="0.5" stroke-dasharray="16,0" points="521.281,384.48 514.273,384.48"/>
<polyline fill="none" stroke="#000000" stroke-width="0.5" stroke-dasharray="16,0" points="74.8789,314.066 81.8867,314.066"/>
<polyline fill="none" stroke="#000000" stroke-width="0.5" stroke-dasharray="16,0" points="521.281,314.066 514.273,314.066"/>
<polyline fill="none" stroke="#000000" stroke-width="0.5" stroke-dasharray="16,0" points="74.8789,243.648 81.8867,243.648"/>
<polyline fill="none" stroke="#000000" stroke-width="0.5" stroke-dasharray="16,0" points="521.281,243.648 514.273,243.648"/>
<polyline fill="none" stroke="#000000" stroke-width="0.5" stroke-dasharray="16,0" points="74.8789,173.234 81.8867,173.234"/>
<polyline fill="none" stroke="#000000" stroke-width="0.5" stroke-dasharray="16,0" points="521.281,173.234 514.273,173.234"/>
<polyline fill="none" stroke="#000000" stroke-width="0.5" stroke-dasharray="16,0" points="74.8789,102.816 81.8867,102.816"/>
<polyline fill="none" stroke="#000000" stroke-width="0.5" stroke-dasharray="16,0" points="521.281,102.816 514.273,102.816"/>
<polyline fill="none" stroke="#000000" stroke-width="0.5" stroke-dasharray="16,0" points="74.8789,32.3984 81.8867,32.3984"/>
<polyline fill="none" stroke="#000000" stroke-width="0.5" stroke-dasharray="16,0" points="521.281,32.3984 514.273,32.3984"/>
<polyline fill="none" stroke="#000000" stroke-width="0.5" stroke-dasharray="0,3,1,3,1,3,1,3,1,0" points="74.8789,370.395 521.281,370.395"/>
<polyline fill="none" stroke="#000000" stroke-width="0.5" stroke-dasharray="0,3,1,3,1,3,1,3,1,0" points="74.8789,356.316 521.281,356.316"/>
<polyline fill="none" stroke="#000000" stroke-width="0.5" stroke-dasharray="0,3,1,3,1,3,1,3,1,0" points="74.8789,342.23 521.281,342.23"/>
<polyline fill="none" stroke="#000000" stroke-width="0.5" stroke-dasharray="0,3,1,3,1,3,1,3,1,0" points="74.8789,328.145 521.281,328.145"/>
<polyline fill="none" stroke="#000000" stroke-width="0.5" stroke-dasharray="0,3,1,3,1,3,1,3,1,0" points="74.8789,299.98 521.281,299.98"/>
<polyline fill="none" stroke="#000000" stroke-width="0.5" stroke-dasharray="0,3,1,3,1,3,1,3,1,0" points="74.8789,285.898 521.281,285.898"/>
<polyline fill="none" stroke="#000000" stroke-width="0.5" stroke-dasharray="0,3,1,3,1,3,1,3,1,0" points="74.8789,271.812 521.281,271.812"/>
<polyline fill="none" stroke="#000000" stroke-width="0.5" stroke-dasharray="0,3,1,3,1,3,1,3,1,0" points="74.8789,257.73 521.281,257.73"/>
<polyline fill="none" stroke="#000000" stroke-width="0.5" stroke-dasharray="0,3,1,3,1,3,1,3,1,0" points="74.8789,229.562 521.281,229.562"/>
<polyline fill="none" stroke="#000000" stroke-width="0.5" stroke-dasharray="0,3,1,3,1,3,1,3,1,0" points="74.8789,215.484 521.281,215.484"/>
<polyline fill="none" stroke="#000000" stroke-width="0.5" stroke-dasharray="0,3,1,3,1,3,1,3,1,0" points="74.8789,201.398 521.281,201.398"/>
<polyline fill="none" stroke="#000000" stroke-width="0.5" stroke-dasharray="0,3,1,3,1,3,1,3,1,0" points="74.8789,187.312 521.281,187.312"/>
<polyline fill="none" stroke="#000000" stroke-width="0.5" stroke-dasharray="0,3,1,3,1,3,1,3,1,0" points="74.8789,159.148 521.281,159.148"/>
<polyline fill="none" stroke="#000000" stroke-width="0.5" stroke-dasharray="0,3,1,3,1,3,1,3,1,0" points="74.8789,145.066 521.281,145.066"/>
<polyline fill="none" stroke="#000000" stroke-width="0.5" stroke-dasharray="0,3,1,3,1,3,1,3,1,0" points="74.8789,130.98 521.281,130.98"/>
<polyline fill="none" stroke="#000000" stroke-width="0.5" stroke-dasharray="0,3,1,3,1,3,1,3,1,0" points="74.8789,116.898 521.281,116.898"/>
<polyline fill="none" stroke="#000000" stroke-width="0.5" stroke-dasharray="0,3,1,3,1,3,1,3,1,0" points="74.8789,88.7305 521.281,88.7305"/>
<polyline fill="none" stroke="#000000" stroke-width="0.5" stroke-dasharray="0,3,1,3,1,3,1,3,1,0" points="74.8789,74.6523 521.281,74.6523"/>
<polyline fill="none" stroke="#000000" stroke-width="0.5" stroke-dasharray="0,3,1,3,1,3,1,3,1,0" points="74.8789,60.5664 521.281,60.5664"/>
<polyline fill="none" stroke="#000000" stroke-width="0.5" stroke-dasharray="0,3,1,3,1,3,1,3,1,0" points="74.8789,46.4805 521.281,46.4805"/>
<polyline fill="none" stroke="#ff0000" stroke-width="1.5" points="75.9961,255.406 77.1133,253.152 78.2266,254.07 79.3438,245.832 80.4609,246.254 81.5742,260.973 82.6914,250.195 83.8086,259 84.9258,257.168 86.0391,248.012 87.1562,254.914 88.2734,274.418 89.3867,256.887 90.5039,267.449 91.6211,268.504 92.7344,252.309 93.8516,251.957 94.9688,277.379 96.0859,267.238 97.1992,281.812 98.3164,285.051 99.4336,304.98 100.547,303.781 101.664,281.531 102.781,284.84 103.895,265.055 105.012,279.492 106.129,259 107.242,271.039 108.359,277.59 109.477,243.648 110.594,253.504 111.707,281.531 112.824,266.109 113.941,268.223 115.055,280.547 116.172,282.234 117.289,282.375 118.402,262.309 119.52,283.293 120.637,279.984 121.754,290.684 122.867,274.703 123.984,259.422 125.102,293.078 126.215,228.297 127.332,231.324 128.449,222.805 129.562,239.848 130.68,242.875 131.797,236.113 132.91,296.039 134.027,264.984 135.145,255.832 136.262,251.816 137.375,205.906 138.492,228.086 139.609,221.746 140.723,240.973 141.84,212.734 142.957,215.906 144.07,263.434 145.188,222.242 146.305,236.324 147.422,275.195 148.535,269.281 149.652,317.867 150.77,264.984 151.883,295.543 153,225.27 154.117,234.352 155.23,303.148 156.348,230.41 157.465,224.988 158.578,216.328 159.695,223.086 160.812,231.535 161.93,231.82 163.043,228.367 164.16,227.172 165.277,220.27 166.391,211.188 167.508,212.945 168.625,218.371 169.738,209.355 170.855,212.102 171.973,212.523 173.09,206.891 174.203,222.031 175.32,217.102 176.438,200.273 177.551,211.117 178.668,211.539 179.785,214.145 180.898,209.637 182.016,202.312 183.133,195.344 184.246,186.469 185.363,185.203 186.48,176.121 187.598,192.668 188.711,235.129 189.828,235.199 190.945,205.977 192.059,232.664 193.176,220.762 194.293,209.988 195.406,204.848 196.523,202.172 197.641,202.031 198.758,207.031 199.871,197.738 200.988,191.68 202.105,210.27 203.219,205.199 204.336,230.551 205.453,190.273 206.566,201.891 207.684,203.863 208.801,188.938 209.914,177.598 211.031,176.469 212.148,173.512 213.266,182.809 214.379,156.051 215.496,171.824 216.613,182.457 217.727,187.387 218.844,185.203 219.961,188.652 221.074,185.203 222.191,187.105 223.309,184.707 224.426,180.344 225.539,177.598 226.656,183.301 227.773,178.371 228.887,175.133 230.004,168.727 231.121,178.934 232.234,188.301 233.352,171.121 234.469,171.543 235.586,190.625 236.699,191.539 237.816,195.203 238.934,196.117 240.047,191.539 241.164,192.387 242.281,191.047 243.395,190.414 244.512,191.754 245.629,203.652 246.742,206.539 247.859,204.707 248.977,200.836 250.094,193.16 251.207,270.055 252.324,266.531 253.441,260.055 254.555,257.52 255.672,281.531 256.789,273.152 257.902,265.125 259.02,260.758 260.137,253.648 261.254,246.957 262.367,238.438 263.484,249.773 264.602,248.082 265.715,257.309 266.832,258.223 267.949,260.125 269.062,258.223 270.18,260.266 271.297,260.758 272.41,253.578 273.527,245.195 274.645,242.031 275.762,245.34 276.875,236.957 277.992,233.156 279.109,239.984 280.223,237.664 281.34,223.367 282.457,235.762 283.57,216.398 284.688,224.285 285.805,229.426 286.922,237.168 288.035,213.723 289.152,248.789 290.27,239.492 291.383,230.973 292.5,221.961 293.617,214.215 294.73,211.539 295.848,207.172 296.965,209.707 298.078,208.227 299.195,212.242 300.312,212.945 301.43,219.566 302.543,234.773 303.66,235.902 304.777,254.281 305.891,245.125 307.008,247.309 308.125,240.059 309.238,256.746 310.355,263.926 311.473,252.871 312.59,258.223 313.703,239.211 314.82,254.07 315.938,247.73 317.051,244.07 318.168,233.438 319.285,257.871 320.398,263.082 321.516,254.492 322.633,265.266 323.746,254 324.863,278.926 325.98,291.32 327.098,320.613 328.211,282.73 329.328,272.52 330.445,239.141 331.559,238.648 332.676,240.551 333.793,239.848 334.906,242.453 336.023,234.918 337.141,244.914 338.258,255.406 339.371,246.957 340.488,257.59 341.605,233.156 342.719,216.254 343.836,207.664 344.953,283.082 346.066,149.359 347.184,143.938 348.301,130.633 349.414,138.66 350.531,126.828 351.648,120.699 352.766,117.461 353.879,97.3242 354.996,104.859 356.113,121.758 357.227,123.379 358.344,185.273 359.461,190.625 360.574,187.598 361.691,183.02 362.809,188.793 363.926,187.598 365.039,122.672 366.156,122.812 367.273,122.531 368.387,98.6602 369.504,100.492 370.621,105.492 371.734,115.984 372.852,111.477 373.969,115.488 375.082,110.422 376.199,123.305 377.316,123.234 378.434,118.379 379.547,106.547 380.664,107.816 381.781,99.4375 382.895,107.887 384.012,94.7891 385.129,103.52 386.242,106.125 387.359,103.309 388.477,102.18 389.594,100.703 390.707,91.7617 391.824,92.4648 392.941,92.7461 394.055,96.4805 395.172,92.957 396.289,97.957 397.402,90.1406 398.52,85.0703 399.637,86.4102 400.75,99.0156 401.867,90 402.984,83.5938 404.102,71.1289 405.215,72.8203 406.332,79.2969 407.449,139.504 408.562,169.641 409.68,153.164 410.797,92.1836 411.91,92.3945 413.027,78.7344 414.145,92.3242 415.262,95.7031 416.375,100 417.492,98.7305 418.609,95.8438 419.723,97.3242 420.84,90.0703 421.957,80.5664 423.07,72.2539 424.188,74.0156 425.305,71.9023 426.422,63.0312 427.535,70.6367 428.652,74.8594 429.77,61.9727 430.883,60.3555 432,88.5195 433.117,66.1289 434.23,68.3125 435.348,55.3555 436.465,64.7227 437.578,53.875 438.695,66.4102 439.812,64.4414 440.93,83.2383 442.043,68.0312 443.16,57.2578 444.277,60.0039 445.391,63.5234 446.508,69.0156 447.625,145.699 448.738,142.742 449.855,136.898 450.973,72.0469 452.09,56.6914 453.203,57.8203 454.32,57.75 455.438,72.0469 456.551,80.3516 457.668,80.4922 458.785,77.4688 459.898,67.0469 461.016,79.3672 462.133,63.3125 463.246,61.3398 464.363,64.5781 465.48,95.4922 466.598,76.4102 467.711,89.8594 468.828,91.3398 469.945,96.4805 471.059,106.477 472.176,91.3398 473.293,89.6484 474.406,86.1992 475.523,84.2266"/>
<polyline fill="none" stroke="#000000" stroke-width="0.5" stroke-dasharray="16,0" points="521.281,384.48 521.281,384.48"/>
<polyline fill="none" stroke="#000000" stroke-width="0.5" stroke-dasharray="16,0" points="74.8789,384.48 74.8789,384.48"/>
<polyline fill="none" stroke="#000000" stroke-width="0.5" stroke-dasharray="16,0" points="74.8789,32.3984 74.8789,32.3984"/>
<polyline fill="none" stroke="#000000" stroke-width="0.5" stroke-dasharray="16,0" points="521.281,32.3984 521.281,32.3984"/>
<text fill="#000000" x="298.08" y="22.4008" font-size="10" text-anchor="middle" baseline-shift="0" font-family="Helvetica">Lamp 3EmmeLight EB11G-C9 9W (RMS voltage)</text>
<polyline fill="none" stroke="#000000" stroke-width="0.5" stroke-dasharray="16,0" points="521.281,384.48 521.281,32.3984"/>
<polyline fill="none" stroke="#000000" stroke-width="0.5" stroke-dasharray="16,0" points="74.8789,384.48 74.8789,32.3984 521.281,32.3984"/>
<polyline fill="none" stroke="#000000" stroke-width="0.5" stroke-dasharray="16,0" points="74.8789,384.48 521.281,384.48"/>
</g>
</svg>
