<?xml version="1.0" encoding="UTF-8" standalone="no"?>
<svg xmlns="http://www.w3.org/2000/svg"
     xmlns:xlink="http://www.w3.org/1999/xlink"
     width="576px" height="432px" viewBox="0 0 576 432">
<title>glps_renderer figure</title>
<desc>
Creator: GL2PS 1.3.5, (C) 1999-2009 C. Geuzaine
For: Octave
CreationDate: Wed Feb 15 13:52:58 2012
</desc>
<defs>
</defs>
<g shape-rendering="crispEdges">
<text fill="#000000" x="298.08" y="389.481" font-size="10" text-anchor="middle" baseline-shift="-10" font-family="Helvetica">200</text>
<text fill="#000000" x="409.68" y="389.481" font-size="10" text-anchor="middle" baseline-shift="-10" font-family="Helvetica">300</text>
<text fill="#000000" x="521.28" y="389.481" font-size="10" text-anchor="middle" baseline-shift="-10" font-family="Helvetica">400</text>
<text fill="#000000" x="69.8755" y="384.48" font-size="10" text-anchor="end" baseline-shift="-5" font-family="Helvetica">222</text>
<text fill="#000000" x="69.8755" y="325.8" font-size="10" text-anchor="end" baseline-shift="-5" font-family="Helvetica">224</text>
<text fill="#000000" x="69.8755" y="267.12" font-size="10" text-anchor="end" baseline-shift="-5" font-family="Helvetica">226</text>
<text fill="#000000" x="74.88" y="389.481" font-size="10" text-anchor="middle" baseline-shift="-10" font-family="Helvetica">0</text>
<text fill="#000000" x="186.48" y="389.481" font-size="10" text-anchor="middle" baseline-shift="-10" font-family="Helvetica">100</text>
<text fill="#000000" x="69.8755" y="208.44" font-size="10" text-anchor="end" baseline-shift="-5" font-family="Helvetica">228</text>
<text fill="#000000" x="69.8755" y="149.76" font-size="10" text-anchor="end" baseline-shift="-5" font-family="Helvetica">230</text>
<text fill="#000000" x="69.8755" y="91.0798" font-size="10" text-anchor="end" baseline-shift="-5" font-family="Helvetica">232</text>
<text fill="#000000" x="69.8755" y="32.4" font-size="10" text-anchor="end" baseline-shift="-5" font-family="Helvetica">234</text>
<text fill="#000000" x="298.08" y="402.481" font-size="10" text-anchor="middle" baseline-shift="-10" font-family="Helvetica">time (10 seconds per unit)</text>
<text fill="#000000" x="51.8755" y="208.44" font-size="10" transform="rotate(-90, 51.8755, 208.44)" text-anchor="middle" baseline-shift="0" font-family="Helvetica">volt (V)</text>
<polyline fill="none" stroke="#000000" stroke-width="0.5" stroke-dasharray="16,0" points="74.8789,32.3984 521.281,32.3984"/>
<polyline fill="none" stroke="#000000" stroke-width="0.5" stroke-dasharray="16,0" points="74.8789,384.48 74.8789,32.3984"/>
<polyline fill="none" stroke="#000000" stroke-width="0.5" stroke-dasharray="16,0" points="521.281,384.48 521.281,32.3984"/>
<polyline fill="none" stroke="#000000" stroke-width="0.5" stroke-dasharray="0,3,1,3,1,3,1,3,1,0" points="74.8789,384.48 74.8789,32.3984"/>
<polyline fill="none" stroke="#000000" stroke-width="0.5" stroke-dasharray="0,3,1,3,1,3,1,3,1,0" points="186.48,384.48 186.48,32.3984"/>
<polyline fill="none" stroke="#000000" stroke-width="0.5" stroke-dasharray="0,3,1,3,1,3,1,3,1,0" points="298.078,384.48 298.078,32.3984"/>
<polyline fill="none" stroke="#000000" stroke-width="0.5" stroke-dasharray="0,3,1,3,1,3,1,3,1,0" points="409.68,384.48 409.68,32.3984"/>
<polyline fill="none" stroke="#000000" stroke-width="0.5" stroke-dasharray="16,0" points="74.8789,384.48 521.281,384.48"/>
<polyline fill="none" stroke="#000000" stroke-width="0.5" stroke-dasharray="0,3,1,3,1,3,1,3,1,0" points="521.281,384.48 521.281,32.3984"/>
<polyline fill="none" stroke="#000000" stroke-width="0.5" stroke-dasharray="16,0" points="74.8789,384.48 74.8789,377.477"/>
<polyline fill="none" stroke="#000000" stroke-width="0.5" stroke-dasharray="16,0" points="74.8789,32.3984 74.8789,39.4023"/>
<polyline fill="none" stroke="#000000" stroke-width="0.5" stroke-dasharray="16,0" points="186.48,384.48 186.48,377.477"/>
<polyline fill="none" stroke="#000000" stroke-width="0.5" stroke-dasharray="16,0" points="186.48,32.3984 186.48,39.4023"/>
<polyline fill="none" stroke="#000000" stroke-width="0.5" stroke-dasharray="16,0" points="298.078,384.48 298.078,377.477"/>
<polyline fill="none" stroke="#000000" stroke-width="0.5" stroke-dasharray="16,0" points="298.078,32.3984 298.078,39.4023"/>
<polyline fill="none" stroke="#000000" stroke-width="0.5" stroke-dasharray="16,0" points="409.68,384.48 409.68,377.477"/>
<polyline fill="none" stroke="#000000" stroke-width="0.5" stroke-dasharray="16,0" points="409.68,32.3984 409.68,39.4023"/>
<polyline fill="none" stroke="#000000" stroke-width="0.5" stroke-dasharray="16,0" points="521.281,384.48 521.281,377.477"/>
<polyline fill="none" stroke="#000000" stroke-width="0.5" stroke-dasharray="16,0" points="521.281,32.3984 521.281,39.4023"/>
<polyline fill="none" stroke="#000000" stroke-width="0.5" stroke-dasharray="0,3,1,3,1,3,1,3,1,0" points="97.1992,384.48 97.1992,32.3984"/>
<polyline fill="none" stroke="#000000" stroke-width="0.5" stroke-dasharray="0,3,1,3,1,3,1,3,1,0" points="119.52,384.48 119.52,32.3984"/>
<polyline fill="none" stroke="#000000" stroke-width="0.5" stroke-dasharray="0,3,1,3,1,3,1,3,1,0" points="141.84,384.48 141.84,32.3984"/>
<polyline fill="none" stroke="#000000" stroke-width="0.5" stroke-dasharray="0,3,1,3,1,3,1,3,1,0" points="164.16,384.48 164.16,32.3984"/>
<polyline fill="none" stroke="#000000" stroke-width="0.5" stroke-dasharray="0,3,1,3,1,3,1,3,1,0" points="208.801,384.48 208.801,32.3984"/>
<polyline fill="none" stroke="#000000" stroke-width="0.5" stroke-dasharray="0,3,1,3,1,3,1,3,1,0" points="231.121,384.48 231.121,32.3984"/>
<polyline fill="none" stroke="#000000" stroke-width="0.5" stroke-dasharray="0,3,1,3,1,3,1,3,1,0" points="253.441,384.48 253.441,32.3984"/>
<polyline fill="none" stroke="#000000" stroke-width="0.5" stroke-dasharray="0,3,1,3,1,3,1,3,1,0" points="275.762,384.48 275.762,32.3984"/>
<polyline fill="none" stroke="#000000" stroke-width="0.5" stroke-dasharray="0,3,1,3,1,3,1,3,1,0" points="320.398,384.48 320.398,32.3984"/>
<polyline fill="none" stroke="#000000" stroke-width="0.5" stroke-dasharray="0,3,1,3,1,3,1,3,1,0" points="342.719,384.48 342.719,32.3984"/>
<polyline fill="none" stroke="#000000" stroke-width="0.5" stroke-dasharray="0,3,1,3,1,3,1,3,1,0" points="365.039,384.48 365.039,32.3984"/>
<polyline fill="none" stroke="#000000" stroke-width="0.5" stroke-dasharray="0,3,1,3,1,3,1,3,1,0" points="387.359,384.48 387.359,32.3984"/>
<polyline fill="none" stroke="#000000" stroke-width="0.5" stroke-dasharray="0,3,1,3,1,3,1,3,1,0" points="432,384.48 432,32.3984"/>
<polyline fill="none" stroke="#000000" stroke-width="0.5" stroke-dasharray="0,3,1,3,1,3,1,3,1,0" points="454.32,384.48 454.32,32.3984"/>
<polyline fill="none" stroke="#000000" stroke-width="0.5" stroke-dasharray="0,3,1,3,1,3,1,3,1,0" points="476.641,384.48 476.641,32.3984"/>
<polyline fill="none" stroke="#000000" stroke-width="0.5" stroke-dasharray="0,3,1,3,1,3,1,3,1,0" points="498.961,384.48 498.961,32.3984"/>
<polyline fill="none" stroke="#000000" stroke-width="0.5" stroke-dasharray="0,3,1,3,1,3,1,3,1,0" points="74.8789,384.48 521.281,384.48"/>
<polyline fill="none" stroke="#000000" stroke-width="0.5" stroke-dasharray="0,3,1,3,1,3,1,3,1,0" points="74.8789,325.801 521.281,325.801"/>
<polyline fill="none" stroke="#000000" stroke-width="0.5" stroke-dasharray="0,3,1,3,1,3,1,3,1,0" points="74.8789,267.121 521.281,267.121"/>
<polyline fill="none" stroke="#000000" stroke-width="0.5" stroke-dasharray="0,3,1,3,1,3,1,3,1,0" points="74.8789,208.441 521.281,208.441"/>
<polyline fill="none" stroke="#000000" stroke-width="0.5" stroke-dasharray="0,3,1,3,1,3,1,3,1,0" points="74.8789,149.762 521.281,149.762"/>
<polyline fill="none" stroke="#000000" stroke-width="0.5" stroke-dasharray="0,3,1,3,1,3,1,3,1,0" points="74.8789,91.0781 521.281,91.0781"/>
<polyline fill="none" stroke="#000000" stroke-width="0.5" stroke-dasharray="0,3,1,3,1,3,1,3,1,0" points="74.8789,32.3984 521.281,32.3984"/>
<polyline fill="none" stroke="#000000" stroke-width="0.5" stroke-dasharray="16,0" points="74.8789,384.48 81.8867,384.48"/>
<polyline fill="none" stroke="#000000" stroke-width="0.5" stroke-dasharray="16,0" points="521.281,384.48 514.273,384.48"/>
<polyline fill="none" stroke="#000000" stroke-width="0.5" stroke-dasharray="16,0" points="74.8789,325.801 81.8867,325.801"/>
<polyline fill="none" stroke="#000000" stroke-width="0.5" stroke-dasharray="16,0" points="521.281,325.801 514.273,325.801"/>
<polyline fill="none" stroke="#000000" stroke-width="0.5" stroke-dasharray="16,0" points="74.8789,267.121 81.8867,267.121"/>
<polyline fill="none" stroke="#000000" stroke-width="0.5" stroke-dasharray="16,0" points="521.281,267.121 514.273,267.121"/>
<polyline fill="none" stroke="#000000" stroke-width="0.5" stroke-dasharray="16,0" points="74.8789,208.441 81.8867,208.441"/>
<polyline fill="none" stroke="#000000" stroke-width="0.5" stroke-dasharray="16,0" points="521.281,208.441 514.273,208.441"/>
<polyline fill="none" stroke="#000000" stroke-width="0.5" stroke-dasharray="16,0" points="74.8789,149.762 81.8867,149.762"/>
<polyline fill="none" stroke="#000000" stroke-width="0.5" stroke-dasharray="16,0" points="521.281,149.762 514.273,149.762"/>
<polyline fill="none" stroke="#000000" stroke-width="0.5" stroke-dasharray="16,0" points="74.8789,91.0781 81.8867,91.0781"/>
<polyline fill="none" stroke="#000000" stroke-width="0.5" stroke-dasharray="16,0" points="521.281,91.0781 514.273,91.0781"/>
<polyline fill="none" stroke="#000000" stroke-width="0.5" stroke-dasharray="16,0" points="74.8789,32.3984 81.8867,32.3984"/>
<polyline fill="none" stroke="#000000" stroke-width="0.5" stroke-dasharray="16,0" points="521.281,32.3984 514.273,32.3984"/>
<polyline fill="none" stroke="#000000" stroke-width="0.5" stroke-dasharray="0,3,1,3,1,3,1,3,1,0" points="74.8789,372.742 521.281,372.742"/>
<polyline fill="none" stroke="#000000" stroke-width="0.5" stroke-dasharray="0,3,1,3,1,3,1,3,1,0" points="74.8789,361.008 521.281,361.008"/>
<polyline fill="none" stroke="#000000" stroke-width="0.5" stroke-dasharray="0,3,1,3,1,3,1,3,1,0" points="74.8789,349.273 521.281,349.273"/>
<polyline fill="none" stroke="#000000" stroke-width="0.5" stroke-dasharray="0,3,1,3,1,3,1,3,1,0" points="74.8789,337.535 521.281,337.535"/>
<polyline fill="none" stroke="#000000" stroke-width="0.5" stroke-dasharray="0,3,1,3,1,3,1,3,1,0" points="74.8789,314.062 521.281,314.062"/>
<polyline fill="none" stroke="#000000" stroke-width="0.5" stroke-dasharray="0,3,1,3,1,3,1,3,1,0" points="74.8789,302.328 521.281,302.328"/>
<polyline fill="none" stroke="#000000" stroke-width="0.5" stroke-dasharray="0,3,1,3,1,3,1,3,1,0" points="74.8789,290.594 521.281,290.594"/>
<polyline fill="none" stroke="#000000" stroke-width="0.5" stroke-dasharray="0,3,1,3,1,3,1,3,1,0" points="74.8789,278.855 521.281,278.855"/>
<polyline fill="none" stroke="#000000" stroke-width="0.5" stroke-dasharray="0,3,1,3,1,3,1,3,1,0" points="74.8789,255.383 521.281,255.383"/>
<polyline fill="none" stroke="#000000" stroke-width="0.5" stroke-dasharray="0,3,1,3,1,3,1,3,1,0" points="74.8789,243.648 521.281,243.648"/>
<polyline fill="none" stroke="#000000" stroke-width="0.5" stroke-dasharray="0,3,1,3,1,3,1,3,1,0" points="74.8789,231.91 521.281,231.91"/>
<polyline fill="none" stroke="#000000" stroke-width="0.5" stroke-dasharray="0,3,1,3,1,3,1,3,1,0" points="74.8789,220.176 521.281,220.176"/>
<polyline fill="none" stroke="#000000" stroke-width="0.5" stroke-dasharray="0,3,1,3,1,3,1,3,1,0" points="74.8789,196.703 521.281,196.703"/>
<polyline fill="none" stroke="#000000" stroke-width="0.5" stroke-dasharray="0,3,1,3,1,3,1,3,1,0" points="74.8789,184.969 521.281,184.969"/>
<polyline fill="none" stroke="#000000" stroke-width="0.5" stroke-dasharray="0,3,1,3,1,3,1,3,1,0" points="74.8789,173.23 521.281,173.23"/>
<polyline fill="none" stroke="#000000" stroke-width="0.5" stroke-dasharray="0,3,1,3,1,3,1,3,1,0" points="74.8789,161.496 521.281,161.496"/>
<polyline fill="none" stroke="#000000" stroke-width="0.5" stroke-dasharray="0,3,1,3,1,3,1,3,1,0" points="74.8789,138.023 521.281,138.023"/>
<polyline fill="none" stroke="#000000" stroke-width="0.5" stroke-dasharray="0,3,1,3,1,3,1,3,1,0" points="74.8789,126.289 521.281,126.289"/>
<polyline fill="none" stroke="#000000" stroke-width="0.5" stroke-dasharray="0,3,1,3,1,3,1,3,1,0" points="74.8789,114.551 521.281,114.551"/>
<polyline fill="none" stroke="#000000" stroke-width="0.5" stroke-dasharray="0,3,1,3,1,3,1,3,1,0" points="74.8789,102.816 521.281,102.816"/>
<polyline fill="none" stroke="#000000" stroke-width="0.5" stroke-dasharray="0,3,1,3,1,3,1,3,1,0" points="74.8789,79.3438 521.281,79.3438"/>
<polyline fill="none" stroke="#000000" stroke-width="0.5" stroke-dasharray="0,3,1,3,1,3,1,3,1,0" points="74.8789,67.6094 521.281,67.6094"/>
<polyline fill="none" stroke="#000000" stroke-width="0.5" stroke-dasharray="0,3,1,3,1,3,1,3,1,0" points="74.8789,55.8711 521.281,55.8711"/>
<polyline fill="none" stroke="#000000" stroke-width="0.5" stroke-dasharray="0,3,1,3,1,3,1,3,1,0" points="74.8789,44.1367 521.281,44.1367"/>
<polyline fill="none" stroke="#ff0000" stroke-width="1.5" points="75.9961,77.9648 77.1133,90.0508 78.2266,211.023 79.3438,241.887 80.4609,246.434 81.5742,365.203 82.6914,206.445 83.8086,237.926 84.9258,365.438 86.0391,234.641 87.1562,259.168 88.2734,361.332 89.3867,235.344 90.5039,256.82 91.6211,363.355 92.7344,234.844 93.8516,254.738 94.9688,359.922 96.0859,228.188 97.1992,212.281 98.3164,373.684 99.4336,76.0586 100.547,77.3203 101.664,68.0195 102.781,75.707 103.895,74.4141 105.012,70.4844 106.129,72.8008 107.242,67.5508 108.359,63.5898 109.477,73.3008 110.594,68.7812 111.707,69.6602 112.824,70.5703 113.941,66.0508 115.055,73.3867 116.172,77.6133 117.289,94.0742 118.402,88.2031 119.52,82.5703 120.637,89.6992 121.754,81.6016 122.867,83.8633 123.984,87.8828 125.102,85.9141 126.215,90.9023 127.332,86.3867 128.449,85.6797 129.562,87.293 130.68,85.6211 131.797,80.0781 132.91,84.125 134.027,84.9766 135.145,87.5 136.262,86.8828 137.375,91.1953 138.492,83.1875 139.609,87.8516 140.723,84.625 141.84,84.0078 142.957,88.1758 144.07,89.2891 145.188,88.1172 146.305,86.0352 147.422,85.1523 148.535,94.1016 149.652,95.6562 150.77,90.7852 151.883,99.9414 153,95.1289 154.117,87.1484 155.23,88.1172 156.348,111.969 157.465,94.3672 158.578,96.6836 159.695,94.3359 160.812,101.113 161.93,96.2734 163.043,178.133 164.16,229.977 165.277,249.809 166.391,359.629 167.508,234.551 168.625,158.738 169.738,236.488 170.855,106.863 171.973,122.914 173.09,238.984 174.203,112.672 175.32,126.199 176.438,239.98 177.551,115.609 178.668,125.465 179.785,238.309 180.898,110.297 182.016,131.363 183.133,233.641 184.246,110.941 185.363,103.285 186.48,117.984 187.598,104.457 188.711,105.867 189.828,105.309 190.945,107.012 192.059,105.867 193.176,104.164 194.293,101.289 195.406,107.305 196.523,117.484 197.641,111.648 198.758,122.941 199.871,117.867 200.988,120.801 202.105,118.543 203.219,112.793 204.336,123.824 205.453,121.301 206.566,121.301 207.684,120.891 208.801,118.074 209.914,126.551 211.031,123.09 212.148,120.949 213.266,117.074 214.379,115.051 215.496,118.336 216.613,126.816 217.727,134.27 218.844,116.223 219.961,116.898 221.074,115.578 222.191,118.16 223.309,121.445 224.426,120.832 225.539,118.543 226.656,121.535 227.773,119.512 228.887,125.582 230.004,111.441 231.121,109.152 232.234,108.891 233.352,113.379 234.469,111.09 235.586,116.898 236.699,115.695 237.816,114.902 238.934,101.027 240.047,100.469 241.164,92.9883 242.281,97.7969 243.395,100.672 244.512,90.0508 245.629,87.5312 246.742,90.5234 247.859,86.9414 248.977,84.6562 250.094,78.5234 251.207,75.0312 252.324,74.9141 253.441,79.1367 254.555,80.0469 255.672,74.1797 256.789,71.832 257.902,70.7773 259.02,75.0312 260.137,76.5273 261.254,80.5742 262.367,77.6719 263.484,79.3438 264.602,85.5039 265.715,81.9844 266.832,80.8398 267.949,81.4844 269.062,88.5547 270.18,87.3242 271.297,75.4727 272.41,79.0781 273.527,75.9414 274.645,82.4844 275.762,91.6367 276.875,91.1953 277.992,87.4688 279.109,99.5 280.223,89.1445 281.34,90.582 282.457,91.9883 283.57,92.5742 284.688,89.2305 285.805,83.2148 286.922,90.6406 288.035,86.5625 289.152,83.0703 290.27,82.3086 291.383,76.2031 292.5,83.0391 293.617,76.0273 294.73,79.4023 295.848,82.2188 296.965,71.4805 298.078,69.6602 299.195,68.5469 300.312,62.1211 301.43,73.7109 302.543,66.2305 303.66,71.9219 304.777,73.3594 305.891,66.9922 307.008,61.0938 308.125,67.6094 309.238,86.9414 310.355,94.6289 311.473,96.5078 312.59,98.707 313.703,99.1758 314.82,96.5977 315.938,98.707 317.051,88.5273 318.168,99.2656 319.285,87.3555 320.398,91.168 321.516,88.0273 322.633,91.1953 323.746,91.0508 324.863,92.3984 325.98,94.5703 327.098,92.457 328.211,93.75 329.328,92.6055 330.445,93.1641 331.559,96.625 332.676,98.6211 333.793,94.6602 334.906,96.4492 336.023,90.875 337.141,90.5508 338.258,88.0273 339.371,91.3438 340.488,90.2305 341.605,91.9023 342.719,94.9219 343.836,95.8047 344.953,95.3945 346.066,96.625 347.184,91.0508 348.301,95.8633 349.414,101.145 350.531,105.516 351.648,109.77 352.766,243.238 353.879,242.855 354.996,100.969 356.113,236.578 357.227,238.512 358.344,106.895 359.461,241.125 360.574,244 361.691,102.551 362.809,100.938 363.926,99.5586 365.039,101.934 366.156,97.0078 367.273,92.3984 368.387,96.1836 369.504,98.5312 370.621,99.0898 371.734,111.293 372.852,101.055 373.969,95.2188 375.082,97.4766 376.199,92.9883 377.316,101.73 378.434,102.582 379.547,102.551 380.664,104.223 381.781,104.164 382.895,113.996 384.012,108.711 385.129,107.246 386.242,103.871 387.359,103.668 388.477,102.434 389.594,100.059 390.707,105.516 391.824,109.914 392.941,114.375 394.055,103.902 395.172,105.367 396.289,99.9102 397.402,100.969 398.52,105.047 399.637,106.074 400.75,99.0898 401.867,101.289 402.984,99.0312 404.102,104.957 405.215,107.629 406.332,100.176 407.449,98.7656 408.562,101.992 409.68,101.438 410.797,111.531 411.91,100.086 413.027,110.297 414.145,98.0898 415.262,101.848 416.375,106.922 417.492,106.133 418.609,104.957 419.723,109.094 420.84,109.594 421.957,114.902 423.07,107.422 424.188,107.363 425.305,110.59 426.422,103.461 427.535,102.023 428.652,99.7344 429.77,99.0312 430.883,106.426 432,277.977 433.117,110.473 434.23,105.047 435.348,101.73 436.465,270.523 437.578,268.617 438.695,274.074 439.812,107.832 440.93,110.973 442.043,103.695 443.16,104.723 444.277,106.016 445.391,107.363 446.508,99.4688 447.625,102.844 448.738,101.172 449.855,100.938 450.973,101.906 452.09,105.047 453.203,97.2695 454.32,94.0742 455.438,97.5352 456.551,94.9219 457.668,98.1797 458.785,98.2109 459.898,100.496 461.016,93.5156 462.133,91.3438 463.246,96.3906 464.363,88.4961 465.48,84.8906 466.598,83.2734 467.711,80.3398 468.828,79.7266 469.945,87.7344 471.059,88.8203 472.176,80.3398 473.293,84.8008 474.406,83.2734 475.523,81.3086"/>
<polyline fill="none" stroke="#000000" stroke-width="0.5" stroke-dasharray="16,0" points="521.281,384.48 521.281,384.48"/>
<polyline fill="none" stroke="#000000" stroke-width="0.5" stroke-dasharray="16,0" points="74.8789,384.48 74.8789,384.48"/>
<polyline fill="none" stroke="#000000" stroke-width="0.5" stroke-dasharray="16,0" points="74.8789,32.3984 74.8789,32.3984"/>
<polyline fill="none" stroke="#000000" stroke-width="0.5" stroke-dasharray="16,0" points="521.281,32.3984 521.281,32.3984"/>
<text fill="#000000" x="298.08" y="22.3994" font-size="10" text-anchor="middle" baseline-shift="0" font-family="Helvetica">Microwave Satrap (RMS voltage)</text>
<polyline fill="none" stroke="#000000" stroke-width="0.5" stroke-dasharray="16,0" points="521.281,384.48 521.281,32.3984"/>
<polyline fill="none" stroke="#000000" stroke-width="0.5" stroke-dasharray="16,0" points="74.8789,384.48 74.8789,32.3984 521.281,32.3984"/>
<polyline fill="none" stroke="#000000" stroke-width="0.5" stroke-dasharray="16,0" points="74.8789,384.48 521.281,384.48"/>
</g>
</svg>
