<?xml version="1.0" encoding="UTF-8" standalone="no"?>
<svg xmlns="http://www.w3.org/2000/svg"
     xmlns:xlink="http://www.w3.org/1999/xlink"
     width="576px" height="432px" viewBox="0 0 576 432">
<title>glps_renderer figure</title>
<desc>
Creator: GL2PS 1.3.5, (C) 1999-2009 C. Geuzaine
For: Octave
CreationDate: Wed Feb 15 13:52:33 2012
</desc>
<defs>
</defs>
<g shape-rendering="crispEdges">
<text fill="#000000" x="298.08" y="389.481" font-size="10" text-anchor="middle" baseline-shift="-10" font-family="Helvetica">200</text>
<text fill="#000000" x="409.68" y="389.481" font-size="10" text-anchor="middle" baseline-shift="-10" font-family="Helvetica">300</text>
<text fill="#000000" x="521.28" y="389.481" font-size="10" text-anchor="middle" baseline-shift="-10" font-family="Helvetica">400</text>
<text fill="#000000" x="69.8755" y="384.48" font-size="10" text-anchor="end" baseline-shift="-5" font-family="Helvetica">0</text>
<text fill="#000000" x="69.8755" y="296.46" font-size="10" text-anchor="end" baseline-shift="-5" font-family="Helvetica">500</text>
<text fill="#000000" x="69.8755" y="208.44" font-size="10" text-anchor="end" baseline-shift="-5" font-family="Helvetica">1000</text>
<text fill="#000000" x="74.88" y="389.481" font-size="10" text-anchor="middle" baseline-shift="-10" font-family="Helvetica">0</text>
<text fill="#000000" x="186.48" y="389.481" font-size="10" text-anchor="middle" baseline-shift="-10" font-family="Helvetica">100</text>
<text fill="#000000" x="69.8755" y="120.42" font-size="10" text-anchor="end" baseline-shift="-5" font-family="Helvetica">1500</text>
<text fill="#000000" x="69.8755" y="32.4" font-size="10" text-anchor="end" baseline-shift="-5" font-family="Helvetica">2000</text>
<text fill="#000000" x="298.08" y="402.481" font-size="10" text-anchor="middle" baseline-shift="-10" font-family="Helvetica">time (10 seconds per unit)</text>
<text fill="#000000" x="45.8755" y="208.44" font-size="10" transform="rotate(-90, 45.8755, 208.44)" text-anchor="middle" baseline-shift="0" font-family="Helvetica">watt (W)</text>
<polyline fill="none" stroke="#000000" stroke-width="0.5" stroke-dasharray="16,0" points="74.8789,32.3984 521.281,32.3984"/>
<polyline fill="none" stroke="#000000" stroke-width="0.5" stroke-dasharray="16,0" points="74.8789,384.48 74.8789,32.3984"/>
<polyline fill="none" stroke="#000000" stroke-width="0.5" stroke-dasharray="16,0" points="521.281,384.48 521.281,32.3984"/>
<polyline fill="none" stroke="#000000" stroke-width="0.5" stroke-dasharray="0,3,1,3,1,3,1,3,1,0" points="74.8789,384.48 74.8789,32.3984"/>
<polyline fill="none" stroke="#000000" stroke-width="0.5" stroke-dasharray="0,3,1,3,1,3,1,3,1,0" points="186.48,384.48 186.48,32.3984"/>
<polyline fill="none" stroke="#000000" stroke-width="0.5" stroke-dasharray="0,3,1,3,1,3,1,3,1,0" points="298.078,384.48 298.078,32.3984"/>
<polyline fill="none" stroke="#000000" stroke-width="0.5" stroke-dasharray="0,3,1,3,1,3,1,3,1,0" points="409.68,384.48 409.68,32.3984"/>
<polyline fill="none" stroke="#000000" stroke-width="0.5" stroke-dasharray="16,0" points="74.8789,384.48 521.281,384.48"/>
<polyline fill="none" stroke="#000000" stroke-width="0.5" stroke-dasharray="0,3,1,3,1,3,1,3,1,0" points="521.281,384.48 521.281,32.3984"/>
<polyline fill="none" stroke="#000000" stroke-width="0.5" stroke-dasharray="16,0" points="74.8789,384.48 74.8789,377.477"/>
<polyline fill="none" stroke="#000000" stroke-width="0.5" stroke-dasharray="16,0" points="74.8789,32.3984 74.8789,39.4023"/>
<polyline fill="none" stroke="#000000" stroke-width="0.5" stroke-dasharray="16,0" points="186.48,384.48 186.48,377.477"/>
<polyline fill="none" stroke="#000000" stroke-width="0.5" stroke-dasharray="16,0" points="186.48,32.3984 186.48,39.4023"/>
<polyline fill="none" stroke="#000000" stroke-width="0.5" stroke-dasharray="16,0" points="298.078,384.48 298.078,377.477"/>
<polyline fill="none" stroke="#000000" stroke-width="0.5" stroke-dasharray="16,0" points="298.078,32.3984 298.078,39.4023"/>
<polyline fill="none" stroke="#000000" stroke-width="0.5" stroke-dasharray="16,0" points="409.68,384.48 409.68,377.477"/>
<polyline fill="none" stroke="#000000" stroke-width="0.5" stroke-dasharray="16,0" points="409.68,32.3984 409.68,39.4023"/>
<polyline fill="none" stroke="#000000" stroke-width="0.5" stroke-dasharray="16,0" points="521.281,384.48 521.281,377.477"/>
<polyline fill="none" stroke="#000000" stroke-width="0.5" stroke-dasharray="16,0" points="521.281,32.3984 521.281,39.4023"/>
<polyline fill="none" stroke="#000000" stroke-width="0.5" stroke-dasharray="0,3,1,3,1,3,1,3,1,0" points="97.1992,384.48 97.1992,32.3984"/>
<polyline fill="none" stroke="#000000" stroke-width="0.5" stroke-dasharray="0,3,1,3,1,3,1,3,1,0" points="119.52,384.48 119.52,32.3984"/>
<polyline fill="none" stroke="#000000" stroke-width="0.5" stroke-dasharray="0,3,1,3,1,3,1,3,1,0" points="141.84,384.48 141.84,32.3984"/>
<polyline fill="none" stroke="#000000" stroke-width="0.5" stroke-dasharray="0,3,1,3,1,3,1,3,1,0" points="164.16,384.48 164.16,32.3984"/>
<polyline fill="none" stroke="#000000" stroke-width="0.5" stroke-dasharray="0,3,1,3,1,3,1,3,1,0" points="208.801,384.48 208.801,32.3984"/>
<polyline fill="none" stroke="#000000" stroke-width="0.5" stroke-dasharray="0,3,1,3,1,3,1,3,1,0" points="231.121,384.48 231.121,32.3984"/>
<polyline fill="none" stroke="#000000" stroke-width="0.5" stroke-dasharray="0,3,1,3,1,3,1,3,1,0" points="253.441,384.48 253.441,32.3984"/>
<polyline fill="none" stroke="#000000" stroke-width="0.5" stroke-dasharray="0,3,1,3,1,3,1,3,1,0" points="275.762,384.48 275.762,32.3984"/>
<polyline fill="none" stroke="#000000" stroke-width="0.5" stroke-dasharray="0,3,1,3,1,3,1,3,1,0" points="320.398,384.48 320.398,32.3984"/>
<polyline fill="none" stroke="#000000" stroke-width="0.5" stroke-dasharray="0,3,1,3,1,3,1,3,1,0" points="342.719,384.48 342.719,32.3984"/>
<polyline fill="none" stroke="#000000" stroke-width="0.5" stroke-dasharray="0,3,1,3,1,3,1,3,1,0" points="365.039,384.48 365.039,32.3984"/>
<polyline fill="none" stroke="#000000" stroke-width="0.5" stroke-dasharray="0,3,1,3,1,3,1,3,1,0" points="387.359,384.48 387.359,32.3984"/>
<polyline fill="none" stroke="#000000" stroke-width="0.5" stroke-dasharray="0,3,1,3,1,3,1,3,1,0" points="432,384.48 432,32.3984"/>
<polyline fill="none" stroke="#000000" stroke-width="0.5" stroke-dasharray="0,3,1,3,1,3,1,3,1,0" points="454.32,384.48 454.32,32.3984"/>
<polyline fill="none" stroke="#000000" stroke-width="0.5" stroke-dasharray="0,3,1,3,1,3,1,3,1,0" points="476.641,384.48 476.641,32.3984"/>
<polyline fill="none" stroke="#000000" stroke-width="0.5" stroke-dasharray="0,3,1,3,1,3,1,3,1,0" points="498.961,384.48 498.961,32.3984"/>
<polyline fill="none" stroke="#000000" stroke-width="0.5" stroke-dasharray="0,3,1,3,1,3,1,3,1,0" points="74.8789,384.48 521.281,384.48"/>
<polyline fill="none" stroke="#000000" stroke-width="0.5" stroke-dasharray="0,3,1,3,1,3,1,3,1,0" points="74.8789,296.461 521.281,296.461"/>
<polyline fill="none" stroke="#000000" stroke-width="0.5" stroke-dasharray="0,3,1,3,1,3,1,3,1,0" points="74.8789,208.441 521.281,208.441"/>
<polyline fill="none" stroke="#000000" stroke-width="0.5" stroke-dasharray="0,3,1,3,1,3,1,3,1,0" points="74.8789,120.422 521.281,120.422"/>
<polyline fill="none" stroke="#000000" stroke-width="0.5" stroke-dasharray="0,3,1,3,1,3,1,3,1,0" points="74.8789,32.3984 521.281,32.3984"/>
<polyline fill="none" stroke="#000000" stroke-width="0.5" stroke-dasharray="16,0" points="74.8789,384.48 81.8867,384.48"/>
<polyline fill="none" stroke="#000000" stroke-width="0.5" stroke-dasharray="16,0" points="521.281,384.48 514.273,384.48"/>
<polyline fill="none" stroke="#000000" stroke-width="0.5" stroke-dasharray="16,0" points="74.8789,296.461 81.8867,296.461"/>
<polyline fill="none" stroke="#000000" stroke-width="0.5" stroke-dasharray="16,0" points="521.281,296.461 514.273,296.461"/>
<polyline fill="none" stroke="#000000" stroke-width="0.5" stroke-dasharray="16,0" points="74.8789,208.441 81.8867,208.441"/>
<polyline fill="none" stroke="#000000" stroke-width="0.5" stroke-dasharray="16,0" points="521.281,208.441 514.273,208.441"/>
<polyline fill="none" stroke="#000000" stroke-width="0.5" stroke-dasharray="16,0" points="74.8789,120.422 81.8867,120.422"/>
<polyline fill="none" stroke="#000000" stroke-width="0.5" stroke-dasharray="16,0" points="521.281,120.422 514.273,120.422"/>
<polyline fill="none" stroke="#000000" stroke-width="0.5" stroke-dasharray="16,0" points="74.8789,32.3984 81.8867,32.3984"/>
<polyline fill="none" stroke="#000000" stroke-width="0.5" stroke-dasharray="16,0" points="521.281,32.3984 514.273,32.3984"/>
<polyline fill="none" stroke="#000000" stroke-width="0.5" stroke-dasharray="0,3,1,3,1,3,1,3,1,0" points="74.8789,366.875 521.281,366.875"/>
<polyline fill="none" stroke="#000000" stroke-width="0.5" stroke-dasharray="0,3,1,3,1,3,1,3,1,0" points="74.8789,349.273 521.281,349.273"/>
<polyline fill="none" stroke="#000000" stroke-width="0.5" stroke-dasharray="0,3,1,3,1,3,1,3,1,0" points="74.8789,331.668 521.281,331.668"/>
<polyline fill="none" stroke="#000000" stroke-width="0.5" stroke-dasharray="0,3,1,3,1,3,1,3,1,0" points="74.8789,314.062 521.281,314.062"/>
<polyline fill="none" stroke="#000000" stroke-width="0.5" stroke-dasharray="0,3,1,3,1,3,1,3,1,0" points="74.8789,278.855 521.281,278.855"/>
<polyline fill="none" stroke="#000000" stroke-width="0.5" stroke-dasharray="0,3,1,3,1,3,1,3,1,0" points="74.8789,261.254 521.281,261.254"/>
<polyline fill="none" stroke="#000000" stroke-width="0.5" stroke-dasharray="0,3,1,3,1,3,1,3,1,0" points="74.8789,243.648 521.281,243.648"/>
<polyline fill="none" stroke="#000000" stroke-width="0.5" stroke-dasharray="0,3,1,3,1,3,1,3,1,0" points="74.8789,226.043 521.281,226.043"/>
<polyline fill="none" stroke="#000000" stroke-width="0.5" stroke-dasharray="0,3,1,3,1,3,1,3,1,0" points="74.8789,190.836 521.281,190.836"/>
<polyline fill="none" stroke="#000000" stroke-width="0.5" stroke-dasharray="0,3,1,3,1,3,1,3,1,0" points="74.8789,173.23 521.281,173.23"/>
<polyline fill="none" stroke="#000000" stroke-width="0.5" stroke-dasharray="0,3,1,3,1,3,1,3,1,0" points="74.8789,155.629 521.281,155.629"/>
<polyline fill="none" stroke="#000000" stroke-width="0.5" stroke-dasharray="0,3,1,3,1,3,1,3,1,0" points="74.8789,138.023 521.281,138.023"/>
<polyline fill="none" stroke="#000000" stroke-width="0.5" stroke-dasharray="0,3,1,3,1,3,1,3,1,0" points="74.8789,102.816 521.281,102.816"/>
<polyline fill="none" stroke="#000000" stroke-width="0.5" stroke-dasharray="0,3,1,3,1,3,1,3,1,0" points="74.8789,85.2109 521.281,85.2109"/>
<polyline fill="none" stroke="#000000" stroke-width="0.5" stroke-dasharray="0,3,1,3,1,3,1,3,1,0" points="74.8789,67.6094 521.281,67.6094"/>
<polyline fill="none" stroke="#000000" stroke-width="0.5" stroke-dasharray="0,3,1,3,1,3,1,3,1,0" points="74.8789,50.0039 521.281,50.0039"/>
<polyline fill="none" stroke="#ff0000" stroke-width="1.5" points="75.9961,383.844 77.1133,383.844 78.2266,383.844 79.3438,383.844 80.4609,383.844 81.5742,383.844 82.6914,383.844 83.8086,383.844 84.9258,383.844 86.0391,383.844 87.1562,383.844 88.2734,383.844 89.3867,383.844 90.5039,383.844 91.6211,383.879 92.7344,383.879 93.8516,383.879 94.9688,383.879 96.0859,383.879 97.1992,383.879 98.3164,383.879 99.4336,383.879 100.547,383.879 101.664,383.898 102.781,383.898 103.895,383.898 105.012,383.898 106.129,383.898 107.242,383.898 108.359,383.898 109.477,383.898 110.594,383.898 111.707,383.898 112.824,383.898 113.941,383.898 115.055,383.898 116.172,383.898 117.289,383.898 118.402,383.898 119.52,383.898 120.637,383.914 121.754,383.898 122.867,383.898 123.984,383.914 125.102,383.914 126.215,383.898 127.332,383.898 128.449,383.898 129.562,383.898 130.68,383.898 131.797,383.898 132.91,383.914 134.027,383.914 135.145,383.914 136.262,383.914 137.375,383.914 138.492,383.914 139.609,383.898 140.723,383.898 141.84,383.898 142.957,383.898 144.07,383.898 145.188,383.898 146.305,383.898 147.422,383.898 148.535,383.898 149.652,383.898 150.77,383.898 151.883,383.898 153,383.898 154.117,383.898 155.23,383.898 156.348,383.898 157.465,383.898 158.578,383.914 159.695,383.898 160.812,383.914 161.93,383.898 163.043,383.898 164.16,383.898 165.277,383.898 166.391,383.898 167.508,383.898 168.625,383.898 169.738,383.898 170.855,383.898 171.973,383.898 173.09,383.898 174.203,383.914 175.32,383.898 176.438,383.898 177.551,383.914 178.668,383.898 179.785,383.898 180.898,383.898 182.016,383.898 183.133,383.898 184.246,383.898 185.363,383.898 186.48,383.898 187.598,383.914 188.711,383.898 189.828,383.914 190.945,383.898 192.059,383.914 193.176,383.898 194.293,383.898 195.406,383.898 196.523,383.898 197.641,383.898 198.758,383.898 199.871,383.914 200.988,383.914 202.105,383.914 203.219,383.914 204.336,383.914 205.453,383.914 206.566,383.914 207.684,383.914 208.801,383.898 209.914,383.898 211.031,383.898 212.148,383.898 213.266,383.898 214.379,383.898 215.496,383.898 216.613,383.898 217.727,383.898 218.844,383.898 219.961,383.914 221.074,383.898 222.191,383.914 223.309,383.914 224.426,383.898 225.539,383.898 226.656,383.898 227.773,383.898 228.887,383.898 230.004,383.898 231.121,383.898 232.234,383.898 233.352,383.898 234.469,383.898 235.586,383.898 236.699,383.898 237.816,383.898 238.934,383.898 240.047,383.898 241.164,383.898 242.281,383.969 243.395,383.969 244.512,383.898 245.629,383.953 246.742,383.953 247.859,383.898 248.977,383.953 250.094,383.953 251.207,383.898 252.324,383.969 253.441,383.898 254.555,383.898 255.672,383.898 256.789,383.898 257.902,380.27 259.02,383.898 260.137,383.898 261.254,383.898 262.367,383.898 263.484,383.898 264.602,383.898 265.715,354.648 266.832,127.91 267.949,127.254 269.062,383.879 270.18,383.898 271.297,383.898 272.41,383.898 273.527,383.898 274.645,383.898 275.762,383.898 276.875,383.898 277.992,383.898 279.109,383.898 280.223,383.898 281.34,383.898 282.457,383.898 283.57,383.898 284.688,383.898 285.805,383.898 286.922,383.898 288.035,383.898 289.152,383.898 290.27,383.898 291.383,383.898 292.5,383.898 293.617,383.898 294.73,383.898 295.848,383.898 296.965,383.898 298.078,383.898 299.195,383.898 300.312,383.844 301.43,383.844 302.543,383.824 303.66,383.898 304.777,383.879 305.891,383.824 307.008,383.898 308.125,383.898 309.238,383.898 310.355,383.805 311.473,383.824 312.59,383.844 313.703,383.879 314.82,383.879 315.938,383.879 317.051,383.879 318.168,383.879 319.285,383.879 320.398,383.879 321.516,383.879 322.633,383.879 323.746,383.879 324.863,383.879 325.98,383.879 327.098,383.879 328.211,383.879 329.328,383.879 330.445,383.879 331.559,383.879 332.676,383.879 333.793,383.879 334.906,383.879 336.023,383.879 337.141,383.859 338.258,383.879 339.371,383.879 340.488,383.879 341.605,383.879 342.719,383.879 343.836,383.879 344.953,383.879 346.066,383.879 347.184,383.879 348.301,383.879 349.414,383.879 350.531,383.879 351.648,383.879 352.766,383.879 353.879,383.879 354.996,383.879 356.113,383.879 357.227,383.879 358.344,383.879 359.461,383.879 360.574,383.879 361.691,383.879 362.809,383.879 363.926,383.879 365.039,383.898 366.156,383.879 367.273,383.879 368.387,383.879 369.504,383.898 370.621,383.879 371.734,383.898 372.852,383.898 373.969,383.898 375.082,383.898 376.199,383.879 377.316,383.898 378.434,383.879 379.547,383.879 380.664,383.879 381.781,383.879 382.895,383.879 384.012,383.879 385.129,383.879 386.242,383.879 387.359,383.879 388.477,383.879 389.594,383.879 390.707,383.879 391.824,383.879 392.941,383.879 394.055,383.879 395.172,383.879 396.289,383.879 397.402,383.879 398.52,383.879 399.637,383.879 400.75,383.898 401.867,383.879 402.984,383.879 404.102,383.879 405.215,383.879 406.332,383.879 407.449,383.879 408.562,383.879 409.68,383.898 410.797,383.879 411.91,383.879 413.027,383.879 414.145,383.879 415.262,383.879 416.375,383.879 417.492,383.898 418.609,383.879 419.723,383.879 420.84,383.879 421.957,383.879 423.07,383.879 424.188,383.879 425.305,383.879 426.422,383.879 427.535,383.879 428.652,383.879 429.77,383.879 430.883,383.879 432,383.879 433.117,383.879 434.23,383.879 435.348,383.879 436.465,383.879 437.578,383.824 438.695,383.879 439.812,383.805 440.93,383.898 442.043,383.953 443.16,383.898 444.277,383.844 445.391,383.879 446.508,383.898 447.625,383.898 448.738,383.953 449.855,383.879 450.973,383.898 452.09,383.934 453.203,383.879 454.32,383.898 455.438,383.953 456.551,383.898 457.668,383.898 458.785,383.879 459.898,383.898 461.016,383.879 462.133,383.879 463.246,383.879 464.363,383.824 465.48,383.879 466.598,383.898 467.711,383.898 468.828,383.805 469.945,383.824 471.059,383.879 472.176,383.879 473.293,383.844 474.406,383.898 475.523,383.879"/>
<polyline fill="none" stroke="#000000" stroke-width="0.5" stroke-dasharray="16,0" points="521.281,384.48 521.281,384.48"/>
<polyline fill="none" stroke="#000000" stroke-width="0.5" stroke-dasharray="16,0" points="74.8789,384.48 74.8789,384.48"/>
<polyline fill="none" stroke="#000000" stroke-width="0.5" stroke-dasharray="16,0" points="74.8789,32.3984 74.8789,32.3984"/>
<polyline fill="none" stroke="#000000" stroke-width="0.5" stroke-dasharray="16,0" points="521.281,32.3984 521.281,32.3984"/>
<text fill="#000000" x="298.08" y="22.4" font-size="10" text-anchor="middle" baseline-shift="0" font-family="Helvetica">Microwave Satrap (power)</text>
<polyline fill="none" stroke="#000000" stroke-width="0.5" stroke-dasharray="16,0" points="521.281,384.48 521.281,32.3984"/>
<polyline fill="none" stroke="#000000" stroke-width="0.5" stroke-dasharray="16,0" points="74.8789,384.48 74.8789,32.3984 521.281,32.3984"/>
<polyline fill="none" stroke="#000000" stroke-width="0.5" stroke-dasharray="16,0" points="74.8789,384.48 521.281,384.48"/>
</g>
</svg>
