<?xml version="1.0" encoding="UTF-8" standalone="no"?>
<svg xmlns="http://www.w3.org/2000/svg"
     xmlns:xlink="http://www.w3.org/1999/xlink"
     width="576px" height="432px" viewBox="0 0 576 432">
<title>glps_renderer figure</title>
<desc>
Creator: GL2PS 1.3.5, (C) 1999-2009 C. Geuzaine
For: Octave
CreationDate: Wed Feb 15 13:52:57 2012
</desc>
<defs>
</defs>
<g shape-rendering="crispEdges">
<text fill="#000000" x="298.08" y="389.481" font-size="10" text-anchor="middle" baseline-shift="-10" font-family="Helvetica">200</text>
<text fill="#000000" x="409.68" y="389.481" font-size="10" text-anchor="middle" baseline-shift="-10" font-family="Helvetica">300</text>
<text fill="#000000" x="521.28" y="389.481" font-size="10" text-anchor="middle" baseline-shift="-10" font-family="Helvetica">400</text>
<text fill="#000000" x="69.8755" y="384.48" font-size="10" text-anchor="end" baseline-shift="-5" font-family="Helvetica">0</text>
<text fill="#000000" x="69.8755" y="296.46" font-size="10" text-anchor="end" baseline-shift="-5" font-family="Helvetica">500</text>
<text fill="#000000" x="69.8755" y="208.44" font-size="10" text-anchor="end" baseline-shift="-5" font-family="Helvetica">1000</text>
<text fill="#000000" x="74.88" y="389.481" font-size="10" text-anchor="middle" baseline-shift="-10" font-family="Helvetica">0</text>
<text fill="#000000" x="186.48" y="389.481" font-size="10" text-anchor="middle" baseline-shift="-10" font-family="Helvetica">100</text>
<text fill="#000000" x="69.8755" y="120.42" font-size="10" text-anchor="end" baseline-shift="-5" font-family="Helvetica">1500</text>
<text fill="#000000" x="69.8755" y="32.4" font-size="10" text-anchor="end" baseline-shift="-5" font-family="Helvetica">2000</text>
<text fill="#000000" x="298.08" y="402.481" font-size="10" text-anchor="middle" baseline-shift="-10" font-family="Helvetica">time (10 seconds per unit)</text>
<text fill="#000000" x="45.8755" y="208.44" font-size="10" transform="rotate(-90, 45.8755, 208.44)" text-anchor="middle" baseline-shift="0" font-family="Helvetica">watt (W)</text>
<polyline fill="none" stroke="#000000" stroke-width="0.5" stroke-dasharray="16,0" points="74.8789,32.3984 521.281,32.3984"/>
<polyline fill="none" stroke="#000000" stroke-width="0.5" stroke-dasharray="16,0" points="74.8789,384.48 74.8789,32.3984"/>
<polyline fill="none" stroke="#000000" stroke-width="0.5" stroke-dasharray="16,0" points="521.281,384.48 521.281,32.3984"/>
<polyline fill="none" stroke="#000000" stroke-width="0.5" stroke-dasharray="0,3,1,3,1,3,1,3,1,0" points="74.8789,384.48 74.8789,32.3984"/>
<polyline fill="none" stroke="#000000" stroke-width="0.5" stroke-dasharray="0,3,1,3,1,3,1,3,1,0" points="186.48,384.48 186.48,32.3984"/>
<polyline fill="none" stroke="#000000" stroke-width="0.5" stroke-dasharray="0,3,1,3,1,3,1,3,1,0" points="298.078,384.48 298.078,32.3984"/>
<polyline fill="none" stroke="#000000" stroke-width="0.5" stroke-dasharray="0,3,1,3,1,3,1,3,1,0" points="409.68,384.48 409.68,32.3984"/>
<polyline fill="none" stroke="#000000" stroke-width="0.5" stroke-dasharray="16,0" points="74.8789,384.48 521.281,384.48"/>
<polyline fill="none" stroke="#000000" stroke-width="0.5" stroke-dasharray="0,3,1,3,1,3,1,3,1,0" points="521.281,384.48 521.281,32.3984"/>
<polyline fill="none" stroke="#000000" stroke-width="0.5" stroke-dasharray="16,0" points="74.8789,384.48 74.8789,377.477"/>
<polyline fill="none" stroke="#000000" stroke-width="0.5" stroke-dasharray="16,0" points="74.8789,32.3984 74.8789,39.4023"/>
<polyline fill="none" stroke="#000000" stroke-width="0.5" stroke-dasharray="16,0" points="186.48,384.48 186.48,377.477"/>
<polyline fill="none" stroke="#000000" stroke-width="0.5" stroke-dasharray="16,0" points="186.48,32.3984 186.48,39.4023"/>
<polyline fill="none" stroke="#000000" stroke-width="0.5" stroke-dasharray="16,0" points="298.078,384.48 298.078,377.477"/>
<polyline fill="none" stroke="#000000" stroke-width="0.5" stroke-dasharray="16,0" points="298.078,32.3984 298.078,39.4023"/>
<polyline fill="none" stroke="#000000" stroke-width="0.5" stroke-dasharray="16,0" points="409.68,384.48 409.68,377.477"/>
<polyline fill="none" stroke="#000000" stroke-width="0.5" stroke-dasharray="16,0" points="409.68,32.3984 409.68,39.4023"/>
<polyline fill="none" stroke="#000000" stroke-width="0.5" stroke-dasharray="16,0" points="521.281,384.48 521.281,377.477"/>
<polyline fill="none" stroke="#000000" stroke-width="0.5" stroke-dasharray="16,0" points="521.281,32.3984 521.281,39.4023"/>
<polyline fill="none" stroke="#000000" stroke-width="0.5" stroke-dasharray="0,3,1,3,1,3,1,3,1,0" points="97.1992,384.48 97.1992,32.3984"/>
<polyline fill="none" stroke="#000000" stroke-width="0.5" stroke-dasharray="0,3,1,3,1,3,1,3,1,0" points="119.52,384.48 119.52,32.3984"/>
<polyline fill="none" stroke="#000000" stroke-width="0.5" stroke-dasharray="0,3,1,3,1,3,1,3,1,0" points="141.84,384.48 141.84,32.3984"/>
<polyline fill="none" stroke="#000000" stroke-width="0.5" stroke-dasharray="0,3,1,3,1,3,1,3,1,0" points="164.16,384.48 164.16,32.3984"/>
<polyline fill="none" stroke="#000000" stroke-width="0.5" stroke-dasharray="0,3,1,3,1,3,1,3,1,0" points="208.801,384.48 208.801,32.3984"/>
<polyline fill="none" stroke="#000000" stroke-width="0.5" stroke-dasharray="0,3,1,3,1,3,1,3,1,0" points="231.121,384.48 231.121,32.3984"/>
<polyline fill="none" stroke="#000000" stroke-width="0.5" stroke-dasharray="0,3,1,3,1,3,1,3,1,0" points="253.441,384.48 253.441,32.3984"/>
<polyline fill="none" stroke="#000000" stroke-width="0.5" stroke-dasharray="0,3,1,3,1,3,1,3,1,0" points="275.762,384.48 275.762,32.3984"/>
<polyline fill="none" stroke="#000000" stroke-width="0.5" stroke-dasharray="0,3,1,3,1,3,1,3,1,0" points="320.398,384.48 320.398,32.3984"/>
<polyline fill="none" stroke="#000000" stroke-width="0.5" stroke-dasharray="0,3,1,3,1,3,1,3,1,0" points="342.719,384.48 342.719,32.3984"/>
<polyline fill="none" stroke="#000000" stroke-width="0.5" stroke-dasharray="0,3,1,3,1,3,1,3,1,0" points="365.039,384.48 365.039,32.3984"/>
<polyline fill="none" stroke="#000000" stroke-width="0.5" stroke-dasharray="0,3,1,3,1,3,1,3,1,0" points="387.359,384.48 387.359,32.3984"/>
<polyline fill="none" stroke="#000000" stroke-width="0.5" stroke-dasharray="0,3,1,3,1,3,1,3,1,0" points="432,384.48 432,32.3984"/>
<polyline fill="none" stroke="#000000" stroke-width="0.5" stroke-dasharray="0,3,1,3,1,3,1,3,1,0" points="454.32,384.48 454.32,32.3984"/>
<polyline fill="none" stroke="#000000" stroke-width="0.5" stroke-dasharray="0,3,1,3,1,3,1,3,1,0" points="476.641,384.48 476.641,32.3984"/>
<polyline fill="none" stroke="#000000" stroke-width="0.5" stroke-dasharray="0,3,1,3,1,3,1,3,1,0" points="498.961,384.48 498.961,32.3984"/>
<polyline fill="none" stroke="#000000" stroke-width="0.5" stroke-dasharray="0,3,1,3,1,3,1,3,1,0" points="74.8789,384.48 521.281,384.48"/>
<polyline fill="none" stroke="#000000" stroke-width="0.5" stroke-dasharray="0,3,1,3,1,3,1,3,1,0" points="74.8789,296.461 521.281,296.461"/>
<polyline fill="none" stroke="#000000" stroke-width="0.5" stroke-dasharray="0,3,1,3,1,3,1,3,1,0" points="74.8789,208.441 521.281,208.441"/>
<polyline fill="none" stroke="#000000" stroke-width="0.5" stroke-dasharray="0,3,1,3,1,3,1,3,1,0" points="74.8789,120.422 521.281,120.422"/>
<polyline fill="none" stroke="#000000" stroke-width="0.5" stroke-dasharray="0,3,1,3,1,3,1,3,1,0" points="74.8789,32.3984 521.281,32.3984"/>
<polyline fill="none" stroke="#000000" stroke-width="0.5" stroke-dasharray="16,0" points="74.8789,384.48 81.8867,384.48"/>
<polyline fill="none" stroke="#000000" stroke-width="0.5" stroke-dasharray="16,0" points="521.281,384.48 514.273,384.48"/>
<polyline fill="none" stroke="#000000" stroke-width="0.5" stroke-dasharray="16,0" points="74.8789,296.461 81.8867,296.461"/>
<polyline fill="none" stroke="#000000" stroke-width="0.5" stroke-dasharray="16,0" points="521.281,296.461 514.273,296.461"/>
<polyline fill="none" stroke="#000000" stroke-width="0.5" stroke-dasharray="16,0" points="74.8789,208.441 81.8867,208.441"/>
<polyline fill="none" stroke="#000000" stroke-width="0.5" stroke-dasharray="16,0" points="521.281,208.441 514.273,208.441"/>
<polyline fill="none" stroke="#000000" stroke-width="0.5" stroke-dasharray="16,0" points="74.8789,120.422 81.8867,120.422"/>
<polyline fill="none" stroke="#000000" stroke-width="0.5" stroke-dasharray="16,0" points="521.281,120.422 514.273,120.422"/>
<polyline fill="none" stroke="#000000" stroke-width="0.5" stroke-dasharray="16,0" points="74.8789,32.3984 81.8867,32.3984"/>
<polyline fill="none" stroke="#000000" stroke-width="0.5" stroke-dasharray="16,0" points="521.281,32.3984 514.273,32.3984"/>
<polyline fill="none" stroke="#000000" stroke-width="0.5" stroke-dasharray="0,3,1,3,1,3,1,3,1,0" points="74.8789,366.875 521.281,366.875"/>
<polyline fill="none" stroke="#000000" stroke-width="0.5" stroke-dasharray="0,3,1,3,1,3,1,3,1,0" points="74.8789,349.273 521.281,349.273"/>
<polyline fill="none" stroke="#000000" stroke-width="0.5" stroke-dasharray="0,3,1,3,1,3,1,3,1,0" points="74.8789,331.668 521.281,331.668"/>
<polyline fill="none" stroke="#000000" stroke-width="0.5" stroke-dasharray="0,3,1,3,1,3,1,3,1,0" points="74.8789,314.062 521.281,314.062"/>
<polyline fill="none" stroke="#000000" stroke-width="0.5" stroke-dasharray="0,3,1,3,1,3,1,3,1,0" points="74.8789,278.855 521.281,278.855"/>
<polyline fill="none" stroke="#000000" stroke-width="0.5" stroke-dasharray="0,3,1,3,1,3,1,3,1,0" points="74.8789,261.254 521.281,261.254"/>
<polyline fill="none" stroke="#000000" stroke-width="0.5" stroke-dasharray="0,3,1,3,1,3,1,3,1,0" points="74.8789,243.648 521.281,243.648"/>
<polyline fill="none" stroke="#000000" stroke-width="0.5" stroke-dasharray="0,3,1,3,1,3,1,3,1,0" points="74.8789,226.043 521.281,226.043"/>
<polyline fill="none" stroke="#000000" stroke-width="0.5" stroke-dasharray="0,3,1,3,1,3,1,3,1,0" points="74.8789,190.836 521.281,190.836"/>
<polyline fill="none" stroke="#000000" stroke-width="0.5" stroke-dasharray="0,3,1,3,1,3,1,3,1,0" points="74.8789,173.23 521.281,173.23"/>
<polyline fill="none" stroke="#000000" stroke-width="0.5" stroke-dasharray="0,3,1,3,1,3,1,3,1,0" points="74.8789,155.629 521.281,155.629"/>
<polyline fill="none" stroke="#000000" stroke-width="0.5" stroke-dasharray="0,3,1,3,1,3,1,3,1,0" points="74.8789,138.023 521.281,138.023"/>
<polyline fill="none" stroke="#000000" stroke-width="0.5" stroke-dasharray="0,3,1,3,1,3,1,3,1,0" points="74.8789,102.816 521.281,102.816"/>
<polyline fill="none" stroke="#000000" stroke-width="0.5" stroke-dasharray="0,3,1,3,1,3,1,3,1,0" points="74.8789,85.2109 521.281,85.2109"/>
<polyline fill="none" stroke="#000000" stroke-width="0.5" stroke-dasharray="0,3,1,3,1,3,1,3,1,0" points="74.8789,67.6094 521.281,67.6094"/>
<polyline fill="none" stroke="#000000" stroke-width="0.5" stroke-dasharray="0,3,1,3,1,3,1,3,1,0" points="74.8789,50.0039 521.281,50.0039"/>
<polyline fill="none" stroke="#ff0000" stroke-width="1.5" points="75.9961,383.898 77.1133,382.875 78.2266,383.879 79.3438,132.828 80.4609,150.707 81.5742,159.309 82.6914,197.578 83.8086,150.668 84.9258,160.746 86.0391,152.711 87.1562,135.234 88.2734,162.352 89.3867,155.426 90.5039,135.816 91.6211,164.938 92.7344,156.867 93.8516,136.293 94.9688,165.484 96.0859,156.828 97.1992,195.191 98.3164,142.668 99.4336,383.859 100.547,383.879 101.664,383.879 102.781,383.879 103.895,383.879 105.012,383.879 106.129,383.879 107.242,383.879 108.359,383.879 109.477,383.879 110.594,383.879 111.707,383.879 112.824,383.859 113.941,383.859 115.055,383.879 116.172,383.879 117.289,383.898 118.402,383.879 119.52,383.879 120.637,383.879 121.754,383.879 122.867,383.879 123.984,383.898 125.102,383.898 126.215,383.898 127.332,383.898 128.449,383.898 129.562,383.898 130.68,383.879 131.797,383.879 132.91,383.879 134.027,383.879 135.145,383.879 136.262,383.879 137.375,383.879 138.492,383.879 139.609,383.879 140.723,383.879 141.84,383.879 142.957,383.879 144.07,383.879 145.188,383.879 146.305,383.879 147.422,383.879 148.535,383.898 149.652,383.898 150.77,383.879 151.883,383.898 153,383.898 154.117,383.879 155.23,383.879 156.348,383.898 157.465,383.879 158.578,383.898 159.695,383.879 160.812,383.898 161.93,383.898 163.043,255.09 164.16,183.875 165.277,184.984 166.391,191.746 167.508,184.492 168.625,316.504 169.738,383.953 170.855,383.898 171.973,383.898 173.09,383.953 174.203,383.898 175.32,383.914 176.438,383.953 177.551,383.898 178.668,383.914 179.785,383.953 180.898,383.898 182.016,383.914 183.133,383.953 184.246,380.27 185.363,380.254 186.48,380.289 187.598,380.27 188.711,380.27 189.828,380.27 190.945,380.289 192.059,380.289 193.176,380.27 194.293,380.27 195.406,380.289 196.523,380.289 197.641,380.289 198.758,380.289 199.871,380.289 200.988,380.289 202.105,380.289 203.219,380.289 204.336,380.289 205.453,380.289 206.566,380.289 207.684,380.289 208.801,380.289 209.914,380.309 211.031,380.309 212.148,380.289 213.266,380.289 214.379,380.289 215.496,380.289 216.613,380.309 217.727,380.309 218.844,380.289 219.961,380.289 221.074,380.289 222.191,380.289 223.309,380.289 224.426,380.289 225.539,380.289 226.656,380.289 227.773,380.289 228.887,380.289 230.004,380.289 231.121,380.27 232.234,380.27 233.352,380.289 234.469,380.289 235.586,380.289 236.699,380.289 237.816,380.289 238.934,380.27 240.047,380.27 241.164,380.254 242.281,380.27 243.395,380.27 244.512,380.254 245.629,380.254 246.742,380.254 247.859,380.254 248.977,380.254 250.094,380.234 251.207,380.234 252.324,380.234 253.441,380.234 254.555,380.234 255.672,380.234 256.789,380.234 257.902,380.234 259.02,380.234 260.137,380.234 261.254,380.254 262.367,380.254 263.484,380.254 264.602,380.254 265.715,380.254 266.832,380.254 267.949,380.254 269.062,380.254 270.18,380.254 271.297,380.234 272.41,380.254 273.527,380.234 274.645,380.254 275.762,380.254 276.875,380.254 277.992,380.254 279.109,380.27 280.223,380.254 281.34,380.254 282.457,380.254 283.57,380.27 284.688,380.254 285.805,380.254 286.922,380.254 288.035,380.254 289.152,380.254 290.27,380.254 291.383,380.234 292.5,380.254 293.617,380.234 294.73,380.254 295.848,380.254 296.965,380.234 298.078,380.234 299.195,380.234 300.312,380.215 301.43,380.234 302.543,380.234 303.66,380.234 304.777,380.234 305.891,380.234 307.008,380.215 308.125,380.234 309.238,380.254 310.355,380.27 311.473,380.27 312.59,380.27 313.703,380.27 314.82,380.27 315.938,380.27 317.051,380.254 318.168,380.27 319.285,380.254 320.398,380.27 321.516,380.27 322.633,380.27 323.746,380.27 324.863,380.27 325.98,380.27 327.098,380.27 328.211,380.27 329.328,380.27 330.445,380.27 331.559,380.27 332.676,380.27 333.793,380.27 334.906,380.27 336.023,380.27 337.141,380.27 338.258,380.27 339.371,380.27 340.488,380.27 341.605,380.27 342.719,380.27 343.836,380.27 344.953,380.27 346.066,380.27 347.184,380.27 348.301,380.27 349.414,380.289 350.531,380.289 351.648,380.289 352.766,380.453 353.879,380.453 354.996,380.289 356.113,380.453 357.227,380.453 358.344,380.27 359.461,380.453 360.574,380.453 361.691,380.27 362.809,380.27 363.926,380.27 365.039,380.27 366.156,380.27 367.273,380.27 368.387,380.27 369.504,380.27 370.621,380.27 371.734,380.289 372.852,380.27 373.969,380.27 375.082,380.27 376.199,380.254 377.316,380.27 378.434,380.27 379.547,380.27 380.664,380.27 381.781,380.289 382.895,380.289 384.012,380.289 385.129,380.289 386.242,380.27 387.359,380.27 388.477,380.27 389.594,380.27 390.707,380.27 391.824,380.289 392.941,380.289 394.055,380.289 395.172,380.289 396.289,380.27 397.402,380.289 398.52,380.27 399.637,380.289 400.75,380.27 401.867,380.27 402.984,380.27 404.102,380.27 405.215,380.289 406.332,380.27 407.449,380.27 408.562,380.27 409.68,380.27 410.797,380.289 411.91,380.27 413.027,380.289 414.145,380.27 415.262,380.27 416.375,380.289 417.492,380.27 418.609,380.27 419.723,380.289 420.84,380.289 421.957,380.289 423.07,380.289 424.188,380.27 425.305,380.27 426.422,380.27 427.535,380.27 428.652,380.27 429.77,380.27 430.883,383.898 432,132.082 433.117,383.824 434.23,383.898 435.348,383.898 436.465,132.645 437.578,131.391 438.695,131.207 439.812,383.898 440.93,383.898 442.043,383.879 443.16,383.879 444.277,383.879 445.391,383.898 446.508,383.879 447.625,383.879 448.738,383.879 449.855,383.879 450.973,383.879 452.09,383.879 453.203,383.879 454.32,383.879 455.438,383.879 456.551,383.879 457.668,383.879 458.785,383.898 459.898,383.898 461.016,383.898 462.133,383.898 463.246,383.898 464.363,383.879 465.48,383.879 466.598,383.879 467.711,383.879 468.828,383.879 469.945,383.879 471.059,383.879 472.176,383.879 473.293,383.879 474.406,383.879 475.523,383.879"/>
<polyline fill="none" stroke="#000000" stroke-width="0.5" stroke-dasharray="16,0" points="521.281,384.48 521.281,384.48"/>
<polyline fill="none" stroke="#000000" stroke-width="0.5" stroke-dasharray="16,0" points="74.8789,384.48 74.8789,384.48"/>
<polyline fill="none" stroke="#000000" stroke-width="0.5" stroke-dasharray="16,0" points="74.8789,32.3984 74.8789,32.3984"/>
<polyline fill="none" stroke="#000000" stroke-width="0.5" stroke-dasharray="16,0" points="521.281,32.3984 521.281,32.3984"/>
<text fill="#000000" x="298.08" y="22.4" font-size="10" text-anchor="middle" baseline-shift="0" font-family="Helvetica">Microwave Satrap (power)</text>
<polyline fill="none" stroke="#000000" stroke-width="0.5" stroke-dasharray="16,0" points="521.281,384.48 521.281,32.3984"/>
<polyline fill="none" stroke="#000000" stroke-width="0.5" stroke-dasharray="16,0" points="74.8789,384.48 74.8789,32.3984 521.281,32.3984"/>
<polyline fill="none" stroke="#000000" stroke-width="0.5" stroke-dasharray="16,0" points="74.8789,384.48 521.281,384.48"/>
</g>
</svg>
