<?xml version="1.0" encoding="UTF-8" standalone="no"?>
<svg xmlns="http://www.w3.org/2000/svg"
     xmlns:xlink="http://www.w3.org/1999/xlink"
     width="576px" height="432px" viewBox="0 0 576 432">
<title>glps_renderer figure</title>
<desc>
Creator: GL2PS 1.3.5, (C) 1999-2009 C. Geuzaine
For: Octave
CreationDate: Wed Feb 15 13:52:29 2012
</desc>
<defs>
</defs>
<g shape-rendering="crispEdges">
<text fill="#000000" x="298.08" y="389.481" font-size="10" text-anchor="middle" baseline-shift="-10" font-family="Helvetica">200</text>
<text fill="#000000" x="409.68" y="389.481" font-size="10" text-anchor="middle" baseline-shift="-10" font-family="Helvetica">300</text>
<text fill="#000000" x="521.28" y="389.481" font-size="10" text-anchor="middle" baseline-shift="-10" font-family="Helvetica">400</text>
<text fill="#000000" x="69.8755" y="384.48" font-size="10" text-anchor="end" baseline-shift="-5" font-family="Helvetica">0</text>
<text fill="#000000" x="69.8755" y="296.46" font-size="10" text-anchor="end" baseline-shift="-5" font-family="Helvetica">20</text>
<text fill="#000000" x="69.8755" y="208.44" font-size="10" text-anchor="end" baseline-shift="-5" font-family="Helvetica">40</text>
<text fill="#000000" x="74.88" y="389.481" font-size="10" text-anchor="middle" baseline-shift="-10" font-family="Helvetica">0</text>
<text fill="#000000" x="186.48" y="389.481" font-size="10" text-anchor="middle" baseline-shift="-10" font-family="Helvetica">100</text>
<text fill="#000000" x="69.8755" y="120.42" font-size="10" text-anchor="end" baseline-shift="-5" font-family="Helvetica">60</text>
<text fill="#000000" x="69.8755" y="32.4" font-size="10" text-anchor="end" baseline-shift="-5" font-family="Helvetica">80</text>
<text fill="#000000" x="298.08" y="402.481" font-size="10" text-anchor="middle" baseline-shift="-10" font-family="Helvetica">time (10 seconds per unit)</text>
<text fill="#000000" x="57.8755" y="208.44" font-size="10" transform="rotate(-90, 57.8755, 208.44)" text-anchor="middle" baseline-shift="0" font-family="Helvetica">degree (°)</text>
<polyline fill="none" stroke="#000000" stroke-width="0.5" stroke-dasharray="16,0" points="74.8789,32.3984 521.281,32.3984"/>
<polyline fill="none" stroke="#000000" stroke-width="0.5" stroke-dasharray="16,0" points="74.8789,384.48 74.8789,32.3984"/>
<polyline fill="none" stroke="#000000" stroke-width="0.5" stroke-dasharray="16,0" points="521.281,384.48 521.281,32.3984"/>
<polyline fill="none" stroke="#000000" stroke-width="0.5" stroke-dasharray="0,3,1,3,1,3,1,3,1,0" points="74.8789,384.48 74.8789,32.3984"/>
<polyline fill="none" stroke="#000000" stroke-width="0.5" stroke-dasharray="0,3,1,3,1,3,1,3,1,0" points="186.48,384.48 186.48,32.3984"/>
<polyline fill="none" stroke="#000000" stroke-width="0.5" stroke-dasharray="0,3,1,3,1,3,1,3,1,0" points="298.078,384.48 298.078,32.3984"/>
<polyline fill="none" stroke="#000000" stroke-width="0.5" stroke-dasharray="0,3,1,3,1,3,1,3,1,0" points="409.68,384.48 409.68,32.3984"/>
<polyline fill="none" stroke="#000000" stroke-width="0.5" stroke-dasharray="16,0" points="74.8789,384.48 521.281,384.48"/>
<polyline fill="none" stroke="#000000" stroke-width="0.5" stroke-dasharray="0,3,1,3,1,3,1,3,1,0" points="521.281,384.48 521.281,32.3984"/>
<polyline fill="none" stroke="#000000" stroke-width="0.5" stroke-dasharray="16,0" points="74.8789,384.48 74.8789,377.477"/>
<polyline fill="none" stroke="#000000" stroke-width="0.5" stroke-dasharray="16,0" points="74.8789,32.3984 74.8789,39.4023"/>
<polyline fill="none" stroke="#000000" stroke-width="0.5" stroke-dasharray="16,0" points="186.48,384.48 186.48,377.477"/>
<polyline fill="none" stroke="#000000" stroke-width="0.5" stroke-dasharray="16,0" points="186.48,32.3984 186.48,39.4023"/>
<polyline fill="none" stroke="#000000" stroke-width="0.5" stroke-dasharray="16,0" points="298.078,384.48 298.078,377.477"/>
<polyline fill="none" stroke="#000000" stroke-width="0.5" stroke-dasharray="16,0" points="298.078,32.3984 298.078,39.4023"/>
<polyline fill="none" stroke="#000000" stroke-width="0.5" stroke-dasharray="16,0" points="409.68,384.48 409.68,377.477"/>
<polyline fill="none" stroke="#000000" stroke-width="0.5" stroke-dasharray="16,0" points="409.68,32.3984 409.68,39.4023"/>
<polyline fill="none" stroke="#000000" stroke-width="0.5" stroke-dasharray="16,0" points="521.281,384.48 521.281,377.477"/>
<polyline fill="none" stroke="#000000" stroke-width="0.5" stroke-dasharray="16,0" points="521.281,32.3984 521.281,39.4023"/>
<polyline fill="none" stroke="#000000" stroke-width="0.5" stroke-dasharray="0,3,1,3,1,3,1,3,1,0" points="97.1992,384.48 97.1992,32.3984"/>
<polyline fill="none" stroke="#000000" stroke-width="0.5" stroke-dasharray="0,3,1,3,1,3,1,3,1,0" points="119.52,384.48 119.52,32.3984"/>
<polyline fill="none" stroke="#000000" stroke-width="0.5" stroke-dasharray="0,3,1,3,1,3,1,3,1,0" points="141.84,384.48 141.84,32.3984"/>
<polyline fill="none" stroke="#000000" stroke-width="0.5" stroke-dasharray="0,3,1,3,1,3,1,3,1,0" points="164.16,384.48 164.16,32.3984"/>
<polyline fill="none" stroke="#000000" stroke-width="0.5" stroke-dasharray="0,3,1,3,1,3,1,3,1,0" points="208.801,384.48 208.801,32.3984"/>
<polyline fill="none" stroke="#000000" stroke-width="0.5" stroke-dasharray="0,3,1,3,1,3,1,3,1,0" points="231.121,384.48 231.121,32.3984"/>
<polyline fill="none" stroke="#000000" stroke-width="0.5" stroke-dasharray="0,3,1,3,1,3,1,3,1,0" points="253.441,384.48 253.441,32.3984"/>
<polyline fill="none" stroke="#000000" stroke-width="0.5" stroke-dasharray="0,3,1,3,1,3,1,3,1,0" points="275.762,384.48 275.762,32.3984"/>
<polyline fill="none" stroke="#000000" stroke-width="0.5" stroke-dasharray="0,3,1,3,1,3,1,3,1,0" points="320.398,384.48 320.398,32.3984"/>
<polyline fill="none" stroke="#000000" stroke-width="0.5" stroke-dasharray="0,3,1,3,1,3,1,3,1,0" points="342.719,384.48 342.719,32.3984"/>
<polyline fill="none" stroke="#000000" stroke-width="0.5" stroke-dasharray="0,3,1,3,1,3,1,3,1,0" points="365.039,384.48 365.039,32.3984"/>
<polyline fill="none" stroke="#000000" stroke-width="0.5" stroke-dasharray="0,3,1,3,1,3,1,3,1,0" points="387.359,384.48 387.359,32.3984"/>
<polyline fill="none" stroke="#000000" stroke-width="0.5" stroke-dasharray="0,3,1,3,1,3,1,3,1,0" points="432,384.48 432,32.3984"/>
<polyline fill="none" stroke="#000000" stroke-width="0.5" stroke-dasharray="0,3,1,3,1,3,1,3,1,0" points="454.32,384.48 454.32,32.3984"/>
<polyline fill="none" stroke="#000000" stroke-width="0.5" stroke-dasharray="0,3,1,3,1,3,1,3,1,0" points="476.641,384.48 476.641,32.3984"/>
<polyline fill="none" stroke="#000000" stroke-width="0.5" stroke-dasharray="0,3,1,3,1,3,1,3,1,0" points="498.961,384.48 498.961,32.3984"/>
<polyline fill="none" stroke="#000000" stroke-width="0.5" stroke-dasharray="0,3,1,3,1,3,1,3,1,0" points="74.8789,384.48 521.281,384.48"/>
<polyline fill="none" stroke="#000000" stroke-width="0.5" stroke-dasharray="0,3,1,3,1,3,1,3,1,0" points="74.8789,296.461 521.281,296.461"/>
<polyline fill="none" stroke="#000000" stroke-width="0.5" stroke-dasharray="0,3,1,3,1,3,1,3,1,0" points="74.8789,208.441 521.281,208.441"/>
<polyline fill="none" stroke="#000000" stroke-width="0.5" stroke-dasharray="0,3,1,3,1,3,1,3,1,0" points="74.8789,120.422 521.281,120.422"/>
<polyline fill="none" stroke="#000000" stroke-width="0.5" stroke-dasharray="0,3,1,3,1,3,1,3,1,0" points="74.8789,32.3984 521.281,32.3984"/>
<polyline fill="none" stroke="#000000" stroke-width="0.5" stroke-dasharray="16,0" points="74.8789,384.48 81.8867,384.48"/>
<polyline fill="none" stroke="#000000" stroke-width="0.5" stroke-dasharray="16,0" points="521.281,384.48 514.273,384.48"/>
<polyline fill="none" stroke="#000000" stroke-width="0.5" stroke-dasharray="16,0" points="74.8789,296.461 81.8867,296.461"/>
<polyline fill="none" stroke="#000000" stroke-width="0.5" stroke-dasharray="16,0" points="521.281,296.461 514.273,296.461"/>
<polyline fill="none" stroke="#000000" stroke-width="0.5" stroke-dasharray="16,0" points="74.8789,208.441 81.8867,208.441"/>
<polyline fill="none" stroke="#000000" stroke-width="0.5" stroke-dasharray="16,0" points="521.281,208.441 514.273,208.441"/>
<polyline fill="none" stroke="#000000" stroke-width="0.5" stroke-dasharray="16,0" points="74.8789,120.422 81.8867,120.422"/>
<polyline fill="none" stroke="#000000" stroke-width="0.5" stroke-dasharray="16,0" points="521.281,120.422 514.273,120.422"/>
<polyline fill="none" stroke="#000000" stroke-width="0.5" stroke-dasharray="16,0" points="74.8789,32.3984 81.8867,32.3984"/>
<polyline fill="none" stroke="#000000" stroke-width="0.5" stroke-dasharray="16,0" points="521.281,32.3984 514.273,32.3984"/>
<polyline fill="none" stroke="#000000" stroke-width="0.5" stroke-dasharray="0,3,1,3,1,3,1,3,1,0" points="74.8789,366.875 521.281,366.875"/>
<polyline fill="none" stroke="#000000" stroke-width="0.5" stroke-dasharray="0,3,1,3,1,3,1,3,1,0" points="74.8789,349.273 521.281,349.273"/>
<polyline fill="none" stroke="#000000" stroke-width="0.5" stroke-dasharray="0,3,1,3,1,3,1,3,1,0" points="74.8789,331.668 521.281,331.668"/>
<polyline fill="none" stroke="#000000" stroke-width="0.5" stroke-dasharray="0,3,1,3,1,3,1,3,1,0" points="74.8789,314.062 521.281,314.062"/>
<polyline fill="none" stroke="#000000" stroke-width="0.5" stroke-dasharray="0,3,1,3,1,3,1,3,1,0" points="74.8789,278.855 521.281,278.855"/>
<polyline fill="none" stroke="#000000" stroke-width="0.5" stroke-dasharray="0,3,1,3,1,3,1,3,1,0" points="74.8789,261.254 521.281,261.254"/>
<polyline fill="none" stroke="#000000" stroke-width="0.5" stroke-dasharray="0,3,1,3,1,3,1,3,1,0" points="74.8789,243.648 521.281,243.648"/>
<polyline fill="none" stroke="#000000" stroke-width="0.5" stroke-dasharray="0,3,1,3,1,3,1,3,1,0" points="74.8789,226.043 521.281,226.043"/>
<polyline fill="none" stroke="#000000" stroke-width="0.5" stroke-dasharray="0,3,1,3,1,3,1,3,1,0" points="74.8789,190.836 521.281,190.836"/>
<polyline fill="none" stroke="#000000" stroke-width="0.5" stroke-dasharray="0,3,1,3,1,3,1,3,1,0" points="74.8789,173.23 521.281,173.23"/>
<polyline fill="none" stroke="#000000" stroke-width="0.5" stroke-dasharray="0,3,1,3,1,3,1,3,1,0" points="74.8789,155.629 521.281,155.629"/>
<polyline fill="none" stroke="#000000" stroke-width="0.5" stroke-dasharray="0,3,1,3,1,3,1,3,1,0" points="74.8789,138.023 521.281,138.023"/>
<polyline fill="none" stroke="#000000" stroke-width="0.5" stroke-dasharray="0,3,1,3,1,3,1,3,1,0" points="74.8789,102.816 521.281,102.816"/>
<polyline fill="none" stroke="#000000" stroke-width="0.5" stroke-dasharray="0,3,1,3,1,3,1,3,1,0" points="74.8789,85.2109 521.281,85.2109"/>
<polyline fill="none" stroke="#000000" stroke-width="0.5" stroke-dasharray="0,3,1,3,1,3,1,3,1,0" points="74.8789,67.6094 521.281,67.6094"/>
<polyline fill="none" stroke="#000000" stroke-width="0.5" stroke-dasharray="0,3,1,3,1,3,1,3,1,0" points="74.8789,50.0039 521.281,50.0039"/>
<polyline fill="none" stroke="#ff0000" stroke-width="1.5" points="75.9961,50.0039 77.1133,50.0039 78.2266,50.0039 79.3438,50.0039 80.4609,50.0039 81.5742,50.0039 82.6914,50.0039 83.8086,50.0039 84.9258,50.0039 86.0391,50.0039 87.1562,50.0039 88.2734,50.0039 89.3867,50.0039 90.5039,50.0039 91.6211,72.0078 92.7344,72.0078 93.8516,72.0078 94.9688,72.0078 96.0859,50.0039 97.1992,72.0078 98.3164,72.0078 99.4336,72.0078 100.547,72.0078 101.664,72.0078 102.781,72.0078 103.895,72.0078 105.012,72.0078 106.129,72.0078 107.242,72.0078 108.359,72.0078 109.477,72.0078 110.594,72.0078 111.707,72.0078 112.824,72.0078 113.941,72.0078 115.055,72.0078 116.172,72.0078 117.289,72.0078 118.402,72.0078 119.52,72.0078 120.637,72.0078 121.754,72.0078 122.867,72.0078 123.984,72.0078 125.102,72.0078 126.215,72.0078 127.332,72.0078 128.449,72.0078 129.562,72.0078 130.68,72.0078 131.797,72.0078 132.91,72.0078 134.027,72.0078 135.145,72.0078 136.262,72.0078 137.375,72.0078 138.492,72.0078 139.609,72.0078 140.723,72.0078 141.84,72.0078 142.957,72.0078 144.07,72.0078 145.188,72.0078 146.305,72.0078 147.422,72.0078 148.535,72.0078 149.652,72.0078 150.77,72.0078 151.883,72.0078 153,72.0078 154.117,72.0078 155.23,72.0078 156.348,72.0078 157.465,72.0078 158.578,72.0078 159.695,72.0078 160.812,72.0078 161.93,72.0078 163.043,72.0078 164.16,72.0078 165.277,72.0078 166.391,72.0078 167.508,72.0078 168.625,72.0078 169.738,72.0078 170.855,72.0078 171.973,72.0078 173.09,72.0078 174.203,72.0078 175.32,72.0078 176.438,72.0078 177.551,72.0078 178.668,72.0078 179.785,72.0078 180.898,72.0078 182.016,72.0078 183.133,72.0078 184.246,72.0078 185.363,72.0078 186.48,72.0078 187.598,72.0078 188.711,72.0078 189.828,72.0078 190.945,72.0078 192.059,72.0078 193.176,72.0078 194.293,72.0078 195.406,72.0078 196.523,72.0078 197.641,72.0078 198.758,72.0078 199.871,72.0078 200.988,72.0078 202.105,72.0078 203.219,72.0078 204.336,72.0078 205.453,72.0078 206.566,72.0078 207.684,72.0078 208.801,72.0078 209.914,72.0078 211.031,72.0078 212.148,72.0078 213.266,72.0078 214.379,72.0078 215.496,72.0078 216.613,72.0078 217.727,72.0078 218.844,72.0078 219.961,72.0078 221.074,72.0078 222.191,72.0078 223.309,72.0078 224.426,72.0078 225.539,72.0078 226.656,72.0078 227.773,72.0078 228.887,72.0078 230.004,72.0078 231.121,72.0078 232.234,72.0078 233.352,72.0078 234.469,72.0078 235.586,72.0078 236.699,72.0078 237.816,72.0078 238.934,72.0078 240.047,72.0078 241.164,72.0078 242.281,72.0078 243.395,72.0078 244.512,72.0078 245.629,72.0078 246.742,72.0078 247.859,72.0078 248.977,72.0078 250.094,72.0078 251.207,72.0078 252.324,72.0078 253.441,72.0078 254.555,72.0078 255.672,72.0078 256.789,72.0078 257.902,318.465 259.02,72.0078 260.137,72.0078 261.254,72.0078 262.367,72.0078 263.484,72.0078 264.602,72.0078 265.715,54.4062 266.832,358.074 267.949,358.074 269.062,72.0078 270.18,72.0078 271.297,72.0078 272.41,72.0078 273.527,72.0078 274.645,72.0078 275.762,72.0078 276.875,72.0078 277.992,72.0078 279.109,72.0078 280.223,72.0078 281.34,72.0078 282.457,72.0078 283.57,72.0078 284.688,72.0078 285.805,72.0078 286.922,72.0078 288.035,72.0078 289.152,72.0078 290.27,72.0078 291.383,72.0078 292.5,72.0078 293.617,72.0078 294.73,72.0078 295.848,72.0078 296.965,72.0078 298.078,72.0078 299.195,72.0078 300.312,72.0078 301.43,72.0078 302.543,72.0078 303.66,72.0078 304.777,72.0078 305.891,72.0078 307.008,72.0078 308.125,72.0078 309.238,72.0078 310.355,72.0078 311.473,72.0078 312.59,72.0078 313.703,72.0078 314.82,72.0078 315.938,72.0078 317.051,72.0078 318.168,72.0078 319.285,72.0078 320.398,72.0078 321.516,72.0078 322.633,72.0078 323.746,72.0078 324.863,50.0039 325.98,50.0039 327.098,72.0078 328.211,72.0078 329.328,72.0078 330.445,72.0078 331.559,72.0078 332.676,72.0078 333.793,72.0078 334.906,50.0039 336.023,72.0078 337.141,50.0039 338.258,72.0078 339.371,72.0078 340.488,72.0078 341.605,72.0078 342.719,72.0078 343.836,72.0078 344.953,72.0078 346.066,72.0078 347.184,72.0078 348.301,72.0078 349.414,72.0078 350.531,72.0078 351.648,72.0078 352.766,72.0078 353.879,72.0078 354.996,72.0078 356.113,72.0078 357.227,72.0078 358.344,72.0078 359.461,72.0078 360.574,72.0078 361.691,72.0078 362.809,72.0078 363.926,72.0078 365.039,72.0078 366.156,72.0078 367.273,72.0078 368.387,72.0078 369.504,72.0078 370.621,72.0078 371.734,72.0078 372.852,72.0078 373.969,72.0078 375.082,72.0078 376.199,72.0078 377.316,72.0078 378.434,72.0078 379.547,72.0078 380.664,72.0078 381.781,72.0078 382.895,72.0078 384.012,72.0078 385.129,72.0078 386.242,72.0078 387.359,72.0078 388.477,72.0078 389.594,50.0039 390.707,72.0078 391.824,72.0078 392.941,72.0078 394.055,72.0078 395.172,72.0078 396.289,72.0078 397.402,72.0078 398.52,72.0078 399.637,72.0078 400.75,72.0078 401.867,72.0078 402.984,72.0078 404.102,72.0078 405.215,72.0078 406.332,72.0078 407.449,72.0078 408.562,72.0078 409.68,72.0078 410.797,72.0078 411.91,72.0078 413.027,72.0078 414.145,72.0078 415.262,72.0078 416.375,72.0078 417.492,72.0078 418.609,72.0078 419.723,72.0078 420.84,72.0078 421.957,72.0078 423.07,72.0078 424.188,72.0078 425.305,72.0078 426.422,72.0078 427.535,72.0078 428.652,72.0078 429.77,72.0078 430.883,72.0078 432,72.0078 433.117,72.0078 434.23,72.0078 435.348,72.0078 436.465,72.0078 437.578,72.0078 438.695,72.0078 439.812,72.0078 440.93,72.0078 442.043,72.0078 443.16,72.0078 444.277,72.0078 445.391,72.0078 446.508,72.0078 447.625,72.0078 448.738,72.0078 449.855,72.0078 450.973,72.0078 452.09,72.0078 453.203,72.0078 454.32,72.0078 455.438,72.0078 456.551,72.0078 457.668,72.0078 458.785,72.0078 459.898,72.0078 461.016,72.0078 462.133,72.0078 463.246,72.0078 464.363,72.0078 465.48,72.0078 466.598,72.0078 467.711,72.0078 468.828,72.0078 469.945,72.0078 471.059,72.0078 472.176,72.0078 473.293,72.0078 474.406,72.0078 475.523,72.0078"/>
<polyline fill="none" stroke="#000000" stroke-width="0.5" stroke-dasharray="16,0" points="521.281,384.48 521.281,384.48"/>
<polyline fill="none" stroke="#000000" stroke-width="0.5" stroke-dasharray="16,0" points="74.8789,384.48 74.8789,384.48"/>
<polyline fill="none" stroke="#000000" stroke-width="0.5" stroke-dasharray="16,0" points="74.8789,32.3984 74.8789,32.3984"/>
<polyline fill="none" stroke="#000000" stroke-width="0.5" stroke-dasharray="16,0" points="521.281,32.3984 521.281,32.3984"/>
<text fill="#000000" x="298.08" y="22.4" font-size="10" text-anchor="middle" baseline-shift="0" font-family="Helvetica">Microwave Satrap (phase angle)</text>
<polyline fill="none" stroke="#000000" stroke-width="0.5" stroke-dasharray="16,0" points="521.281,384.48 521.281,32.3984"/>
<polyline fill="none" stroke="#000000" stroke-width="0.5" stroke-dasharray="16,0" points="74.8789,384.48 74.8789,32.3984 521.281,32.3984"/>
<polyline fill="none" stroke="#000000" stroke-width="0.5" stroke-dasharray="16,0" points="74.8789,384.48 521.281,384.48"/>
</g>
</svg>
