<?xml version="1.0" encoding="UTF-8" standalone="no"?>
<svg xmlns="http://www.w3.org/2000/svg"
     xmlns:xlink="http://www.w3.org/1999/xlink"
     width="576px" height="432px" viewBox="0 0 576 432">
<title>glps_renderer figure</title>
<desc>
Creator: GL2PS 1.3.5, (C) 1999-2009 C. Geuzaine
For: Octave
CreationDate: Wed Feb 15 13:52:53 2012
</desc>
<defs>
</defs>
<g shape-rendering="crispEdges">
<text fill="#000000" x="298.08" y="389.481" font-size="10" text-anchor="middle" baseline-shift="-10" font-family="Helvetica">200</text>
<text fill="#000000" x="409.68" y="389.481" font-size="10" text-anchor="middle" baseline-shift="-10" font-family="Helvetica">300</text>
<text fill="#000000" x="521.28" y="389.481" font-size="10" text-anchor="middle" baseline-shift="-10" font-family="Helvetica">400</text>
<text fill="#000000" x="69.8755" y="384.48" font-size="10" text-anchor="end" baseline-shift="-5" font-family="Helvetica">0</text>
<text fill="#000000" x="69.8755" y="296.46" font-size="10" text-anchor="end" baseline-shift="-5" font-family="Helvetica">20</text>
<text fill="#000000" x="69.8755" y="208.44" font-size="10" text-anchor="end" baseline-shift="-5" font-family="Helvetica">40</text>
<text fill="#000000" x="74.88" y="389.481" font-size="10" text-anchor="middle" baseline-shift="-10" font-family="Helvetica">0</text>
<text fill="#000000" x="186.48" y="389.481" font-size="10" text-anchor="middle" baseline-shift="-10" font-family="Helvetica">100</text>
<text fill="#000000" x="69.8755" y="120.42" font-size="10" text-anchor="end" baseline-shift="-5" font-family="Helvetica">60</text>
<text fill="#000000" x="69.8755" y="32.4" font-size="10" text-anchor="end" baseline-shift="-5" font-family="Helvetica">80</text>
<text fill="#000000" x="298.08" y="402.481" font-size="10" text-anchor="middle" baseline-shift="-10" font-family="Helvetica">time (10 seconds per unit)</text>
<text fill="#000000" x="57.8755" y="208.44" font-size="10" transform="rotate(-90, 57.8755, 208.44)" text-anchor="middle" baseline-shift="0" font-family="Helvetica">degree (°)</text>
<polyline fill="none" stroke="#000000" stroke-width="0.5" stroke-dasharray="16,0" points="74.8789,32.3984 521.281,32.3984"/>
<polyline fill="none" stroke="#000000" stroke-width="0.5" stroke-dasharray="16,0" points="74.8789,384.48 74.8789,32.3984"/>
<polyline fill="none" stroke="#000000" stroke-width="0.5" stroke-dasharray="16,0" points="521.281,384.48 521.281,32.3984"/>
<polyline fill="none" stroke="#000000" stroke-width="0.5" stroke-dasharray="0,3,1,3,1,3,1,3,1,0" points="74.8789,384.48 74.8789,32.3984"/>
<polyline fill="none" stroke="#000000" stroke-width="0.5" stroke-dasharray="0,3,1,3,1,3,1,3,1,0" points="186.48,384.48 186.48,32.3984"/>
<polyline fill="none" stroke="#000000" stroke-width="0.5" stroke-dasharray="0,3,1,3,1,3,1,3,1,0" points="298.078,384.48 298.078,32.3984"/>
<polyline fill="none" stroke="#000000" stroke-width="0.5" stroke-dasharray="0,3,1,3,1,3,1,3,1,0" points="409.68,384.48 409.68,32.3984"/>
<polyline fill="none" stroke="#000000" stroke-width="0.5" stroke-dasharray="16,0" points="74.8789,384.48 521.281,384.48"/>
<polyline fill="none" stroke="#000000" stroke-width="0.5" stroke-dasharray="0,3,1,3,1,3,1,3,1,0" points="521.281,384.48 521.281,32.3984"/>
<polyline fill="none" stroke="#000000" stroke-width="0.5" stroke-dasharray="16,0" points="74.8789,384.48 74.8789,377.477"/>
<polyline fill="none" stroke="#000000" stroke-width="0.5" stroke-dasharray="16,0" points="74.8789,32.3984 74.8789,39.4023"/>
<polyline fill="none" stroke="#000000" stroke-width="0.5" stroke-dasharray="16,0" points="186.48,384.48 186.48,377.477"/>
<polyline fill="none" stroke="#000000" stroke-width="0.5" stroke-dasharray="16,0" points="186.48,32.3984 186.48,39.4023"/>
<polyline fill="none" stroke="#000000" stroke-width="0.5" stroke-dasharray="16,0" points="298.078,384.48 298.078,377.477"/>
<polyline fill="none" stroke="#000000" stroke-width="0.5" stroke-dasharray="16,0" points="298.078,32.3984 298.078,39.4023"/>
<polyline fill="none" stroke="#000000" stroke-width="0.5" stroke-dasharray="16,0" points="409.68,384.48 409.68,377.477"/>
<polyline fill="none" stroke="#000000" stroke-width="0.5" stroke-dasharray="16,0" points="409.68,32.3984 409.68,39.4023"/>
<polyline fill="none" stroke="#000000" stroke-width="0.5" stroke-dasharray="16,0" points="521.281,384.48 521.281,377.477"/>
<polyline fill="none" stroke="#000000" stroke-width="0.5" stroke-dasharray="16,0" points="521.281,32.3984 521.281,39.4023"/>
<polyline fill="none" stroke="#000000" stroke-width="0.5" stroke-dasharray="0,3,1,3,1,3,1,3,1,0" points="97.1992,384.48 97.1992,32.3984"/>
<polyline fill="none" stroke="#000000" stroke-width="0.5" stroke-dasharray="0,3,1,3,1,3,1,3,1,0" points="119.52,384.48 119.52,32.3984"/>
<polyline fill="none" stroke="#000000" stroke-width="0.5" stroke-dasharray="0,3,1,3,1,3,1,3,1,0" points="141.84,384.48 141.84,32.3984"/>
<polyline fill="none" stroke="#000000" stroke-width="0.5" stroke-dasharray="0,3,1,3,1,3,1,3,1,0" points="164.16,384.48 164.16,32.3984"/>
<polyline fill="none" stroke="#000000" stroke-width="0.5" stroke-dasharray="0,3,1,3,1,3,1,3,1,0" points="208.801,384.48 208.801,32.3984"/>
<polyline fill="none" stroke="#000000" stroke-width="0.5" stroke-dasharray="0,3,1,3,1,3,1,3,1,0" points="231.121,384.48 231.121,32.3984"/>
<polyline fill="none" stroke="#000000" stroke-width="0.5" stroke-dasharray="0,3,1,3,1,3,1,3,1,0" points="253.441,384.48 253.441,32.3984"/>
<polyline fill="none" stroke="#000000" stroke-width="0.5" stroke-dasharray="0,3,1,3,1,3,1,3,1,0" points="275.762,384.48 275.762,32.3984"/>
<polyline fill="none" stroke="#000000" stroke-width="0.5" stroke-dasharray="0,3,1,3,1,3,1,3,1,0" points="320.398,384.48 320.398,32.3984"/>
<polyline fill="none" stroke="#000000" stroke-width="0.5" stroke-dasharray="0,3,1,3,1,3,1,3,1,0" points="342.719,384.48 342.719,32.3984"/>
<polyline fill="none" stroke="#000000" stroke-width="0.5" stroke-dasharray="0,3,1,3,1,3,1,3,1,0" points="365.039,384.48 365.039,32.3984"/>
<polyline fill="none" stroke="#000000" stroke-width="0.5" stroke-dasharray="0,3,1,3,1,3,1,3,1,0" points="387.359,384.48 387.359,32.3984"/>
<polyline fill="none" stroke="#000000" stroke-width="0.5" stroke-dasharray="0,3,1,3,1,3,1,3,1,0" points="432,384.48 432,32.3984"/>
<polyline fill="none" stroke="#000000" stroke-width="0.5" stroke-dasharray="0,3,1,3,1,3,1,3,1,0" points="454.32,384.48 454.32,32.3984"/>
<polyline fill="none" stroke="#000000" stroke-width="0.5" stroke-dasharray="0,3,1,3,1,3,1,3,1,0" points="476.641,384.48 476.641,32.3984"/>
<polyline fill="none" stroke="#000000" stroke-width="0.5" stroke-dasharray="0,3,1,3,1,3,1,3,1,0" points="498.961,384.48 498.961,32.3984"/>
<polyline fill="none" stroke="#000000" stroke-width="0.5" stroke-dasharray="0,3,1,3,1,3,1,3,1,0" points="74.8789,384.48 521.281,384.48"/>
<polyline fill="none" stroke="#000000" stroke-width="0.5" stroke-dasharray="0,3,1,3,1,3,1,3,1,0" points="74.8789,296.461 521.281,296.461"/>
<polyline fill="none" stroke="#000000" stroke-width="0.5" stroke-dasharray="0,3,1,3,1,3,1,3,1,0" points="74.8789,208.441 521.281,208.441"/>
<polyline fill="none" stroke="#000000" stroke-width="0.5" stroke-dasharray="0,3,1,3,1,3,1,3,1,0" points="74.8789,120.422 521.281,120.422"/>
<polyline fill="none" stroke="#000000" stroke-width="0.5" stroke-dasharray="0,3,1,3,1,3,1,3,1,0" points="74.8789,32.3984 521.281,32.3984"/>
<polyline fill="none" stroke="#000000" stroke-width="0.5" stroke-dasharray="16,0" points="74.8789,384.48 81.8867,384.48"/>
<polyline fill="none" stroke="#000000" stroke-width="0.5" stroke-dasharray="16,0" points="521.281,384.48 514.273,384.48"/>
<polyline fill="none" stroke="#000000" stroke-width="0.5" stroke-dasharray="16,0" points="74.8789,296.461 81.8867,296.461"/>
<polyline fill="none" stroke="#000000" stroke-width="0.5" stroke-dasharray="16,0" points="521.281,296.461 514.273,296.461"/>
<polyline fill="none" stroke="#000000" stroke-width="0.5" stroke-dasharray="16,0" points="74.8789,208.441 81.8867,208.441"/>
<polyline fill="none" stroke="#000000" stroke-width="0.5" stroke-dasharray="16,0" points="521.281,208.441 514.273,208.441"/>
<polyline fill="none" stroke="#000000" stroke-width="0.5" stroke-dasharray="16,0" points="74.8789,120.422 81.8867,120.422"/>
<polyline fill="none" stroke="#000000" stroke-width="0.5" stroke-dasharray="16,0" points="521.281,120.422 514.273,120.422"/>
<polyline fill="none" stroke="#000000" stroke-width="0.5" stroke-dasharray="16,0" points="74.8789,32.3984 81.8867,32.3984"/>
<polyline fill="none" stroke="#000000" stroke-width="0.5" stroke-dasharray="16,0" points="521.281,32.3984 514.273,32.3984"/>
<polyline fill="none" stroke="#000000" stroke-width="0.5" stroke-dasharray="0,3,1,3,1,3,1,3,1,0" points="74.8789,366.875 521.281,366.875"/>
<polyline fill="none" stroke="#000000" stroke-width="0.5" stroke-dasharray="0,3,1,3,1,3,1,3,1,0" points="74.8789,349.273 521.281,349.273"/>
<polyline fill="none" stroke="#000000" stroke-width="0.5" stroke-dasharray="0,3,1,3,1,3,1,3,1,0" points="74.8789,331.668 521.281,331.668"/>
<polyline fill="none" stroke="#000000" stroke-width="0.5" stroke-dasharray="0,3,1,3,1,3,1,3,1,0" points="74.8789,314.062 521.281,314.062"/>
<polyline fill="none" stroke="#000000" stroke-width="0.5" stroke-dasharray="0,3,1,3,1,3,1,3,1,0" points="74.8789,278.855 521.281,278.855"/>
<polyline fill="none" stroke="#000000" stroke-width="0.5" stroke-dasharray="0,3,1,3,1,3,1,3,1,0" points="74.8789,261.254 521.281,261.254"/>
<polyline fill="none" stroke="#000000" stroke-width="0.5" stroke-dasharray="0,3,1,3,1,3,1,3,1,0" points="74.8789,243.648 521.281,243.648"/>
<polyline fill="none" stroke="#000000" stroke-width="0.5" stroke-dasharray="0,3,1,3,1,3,1,3,1,0" points="74.8789,226.043 521.281,226.043"/>
<polyline fill="none" stroke="#000000" stroke-width="0.5" stroke-dasharray="0,3,1,3,1,3,1,3,1,0" points="74.8789,190.836 521.281,190.836"/>
<polyline fill="none" stroke="#000000" stroke-width="0.5" stroke-dasharray="0,3,1,3,1,3,1,3,1,0" points="74.8789,173.23 521.281,173.23"/>
<polyline fill="none" stroke="#000000" stroke-width="0.5" stroke-dasharray="0,3,1,3,1,3,1,3,1,0" points="74.8789,155.629 521.281,155.629"/>
<polyline fill="none" stroke="#000000" stroke-width="0.5" stroke-dasharray="0,3,1,3,1,3,1,3,1,0" points="74.8789,138.023 521.281,138.023"/>
<polyline fill="none" stroke="#000000" stroke-width="0.5" stroke-dasharray="0,3,1,3,1,3,1,3,1,0" points="74.8789,102.816 521.281,102.816"/>
<polyline fill="none" stroke="#000000" stroke-width="0.5" stroke-dasharray="0,3,1,3,1,3,1,3,1,0" points="74.8789,85.2109 521.281,85.2109"/>
<polyline fill="none" stroke="#000000" stroke-width="0.5" stroke-dasharray="0,3,1,3,1,3,1,3,1,0" points="74.8789,67.6094 521.281,67.6094"/>
<polyline fill="none" stroke="#000000" stroke-width="0.5" stroke-dasharray="0,3,1,3,1,3,1,3,1,0" points="74.8789,50.0039 521.281,50.0039"/>
<polyline fill="none" stroke="#ff0000" stroke-width="1.5" points="75.9961,72.0078 77.1133,221.645 78.2266,72.0078 79.3438,362.477 80.4609,375.68 81.5742,380.078 82.6914,309.664 83.8086,375.68 84.9258,380.078 86.0391,375.68 87.1562,362.477 88.2734,380.078 89.3867,375.68 90.5039,366.875 91.6211,380.078 92.7344,375.68 93.8516,362.477 94.9688,380.078 96.0859,375.68 97.1992,344.871 98.3164,375.68 99.4336,72.0078 100.547,72.0078 101.664,50.0039 102.781,72.0078 103.895,50.0039 105.012,50.0039 106.129,72.0078 107.242,50.0039 108.359,50.0039 109.477,50.0039 110.594,50.0039 111.707,50.0039 112.824,72.0078 113.941,50.0039 115.055,72.0078 116.172,72.0078 117.289,72.0078 118.402,72.0078 119.52,72.0078 120.637,72.0078 121.754,72.0078 122.867,72.0078 123.984,72.0078 125.102,72.0078 126.215,72.0078 127.332,72.0078 128.449,72.0078 129.562,72.0078 130.68,72.0078 131.797,72.0078 132.91,72.0078 134.027,72.0078 135.145,72.0078 136.262,72.0078 137.375,72.0078 138.492,72.0078 139.609,72.0078 140.723,72.0078 141.84,72.0078 142.957,72.0078 144.07,72.0078 145.188,72.0078 146.305,72.0078 147.422,72.0078 148.535,72.0078 149.652,72.0078 150.77,72.0078 151.883,72.0078 153,72.0078 154.117,72.0078 155.23,72.0078 156.348,72.0078 157.465,72.0078 158.578,72.0078 159.695,72.0078 160.812,72.0078 161.93,72.0078 163.043,371.277 164.16,371.277 165.277,371.277 166.391,375.68 167.508,371.277 168.625,366.875 169.738,72.0078 170.855,72.0078 171.973,72.0078 173.09,72.0078 174.203,72.0078 175.32,72.0078 176.438,72.0078 177.551,72.0078 178.668,72.0078 179.785,72.0078 180.898,72.0078 182.016,72.0078 183.133,72.0078 184.246,318.465 185.363,318.465 186.48,318.465 187.598,318.465 188.711,318.465 189.828,318.465 190.945,318.465 192.059,318.465 193.176,318.465 194.293,318.465 195.406,318.465 196.523,318.465 197.641,318.465 198.758,318.465 199.871,318.465 200.988,318.465 202.105,318.465 203.219,318.465 204.336,318.465 205.453,318.465 206.566,318.465 207.684,318.465 208.801,318.465 209.914,318.465 211.031,318.465 212.148,318.465 213.266,318.465 214.379,318.465 215.496,318.465 216.613,318.465 217.727,318.465 218.844,318.465 219.961,318.465 221.074,318.465 222.191,318.465 223.309,318.465 224.426,318.465 225.539,318.465 226.656,318.465 227.773,318.465 228.887,318.465 230.004,318.465 231.121,318.465 232.234,318.465 233.352,318.465 234.469,318.465 235.586,318.465 236.699,318.465 237.816,318.465 238.934,318.465 240.047,318.465 241.164,318.465 242.281,318.465 243.395,318.465 244.512,318.465 245.629,318.465 246.742,318.465 247.859,318.465 248.977,318.465 250.094,318.465 251.207,318.465 252.324,318.465 253.441,318.465 254.555,318.465 255.672,318.465 256.789,318.465 257.902,318.465 259.02,318.465 260.137,318.465 261.254,318.465 262.367,318.465 263.484,318.465 264.602,318.465 265.715,318.465 266.832,318.465 267.949,318.465 269.062,318.465 270.18,318.465 271.297,318.465 272.41,318.465 273.527,318.465 274.645,318.465 275.762,318.465 276.875,318.465 277.992,318.465 279.109,318.465 280.223,318.465 281.34,318.465 282.457,318.465 283.57,318.465 284.688,318.465 285.805,318.465 286.922,318.465 288.035,318.465 289.152,318.465 290.27,318.465 291.383,318.465 292.5,318.465 293.617,318.465 294.73,318.465 295.848,318.465 296.965,318.465 298.078,318.465 299.195,318.465 300.312,318.465 301.43,318.465 302.543,318.465 303.66,318.465 304.777,318.465 305.891,318.465 307.008,318.465 308.125,318.465 309.238,318.465 310.355,318.465 311.473,318.465 312.59,318.465 313.703,318.465 314.82,318.465 315.938,318.465 317.051,318.465 318.168,318.465 319.285,318.465 320.398,318.465 321.516,318.465 322.633,318.465 323.746,318.465 324.863,318.465 325.98,318.465 327.098,318.465 328.211,318.465 329.328,318.465 330.445,318.465 331.559,318.465 332.676,318.465 333.793,318.465 334.906,318.465 336.023,318.465 337.141,318.465 338.258,318.465 339.371,318.465 340.488,318.465 341.605,318.465 342.719,318.465 343.836,318.465 344.953,318.465 346.066,318.465 347.184,318.465 348.301,318.465 349.414,318.465 350.531,318.465 351.648,318.465 352.766,318.465 353.879,318.465 354.996,318.465 356.113,318.465 357.227,318.465 358.344,318.465 359.461,318.465 360.574,318.465 361.691,318.465 362.809,318.465 363.926,318.465 365.039,318.465 366.156,318.465 367.273,318.465 368.387,318.465 369.504,318.465 370.621,318.465 371.734,318.465 372.852,318.465 373.969,318.465 375.082,318.465 376.199,318.465 377.316,318.465 378.434,318.465 379.547,318.465 380.664,318.465 381.781,318.465 382.895,318.465 384.012,318.465 385.129,318.465 386.242,318.465 387.359,318.465 388.477,318.465 389.594,318.465 390.707,318.465 391.824,318.465 392.941,318.465 394.055,318.465 395.172,318.465 396.289,318.465 397.402,318.465 398.52,318.465 399.637,318.465 400.75,318.465 401.867,318.465 402.984,318.465 404.102,318.465 405.215,318.465 406.332,318.465 407.449,318.465 408.562,318.465 409.68,318.465 410.797,318.465 411.91,318.465 413.027,318.465 414.145,318.465 415.262,318.465 416.375,318.465 417.492,318.465 418.609,318.465 419.723,318.465 420.84,318.465 421.957,318.465 423.07,318.465 424.188,318.465 425.305,318.465 426.422,318.465 427.535,318.465 428.652,318.465 429.77,318.465 430.883,72.0078 432,362.477 433.117,72.0078 434.23,72.0078 435.348,72.0078 436.465,362.477 437.578,362.477 438.695,362.477 439.812,72.0078 440.93,72.0078 442.043,72.0078 443.16,72.0078 444.277,72.0078 445.391,72.0078 446.508,72.0078 447.625,72.0078 448.738,72.0078 449.855,72.0078 450.973,72.0078 452.09,72.0078 453.203,72.0078 454.32,72.0078 455.438,72.0078 456.551,72.0078 457.668,72.0078 458.785,72.0078 459.898,72.0078 461.016,72.0078 462.133,72.0078 463.246,72.0078 464.363,72.0078 465.48,72.0078 466.598,72.0078 467.711,72.0078 468.828,72.0078 469.945,72.0078 471.059,72.0078 472.176,72.0078 473.293,72.0078 474.406,72.0078 475.523,72.0078"/>
<polyline fill="none" stroke="#000000" stroke-width="0.5" stroke-dasharray="16,0" points="521.281,384.48 521.281,384.48"/>
<polyline fill="none" stroke="#000000" stroke-width="0.5" stroke-dasharray="16,0" points="74.8789,384.48 74.8789,384.48"/>
<polyline fill="none" stroke="#000000" stroke-width="0.5" stroke-dasharray="16,0" points="74.8789,32.3984 74.8789,32.3984"/>
<polyline fill="none" stroke="#000000" stroke-width="0.5" stroke-dasharray="16,0" points="521.281,32.3984 521.281,32.3984"/>
<text fill="#000000" x="298.08" y="22.4" font-size="10" text-anchor="middle" baseline-shift="0" font-family="Helvetica">Microwave Satrap (phase angle)</text>
<polyline fill="none" stroke="#000000" stroke-width="0.5" stroke-dasharray="16,0" points="521.281,384.48 521.281,32.3984"/>
<polyline fill="none" stroke="#000000" stroke-width="0.5" stroke-dasharray="16,0" points="74.8789,384.48 74.8789,32.3984 521.281,32.3984"/>
<polyline fill="none" stroke="#000000" stroke-width="0.5" stroke-dasharray="16,0" points="74.8789,384.48 521.281,384.48"/>
</g>
</svg>
