<?xml version="1.0" encoding="UTF-8" standalone="no"?>
<svg xmlns="http://www.w3.org/2000/svg"
     xmlns:xlink="http://www.w3.org/1999/xlink"
     width="576px" height="432px" viewBox="0 0 576 432">
<title>glps_renderer figure</title>
<desc>
Creator: GL2PS 1.3.5, (C) 1999-2009 C. Geuzaine
For: Octave
CreationDate: Tue Jan 31 15:38:39 2012
</desc>
<defs>
</defs>
<g shape-rendering="crispEdges">
<text fill="#000000" x="298.08" y="389.481" font-size="10" text-anchor="middle" baseline-shift="-10" font-family="Helvetica">200</text>
<text fill="#000000" x="409.68" y="389.481" font-size="10" text-anchor="middle" baseline-shift="-10" font-family="Helvetica">300</text>
<text fill="#000000" x="521.28" y="389.481" font-size="10" text-anchor="middle" baseline-shift="-10" font-family="Helvetica">400</text>
<text fill="#000000" x="69.8755" y="384.48" font-size="10" text-anchor="end" baseline-shift="-5" font-family="Helvetica">0</text>
<text fill="#000000" x="69.8755" y="314.064" font-size="10" text-anchor="end" baseline-shift="-5" font-family="Helvetica">5</text>
<text fill="#000000" x="69.8755" y="243.648" font-size="10" text-anchor="end" baseline-shift="-5" font-family="Helvetica">10</text>
<text fill="#000000" x="74.88" y="389.481" font-size="10" text-anchor="middle" baseline-shift="-10" font-family="Helvetica">0</text>
<text fill="#000000" x="186.48" y="389.481" font-size="10" text-anchor="middle" baseline-shift="-10" font-family="Helvetica">100</text>
<text fill="#000000" x="69.8755" y="173.232" font-size="10" text-anchor="end" baseline-shift="-5" font-family="Helvetica">15</text>
<text fill="#000000" x="69.8755" y="102.816" font-size="10" text-anchor="end" baseline-shift="-5" font-family="Helvetica">20</text>
<text fill="#000000" x="69.8755" y="32.4" font-size="10" text-anchor="end" baseline-shift="-5" font-family="Helvetica">25</text>
<text fill="#000000" x="298.08" y="402.481" font-size="10" text-anchor="middle" baseline-shift="-10" font-family="Helvetica">time (10 seconds per unit)</text>
<text fill="#000000" x="57.8755" y="208.44" font-size="10" transform="rotate(-90, 57.8755, 208.44)" text-anchor="middle" baseline-shift="0" font-family="Helvetica">watt (W)</text>
<polyline fill="none" stroke="#000000" stroke-width="0.5" stroke-dasharray="16,0" points="74.8789,32.3984 521.281,32.3984"/>
<polyline fill="none" stroke="#000000" stroke-width="0.5" stroke-dasharray="16,0" points="74.8789,384.48 74.8789,32.3984"/>
<polyline fill="none" stroke="#000000" stroke-width="0.5" stroke-dasharray="16,0" points="521.281,384.48 521.281,32.3984"/>
<polyline fill="none" stroke="#000000" stroke-width="0.5" stroke-dasharray="0,3,1,3,1,3,1,3,1,0" points="74.8789,384.48 74.8789,32.3984"/>
<polyline fill="none" stroke="#000000" stroke-width="0.5" stroke-dasharray="0,3,1,3,1,3,1,3,1,0" points="186.48,384.48 186.48,32.3984"/>
<polyline fill="none" stroke="#000000" stroke-width="0.5" stroke-dasharray="0,3,1,3,1,3,1,3,1,0" points="298.078,384.48 298.078,32.3984"/>
<polyline fill="none" stroke="#000000" stroke-width="0.5" stroke-dasharray="0,3,1,3,1,3,1,3,1,0" points="409.68,384.48 409.68,32.3984"/>
<polyline fill="none" stroke="#000000" stroke-width="0.5" stroke-dasharray="16,0" points="74.8789,384.48 521.281,384.48"/>
<polyline fill="none" stroke="#000000" stroke-width="0.5" stroke-dasharray="0,3,1,3,1,3,1,3,1,0" points="521.281,384.48 521.281,32.3984"/>
<polyline fill="none" stroke="#000000" stroke-width="0.5" stroke-dasharray="16,0" points="74.8789,384.48 74.8789,377.477"/>
<polyline fill="none" stroke="#000000" stroke-width="0.5" stroke-dasharray="16,0" points="74.8789,32.3984 74.8789,39.4023"/>
<polyline fill="none" stroke="#000000" stroke-width="0.5" stroke-dasharray="16,0" points="186.48,384.48 186.48,377.477"/>
<polyline fill="none" stroke="#000000" stroke-width="0.5" stroke-dasharray="16,0" points="186.48,32.3984 186.48,39.4023"/>
<polyline fill="none" stroke="#000000" stroke-width="0.5" stroke-dasharray="16,0" points="298.078,384.48 298.078,377.477"/>
<polyline fill="none" stroke="#000000" stroke-width="0.5" stroke-dasharray="16,0" points="298.078,32.3984 298.078,39.4023"/>
<polyline fill="none" stroke="#000000" stroke-width="0.5" stroke-dasharray="16,0" points="409.68,384.48 409.68,377.477"/>
<polyline fill="none" stroke="#000000" stroke-width="0.5" stroke-dasharray="16,0" points="409.68,32.3984 409.68,39.4023"/>
<polyline fill="none" stroke="#000000" stroke-width="0.5" stroke-dasharray="16,0" points="521.281,384.48 521.281,377.477"/>
<polyline fill="none" stroke="#000000" stroke-width="0.5" stroke-dasharray="16,0" points="521.281,32.3984 521.281,39.4023"/>
<polyline fill="none" stroke="#000000" stroke-width="0.5" stroke-dasharray="0,3,1,3,1,3,1,3,1,0" points="97.1992,384.48 97.1992,32.3984"/>
<polyline fill="none" stroke="#000000" stroke-width="0.5" stroke-dasharray="0,3,1,3,1,3,1,3,1,0" points="119.52,384.48 119.52,32.3984"/>
<polyline fill="none" stroke="#000000" stroke-width="0.5" stroke-dasharray="0,3,1,3,1,3,1,3,1,0" points="141.84,384.48 141.84,32.3984"/>
<polyline fill="none" stroke="#000000" stroke-width="0.5" stroke-dasharray="0,3,1,3,1,3,1,3,1,0" points="164.16,384.48 164.16,32.3984"/>
<polyline fill="none" stroke="#000000" stroke-width="0.5" stroke-dasharray="0,3,1,3,1,3,1,3,1,0" points="208.801,384.48 208.801,32.3984"/>
<polyline fill="none" stroke="#000000" stroke-width="0.5" stroke-dasharray="0,3,1,3,1,3,1,3,1,0" points="231.121,384.48 231.121,32.3984"/>
<polyline fill="none" stroke="#000000" stroke-width="0.5" stroke-dasharray="0,3,1,3,1,3,1,3,1,0" points="253.441,384.48 253.441,32.3984"/>
<polyline fill="none" stroke="#000000" stroke-width="0.5" stroke-dasharray="0,3,1,3,1,3,1,3,1,0" points="275.762,384.48 275.762,32.3984"/>
<polyline fill="none" stroke="#000000" stroke-width="0.5" stroke-dasharray="0,3,1,3,1,3,1,3,1,0" points="320.398,384.48 320.398,32.3984"/>
<polyline fill="none" stroke="#000000" stroke-width="0.5" stroke-dasharray="0,3,1,3,1,3,1,3,1,0" points="342.719,384.48 342.719,32.3984"/>
<polyline fill="none" stroke="#000000" stroke-width="0.5" stroke-dasharray="0,3,1,3,1,3,1,3,1,0" points="365.039,384.48 365.039,32.3984"/>
<polyline fill="none" stroke="#000000" stroke-width="0.5" stroke-dasharray="0,3,1,3,1,3,1,3,1,0" points="387.359,384.48 387.359,32.3984"/>
<polyline fill="none" stroke="#000000" stroke-width="0.5" stroke-dasharray="0,3,1,3,1,3,1,3,1,0" points="432,384.48 432,32.3984"/>
<polyline fill="none" stroke="#000000" stroke-width="0.5" stroke-dasharray="0,3,1,3,1,3,1,3,1,0" points="454.32,384.48 454.32,32.3984"/>
<polyline fill="none" stroke="#000000" stroke-width="0.5" stroke-dasharray="0,3,1,3,1,3,1,3,1,0" points="476.641,384.48 476.641,32.3984"/>
<polyline fill="none" stroke="#000000" stroke-width="0.5" stroke-dasharray="0,3,1,3,1,3,1,3,1,0" points="498.961,384.48 498.961,32.3984"/>
<polyline fill="none" stroke="#000000" stroke-width="0.5" stroke-dasharray="0,3,1,3,1,3,1,3,1,0" points="74.8789,384.48 521.281,384.48"/>
<polyline fill="none" stroke="#000000" stroke-width="0.5" stroke-dasharray="0,3,1,3,1,3,1,3,1,0" points="74.8789,314.062 521.281,314.062"/>
<polyline fill="none" stroke="#000000" stroke-width="0.5" stroke-dasharray="0,3,1,3,1,3,1,3,1,0" points="74.8789,243.648 521.281,243.648"/>
<polyline fill="none" stroke="#000000" stroke-width="0.5" stroke-dasharray="0,3,1,3,1,3,1,3,1,0" points="74.8789,173.23 521.281,173.23"/>
<polyline fill="none" stroke="#000000" stroke-width="0.5" stroke-dasharray="0,3,1,3,1,3,1,3,1,0" points="74.8789,102.816 521.281,102.816"/>
<polyline fill="none" stroke="#000000" stroke-width="0.5" stroke-dasharray="0,3,1,3,1,3,1,3,1,0" points="74.8789,32.3984 521.281,32.3984"/>
<polyline fill="none" stroke="#000000" stroke-width="0.5" stroke-dasharray="16,0" points="74.8789,384.48 81.8867,384.48"/>
<polyline fill="none" stroke="#000000" stroke-width="0.5" stroke-dasharray="16,0" points="521.281,384.48 514.273,384.48"/>
<polyline fill="none" stroke="#000000" stroke-width="0.5" stroke-dasharray="16,0" points="74.8789,314.062 81.8867,314.062"/>
<polyline fill="none" stroke="#000000" stroke-width="0.5" stroke-dasharray="16,0" points="521.281,314.062 514.273,314.062"/>
<polyline fill="none" stroke="#000000" stroke-width="0.5" stroke-dasharray="16,0" points="74.8789,243.648 81.8867,243.648"/>
<polyline fill="none" stroke="#000000" stroke-width="0.5" stroke-dasharray="16,0" points="521.281,243.648 514.273,243.648"/>
<polyline fill="none" stroke="#000000" stroke-width="0.5" stroke-dasharray="16,0" points="74.8789,173.23 81.8867,173.23"/>
<polyline fill="none" stroke="#000000" stroke-width="0.5" stroke-dasharray="16,0" points="521.281,173.23 514.273,173.23"/>
<polyline fill="none" stroke="#000000" stroke-width="0.5" stroke-dasharray="16,0" points="74.8789,102.816 81.8867,102.816"/>
<polyline fill="none" stroke="#000000" stroke-width="0.5" stroke-dasharray="16,0" points="521.281,102.816 514.273,102.816"/>
<polyline fill="none" stroke="#000000" stroke-width="0.5" stroke-dasharray="16,0" points="74.8789,32.3984 81.8867,32.3984"/>
<polyline fill="none" stroke="#000000" stroke-width="0.5" stroke-dasharray="16,0" points="521.281,32.3984 514.273,32.3984"/>
<polyline fill="none" stroke="#000000" stroke-width="0.5" stroke-dasharray="0,3,1,3,1,3,1,3,1,0" points="74.8789,370.398 521.281,370.398"/>
<polyline fill="none" stroke="#000000" stroke-width="0.5" stroke-dasharray="0,3,1,3,1,3,1,3,1,0" points="74.8789,356.312 521.281,356.312"/>
<polyline fill="none" stroke="#000000" stroke-width="0.5" stroke-dasharray="0,3,1,3,1,3,1,3,1,0" points="74.8789,342.23 521.281,342.23"/>
<polyline fill="none" stroke="#000000" stroke-width="0.5" stroke-dasharray="0,3,1,3,1,3,1,3,1,0" points="74.8789,328.148 521.281,328.148"/>
<polyline fill="none" stroke="#000000" stroke-width="0.5" stroke-dasharray="0,3,1,3,1,3,1,3,1,0" points="74.8789,299.98 521.281,299.98"/>
<polyline fill="none" stroke="#000000" stroke-width="0.5" stroke-dasharray="0,3,1,3,1,3,1,3,1,0" points="74.8789,285.898 521.281,285.898"/>
<polyline fill="none" stroke="#000000" stroke-width="0.5" stroke-dasharray="0,3,1,3,1,3,1,3,1,0" points="74.8789,271.812 521.281,271.812"/>
<polyline fill="none" stroke="#000000" stroke-width="0.5" stroke-dasharray="0,3,1,3,1,3,1,3,1,0" points="74.8789,257.73 521.281,257.73"/>
<polyline fill="none" stroke="#000000" stroke-width="0.5" stroke-dasharray="0,3,1,3,1,3,1,3,1,0" points="74.8789,229.566 521.281,229.566"/>
<polyline fill="none" stroke="#000000" stroke-width="0.5" stroke-dasharray="0,3,1,3,1,3,1,3,1,0" points="74.8789,215.48 521.281,215.48"/>
<polyline fill="none" stroke="#000000" stroke-width="0.5" stroke-dasharray="0,3,1,3,1,3,1,3,1,0" points="74.8789,201.398 521.281,201.398"/>
<polyline fill="none" stroke="#000000" stroke-width="0.5" stroke-dasharray="0,3,1,3,1,3,1,3,1,0" points="74.8789,187.316 521.281,187.316"/>
<polyline fill="none" stroke="#000000" stroke-width="0.5" stroke-dasharray="0,3,1,3,1,3,1,3,1,0" points="74.8789,159.148 521.281,159.148"/>
<polyline fill="none" stroke="#000000" stroke-width="0.5" stroke-dasharray="0,3,1,3,1,3,1,3,1,0" points="74.8789,145.066 521.281,145.066"/>
<polyline fill="none" stroke="#000000" stroke-width="0.5" stroke-dasharray="0,3,1,3,1,3,1,3,1,0" points="74.8789,130.984 521.281,130.984"/>
<polyline fill="none" stroke="#000000" stroke-width="0.5" stroke-dasharray="0,3,1,3,1,3,1,3,1,0" points="74.8789,116.898 521.281,116.898"/>
<polyline fill="none" stroke="#000000" stroke-width="0.5" stroke-dasharray="0,3,1,3,1,3,1,3,1,0" points="74.8789,88.7344 521.281,88.7344"/>
<polyline fill="none" stroke="#000000" stroke-width="0.5" stroke-dasharray="0,3,1,3,1,3,1,3,1,0" points="74.8789,74.6484 521.281,74.6484"/>
<polyline fill="none" stroke="#000000" stroke-width="0.5" stroke-dasharray="0,3,1,3,1,3,1,3,1,0" points="74.8789,60.5664 521.281,60.5664"/>
<polyline fill="none" stroke="#000000" stroke-width="0.5" stroke-dasharray="0,3,1,3,1,3,1,3,1,0" points="74.8789,46.4844 521.281,46.4844"/>
<polyline fill="none" stroke="#ff0000" stroke-width="1.5" points="75.9961,384.48 77.1133,384.48 78.2266,384.48 79.3438,384.48 80.4609,384.48 81.5742,384.48 82.6914,384.48 83.8086,384.48 84.9258,132.375 86.0391,130.91 87.1562,126.504 88.2734,123.574 89.3867,122.109 90.5039,122.109 91.6211,122.109 92.7344,120.645 93.8516,117.715 94.9688,114.785 96.0859,113.32 97.1992,110.395 98.3164,108.93 99.4336,105.984 100.547,103.055 101.664,101.59 102.781,98.6602 103.895,97.1953 105.012,95.7305 106.129,94.2656 107.242,92.8047 108.359,91.3398 109.477,91.3398 110.594,89.8594 111.707,91.3398 112.824,91.3398 113.941,89.8594 115.055,88.3945 116.172,89.8594 117.289,88.3945 118.402,88.3945 119.52,89.8594 120.637,89.8594 121.754,89.8594 122.867,89.8594 123.984,89.8594 125.102,89.8594 126.215,91.3398 127.332,91.3398 128.449,91.3398 129.562,92.8047 130.68,95.7305 131.797,95.7305 132.91,97.1953 134.027,94.2656 135.145,92.8047 136.262,92.8047 137.375,92.8047 138.492,92.8047 139.609,94.2656 140.723,94.2656 141.84,95.7305 142.957,95.7305 144.07,95.7305 145.188,97.1953 146.305,97.1953 147.422,95.7305 148.535,97.1953 149.652,98.6602 150.77,98.6602 151.883,100.125 153,97.1953 154.117,98.6602 155.23,97.1953 156.348,97.1953 157.465,95.7305 158.578,94.2656 159.695,94.2656 160.812,94.2656 161.93,94.2656 163.043,94.2656 164.16,95.7305 165.277,95.7305 166.391,95.7305 167.508,97.1953 168.625,97.1953 169.738,97.1953 170.855,97.1953 171.973,97.1953 173.09,97.1953 174.203,95.7305 175.32,95.7305 176.438,95.7305 177.551,95.7305 178.668,95.7305 179.785,97.1953 180.898,97.1953 182.016,97.1953 183.133,97.1953 184.246,97.1953 185.363,98.6602 186.48,100.125 187.598,100.125 188.711,100.125 189.828,100.125 190.945,100.125 192.059,98.6602 193.176,98.6602 194.293,98.6602 195.406,101.59 196.523,101.59 197.641,101.59 198.758,101.59 199.871,101.59 200.988,101.59 202.105,101.59 203.219,101.59 204.336,101.59 205.453,101.59 206.566,103.055 207.684,101.59 208.801,101.59 209.914,101.59 211.031,101.59 212.148,101.59 213.266,101.59 214.379,101.59 215.496,101.59 216.613,103.055 217.727,101.59 218.844,103.055 219.961,103.055 221.074,103.055 222.191,103.055 223.309,103.055 224.426,103.055 225.539,103.055 226.656,103.055 227.773,103.055 228.887,103.055 230.004,103.055 231.121,103.055 232.234,103.055 233.352,103.055 234.469,103.055 235.586,103.055 236.699,103.055 237.816,103.055 238.934,101.59 240.047,103.055 241.164,103.055 242.281,101.59 243.395,103.055 244.512,101.59 245.629,103.055 246.742,103.055 247.859,103.055 248.977,103.055 250.094,103.055 251.207,101.59 252.324,101.59 253.441,101.59 254.555,101.59 255.672,101.59 256.789,103.055 257.902,101.59 259.02,101.59 260.137,101.59 261.254,101.59 262.367,101.59 263.484,101.59 264.602,101.59 265.715,101.59 266.832,101.59 267.949,100.125 269.062,101.59 270.18,101.59 271.297,101.59 272.41,101.59 273.527,101.59 274.645,101.59 275.762,100.125 276.875,101.59 277.992,100.125 279.109,100.125 280.223,100.125 281.34,100.125 282.457,100.125 283.57,100.125 284.688,98.6602 285.805,100.125 286.922,98.6602 288.035,98.6602 289.152,100.125 290.27,98.6602 291.383,100.125 292.5,98.6602 293.617,98.6602 294.73,97.1953 295.848,97.1953 296.965,97.1953 298.078,97.1953 299.195,97.1953 300.312,98.6602 301.43,97.1953 302.543,98.6602 303.66,98.6602 304.777,98.6602 305.891,97.1953 307.008,97.1953 308.125,97.1953 309.238,97.1953 310.355,97.1953 311.473,97.1953 312.59,97.1953 313.703,97.1953 314.82,97.1953 315.938,97.1953 317.051,97.1953 318.168,97.1953 319.285,97.1953 320.398,97.1953 321.516,97.1953 322.633,97.1953 323.746,97.1953 324.863,97.1953 325.98,97.1953 327.098,97.1953 328.211,95.7305 329.328,97.1953 330.445,95.7305 331.559,97.1953 332.676,95.7305 333.793,95.7305 334.906,95.7305 336.023,97.1953 337.141,97.1953 338.258,97.1953 339.371,97.1953 340.488,97.1953 341.605,97.1953 342.719,97.1953 343.836,97.1953 344.953,97.1953 346.066,97.1953 347.184,97.1953 348.301,97.1953 349.414,97.1953 350.531,97.1953 351.648,97.1953 352.766,97.1953 353.879,97.1953 354.996,95.7305 356.113,95.7305 357.227,95.7305 358.344,95.7305 359.461,95.7305 360.574,95.7305 361.691,97.1953 362.809,97.1953 363.926,97.1953 365.039,97.1953 366.156,97.1953 367.273,97.1953 368.387,95.7305 369.504,95.7305 370.621,97.1953 371.734,97.1953 372.852,97.1953 373.969,97.1953 375.082,97.1953 376.199,97.1953 377.316,97.1953 378.434,97.1953 379.547,97.1953 380.664,97.1953 381.781,97.1953 382.895,97.1953 384.012,97.1953 385.129,97.1953 386.242,97.1953 387.359,97.1953 388.477,97.1953 389.594,97.1953 390.707,95.7305 391.824,97.1953 392.941,97.1953 394.055,97.1953 395.172,97.1953 396.289,97.1953 397.402,97.1953 398.52,95.7305 399.637,95.7305 400.75,97.1953 401.867,97.1953 402.984,97.1953 404.102,95.7305 405.215,97.1953 406.332,95.7305 407.449,97.1953 408.562,95.7305 409.68,97.1953 410.797,97.1953 411.91,97.1953 413.027,97.1953 414.145,97.1953 415.262,97.1953 416.375,98.6602 417.492,98.6602 418.609,98.6602 419.723,98.6602 420.84,98.6602 421.957,97.1953 423.07,98.6602 424.188,98.6602 425.305,98.6602 426.422,98.6602 427.535,98.6602 428.652,98.6602 429.77,97.1953 430.883,98.6602 432,98.6602 433.117,98.6602 434.23,98.6602 435.348,98.6602 436.465,98.6602 437.578,97.1953 438.695,97.1953 439.812,97.1953 440.93,100.125 442.043,98.6602 443.16,97.1953 444.277,98.6602 445.391,98.6602 446.508,100.125 447.625,98.6602 448.738,98.6602 449.855,98.6602 450.973,98.6602 452.09,98.6602 453.203,98.6602 454.32,98.6602 455.438,98.6602 456.551,98.6602 457.668,98.6602 458.785,97.1953 459.898,98.6602 461.016,97.1953 462.133,98.6602 463.246,98.6602 464.363,97.1953 465.48,97.1953 466.598,97.1953 467.711,97.1953 468.828,97.1953 469.945,97.1953 471.059,97.1953 472.176,97.1953 473.293,97.1953 474.406,97.1953 475.523,97.1953"/>
<polyline fill="none" stroke="#000000" stroke-width="0.5" stroke-dasharray="16,0" points="521.281,384.48 521.281,384.48"/>
<polyline fill="none" stroke="#000000" stroke-width="0.5" stroke-dasharray="16,0" points="74.8789,384.48 74.8789,384.48"/>
<polyline fill="none" stroke="#000000" stroke-width="0.5" stroke-dasharray="16,0" points="74.8789,32.3984 74.8789,32.3984"/>
<polyline fill="none" stroke="#000000" stroke-width="0.5" stroke-dasharray="16,0" points="521.281,32.3984 521.281,32.3984"/>
<text fill="#000000" x="298.08" y="22.4" font-size="10" text-anchor="middle" baseline-shift="0" font-family="Helvetica">Lamp Ikea 20W (power)</text>
<polyline fill="none" stroke="#000000" stroke-width="0.5" stroke-dasharray="16,0" points="521.281,384.48 521.281,32.3984"/>
<polyline fill="none" stroke="#000000" stroke-width="0.5" stroke-dasharray="16,0" points="74.8789,384.48 74.8789,32.3984 521.281,32.3984"/>
<polyline fill="none" stroke="#000000" stroke-width="0.5" stroke-dasharray="16,0" points="74.8789,384.48 521.281,384.48"/>
</g>
</svg>
