<?xml version="1.0" encoding="UTF-8" standalone="no"?>
<svg xmlns="http://www.w3.org/2000/svg"
     xmlns:xlink="http://www.w3.org/1999/xlink"
     width="576px" height="432px" viewBox="0 0 576 432">
<title>glps_renderer figure</title>
<desc>
Creator: GL2PS 1.3.5, (C) 1999-2009 C. Geuzaine
For: Octave
CreationDate: Tue Jan 31 15:38:40 2012
</desc>
<defs>
</defs>
<g shape-rendering="crispEdges">
<text fill="#000000" x="298.08" y="389.482" font-size="10" text-anchor="middle" baseline-shift="-10" font-family="Helvetica">200</text>
<text fill="#000000" x="409.68" y="389.482" font-size="10" text-anchor="middle" baseline-shift="-10" font-family="Helvetica">300</text>
<text fill="#000000" x="521.28" y="389.482" font-size="10" text-anchor="middle" baseline-shift="-10" font-family="Helvetica">400</text>
<text fill="#000000" x="69.8755" y="384.48" font-size="10" text-anchor="end" baseline-shift="-5" font-family="Helvetica">223.5</text>
<text fill="#000000" x="69.8755" y="325.798" font-size="10" text-anchor="end" baseline-shift="-5" font-family="Helvetica">224</text>
<text fill="#000000" x="69.8755" y="267.119" font-size="10" text-anchor="end" baseline-shift="-5" font-family="Helvetica">224.5</text>
<text fill="#000000" x="74.88" y="389.482" font-size="10" text-anchor="middle" baseline-shift="-10" font-family="Helvetica">0</text>
<text fill="#000000" x="186.48" y="389.482" font-size="10" text-anchor="middle" baseline-shift="-10" font-family="Helvetica">100</text>
<text fill="#000000" x="69.8755" y="208.44" font-size="10" text-anchor="end" baseline-shift="-5" font-family="Helvetica">225</text>
<text fill="#000000" x="69.8755" y="149.758" font-size="10" text-anchor="end" baseline-shift="-5" font-family="Helvetica">225.5</text>
<text fill="#000000" x="69.8755" y="91.0791" font-size="10" text-anchor="end" baseline-shift="-5" font-family="Helvetica">226</text>
<text fill="#000000" x="69.8755" y="32.4" font-size="10" text-anchor="end" baseline-shift="-5" font-family="Helvetica">226.5</text>
<text fill="#000000" x="298.08" y="402.48" font-size="10" text-anchor="middle" baseline-shift="-10" font-family="Helvetica">time (10 seconds per unit)</text>
<text fill="#000000" x="42.8755" y="208.44" font-size="10" transform="rotate(-90, 42.8755, 208.44)" text-anchor="middle" baseline-shift="0" font-family="Helvetica">volt (V)</text>
<polyline fill="none" stroke="#000000" stroke-width="0.5" stroke-dasharray="16,0" points="74.8789,32.3984 521.281,32.3984"/>
<polyline fill="none" stroke="#000000" stroke-width="0.5" stroke-dasharray="16,0" points="74.8789,384.477 74.8789,32.3984"/>
<polyline fill="none" stroke="#000000" stroke-width="0.5" stroke-dasharray="16,0" points="521.281,384.477 521.281,32.3984"/>
<polyline fill="none" stroke="#000000" stroke-width="0.5" stroke-dasharray="0,3,1,3,1,3,1,3,1,0" points="74.8789,384.477 74.8789,32.3984"/>
<polyline fill="none" stroke="#000000" stroke-width="0.5" stroke-dasharray="0,3,1,3,1,3,1,3,1,0" points="186.48,384.477 186.48,32.3984"/>
<polyline fill="none" stroke="#000000" stroke-width="0.5" stroke-dasharray="0,3,1,3,1,3,1,3,1,0" points="298.078,384.477 298.078,32.3984"/>
<polyline fill="none" stroke="#000000" stroke-width="0.5" stroke-dasharray="0,3,1,3,1,3,1,3,1,0" points="409.68,384.477 409.68,32.3984"/>
<polyline fill="none" stroke="#000000" stroke-width="0.5" stroke-dasharray="16,0" points="74.8789,384.477 521.281,384.477"/>
<polyline fill="none" stroke="#000000" stroke-width="0.5" stroke-dasharray="0,3,1,3,1,3,1,3,1,0" points="521.281,384.477 521.281,32.3984"/>
<polyline fill="none" stroke="#000000" stroke-width="0.5" stroke-dasharray="16,0" points="74.8789,384.477 74.8789,377.477"/>
<polyline fill="none" stroke="#000000" stroke-width="0.5" stroke-dasharray="16,0" points="74.8789,32.3984 74.8789,39.4023"/>
<polyline fill="none" stroke="#000000" stroke-width="0.5" stroke-dasharray="16,0" points="186.48,384.477 186.48,377.477"/>
<polyline fill="none" stroke="#000000" stroke-width="0.5" stroke-dasharray="16,0" points="186.48,32.3984 186.48,39.4023"/>
<polyline fill="none" stroke="#000000" stroke-width="0.5" stroke-dasharray="16,0" points="298.078,384.477 298.078,377.477"/>
<polyline fill="none" stroke="#000000" stroke-width="0.5" stroke-dasharray="16,0" points="298.078,32.3984 298.078,39.4023"/>
<polyline fill="none" stroke="#000000" stroke-width="0.5" stroke-dasharray="16,0" points="409.68,384.477 409.68,377.477"/>
<polyline fill="none" stroke="#000000" stroke-width="0.5" stroke-dasharray="16,0" points="409.68,32.3984 409.68,39.4023"/>
<polyline fill="none" stroke="#000000" stroke-width="0.5" stroke-dasharray="16,0" points="521.281,384.477 521.281,377.477"/>
<polyline fill="none" stroke="#000000" stroke-width="0.5" stroke-dasharray="16,0" points="521.281,32.3984 521.281,39.4023"/>
<polyline fill="none" stroke="#000000" stroke-width="0.5" stroke-dasharray="0,3,1,3,1,3,1,3,1,0" points="97.1992,384.477 97.1992,32.3984"/>
<polyline fill="none" stroke="#000000" stroke-width="0.5" stroke-dasharray="0,3,1,3,1,3,1,3,1,0" points="119.52,384.477 119.52,32.3984"/>
<polyline fill="none" stroke="#000000" stroke-width="0.5" stroke-dasharray="0,3,1,3,1,3,1,3,1,0" points="141.84,384.477 141.84,32.3984"/>
<polyline fill="none" stroke="#000000" stroke-width="0.5" stroke-dasharray="0,3,1,3,1,3,1,3,1,0" points="164.16,384.477 164.16,32.3984"/>
<polyline fill="none" stroke="#000000" stroke-width="0.5" stroke-dasharray="0,3,1,3,1,3,1,3,1,0" points="208.801,384.477 208.801,32.3984"/>
<polyline fill="none" stroke="#000000" stroke-width="0.5" stroke-dasharray="0,3,1,3,1,3,1,3,1,0" points="231.121,384.477 231.121,32.3984"/>
<polyline fill="none" stroke="#000000" stroke-width="0.5" stroke-dasharray="0,3,1,3,1,3,1,3,1,0" points="253.441,384.477 253.441,32.3984"/>
<polyline fill="none" stroke="#000000" stroke-width="0.5" stroke-dasharray="0,3,1,3,1,3,1,3,1,0" points="275.762,384.477 275.762,32.3984"/>
<polyline fill="none" stroke="#000000" stroke-width="0.5" stroke-dasharray="0,3,1,3,1,3,1,3,1,0" points="320.398,384.477 320.398,32.3984"/>
<polyline fill="none" stroke="#000000" stroke-width="0.5" stroke-dasharray="0,3,1,3,1,3,1,3,1,0" points="342.719,384.477 342.719,32.3984"/>
<polyline fill="none" stroke="#000000" stroke-width="0.5" stroke-dasharray="0,3,1,3,1,3,1,3,1,0" points="365.039,384.477 365.039,32.3984"/>
<polyline fill="none" stroke="#000000" stroke-width="0.5" stroke-dasharray="0,3,1,3,1,3,1,3,1,0" points="387.359,384.477 387.359,32.3984"/>
<polyline fill="none" stroke="#000000" stroke-width="0.5" stroke-dasharray="0,3,1,3,1,3,1,3,1,0" points="432,384.477 432,32.3984"/>
<polyline fill="none" stroke="#000000" stroke-width="0.5" stroke-dasharray="0,3,1,3,1,3,1,3,1,0" points="454.32,384.477 454.32,32.3984"/>
<polyline fill="none" stroke="#000000" stroke-width="0.5" stroke-dasharray="0,3,1,3,1,3,1,3,1,0" points="476.641,384.477 476.641,32.3984"/>
<polyline fill="none" stroke="#000000" stroke-width="0.5" stroke-dasharray="0,3,1,3,1,3,1,3,1,0" points="498.961,384.477 498.961,32.3984"/>
<polyline fill="none" stroke="#000000" stroke-width="0.5" stroke-dasharray="0,3,1,3,1,3,1,3,1,0" points="74.8789,384.477 521.281,384.477"/>
<polyline fill="none" stroke="#000000" stroke-width="0.5" stroke-dasharray="0,3,1,3,1,3,1,3,1,0" points="74.8789,325.797 521.281,325.797"/>
<polyline fill="none" stroke="#000000" stroke-width="0.5" stroke-dasharray="0,3,1,3,1,3,1,3,1,0" points="74.8789,267.117 521.281,267.117"/>
<polyline fill="none" stroke="#000000" stroke-width="0.5" stroke-dasharray="0,3,1,3,1,3,1,3,1,0" points="74.8789,208.438 521.281,208.438"/>
<polyline fill="none" stroke="#000000" stroke-width="0.5" stroke-dasharray="0,3,1,3,1,3,1,3,1,0" points="74.8789,149.758 521.281,149.758"/>
<polyline fill="none" stroke="#000000" stroke-width="0.5" stroke-dasharray="0,3,1,3,1,3,1,3,1,0" points="74.8789,91.0781 521.281,91.0781"/>
<polyline fill="none" stroke="#000000" stroke-width="0.5" stroke-dasharray="0,3,1,3,1,3,1,3,1,0" points="74.8789,32.3984 521.281,32.3984"/>
<polyline fill="none" stroke="#000000" stroke-width="0.5" stroke-dasharray="16,0" points="74.8789,384.477 81.8867,384.477"/>
<polyline fill="none" stroke="#000000" stroke-width="0.5" stroke-dasharray="16,0" points="521.281,384.477 514.273,384.477"/>
<polyline fill="none" stroke="#000000" stroke-width="0.5" stroke-dasharray="16,0" points="74.8789,325.797 81.8867,325.797"/>
<polyline fill="none" stroke="#000000" stroke-width="0.5" stroke-dasharray="16,0" points="521.281,325.797 514.273,325.797"/>
<polyline fill="none" stroke="#000000" stroke-width="0.5" stroke-dasharray="16,0" points="74.8789,267.117 81.8867,267.117"/>
<polyline fill="none" stroke="#000000" stroke-width="0.5" stroke-dasharray="16,0" points="521.281,267.117 514.273,267.117"/>
<polyline fill="none" stroke="#000000" stroke-width="0.5" stroke-dasharray="16,0" points="74.8789,208.438 81.8867,208.438"/>
<polyline fill="none" stroke="#000000" stroke-width="0.5" stroke-dasharray="16,0" points="521.281,208.438 514.273,208.438"/>
<polyline fill="none" stroke="#000000" stroke-width="0.5" stroke-dasharray="16,0" points="74.8789,149.758 81.8867,149.758"/>
<polyline fill="none" stroke="#000000" stroke-width="0.5" stroke-dasharray="16,0" points="521.281,149.758 514.273,149.758"/>
<polyline fill="none" stroke="#000000" stroke-width="0.5" stroke-dasharray="16,0" points="74.8789,91.0781 81.8867,91.0781"/>
<polyline fill="none" stroke="#000000" stroke-width="0.5" stroke-dasharray="16,0" points="521.281,91.0781 514.273,91.0781"/>
<polyline fill="none" stroke="#000000" stroke-width="0.5" stroke-dasharray="16,0" points="74.8789,32.3984 81.8867,32.3984"/>
<polyline fill="none" stroke="#000000" stroke-width="0.5" stroke-dasharray="16,0" points="521.281,32.3984 514.273,32.3984"/>
<polyline fill="none" stroke="#000000" stroke-width="0.5" stroke-dasharray="0,3,1,3,1,3,1,3,1,0" points="74.8789,372.742 521.281,372.742"/>
<polyline fill="none" stroke="#000000" stroke-width="0.5" stroke-dasharray="0,3,1,3,1,3,1,3,1,0" points="74.8789,361.008 521.281,361.008"/>
<polyline fill="none" stroke="#000000" stroke-width="0.5" stroke-dasharray="0,3,1,3,1,3,1,3,1,0" points="74.8789,349.27 521.281,349.27"/>
<polyline fill="none" stroke="#000000" stroke-width="0.5" stroke-dasharray="0,3,1,3,1,3,1,3,1,0" points="74.8789,337.535 521.281,337.535"/>
<polyline fill="none" stroke="#000000" stroke-width="0.5" stroke-dasharray="0,3,1,3,1,3,1,3,1,0" points="74.8789,314.062 521.281,314.062"/>
<polyline fill="none" stroke="#000000" stroke-width="0.5" stroke-dasharray="0,3,1,3,1,3,1,3,1,0" points="74.8789,302.324 521.281,302.324"/>
<polyline fill="none" stroke="#000000" stroke-width="0.5" stroke-dasharray="0,3,1,3,1,3,1,3,1,0" points="74.8789,290.59 521.281,290.59"/>
<polyline fill="none" stroke="#000000" stroke-width="0.5" stroke-dasharray="0,3,1,3,1,3,1,3,1,0" points="74.8789,278.855 521.281,278.855"/>
<polyline fill="none" stroke="#000000" stroke-width="0.5" stroke-dasharray="0,3,1,3,1,3,1,3,1,0" points="74.8789,255.383 521.281,255.383"/>
<polyline fill="none" stroke="#000000" stroke-width="0.5" stroke-dasharray="0,3,1,3,1,3,1,3,1,0" points="74.8789,243.645 521.281,243.645"/>
<polyline fill="none" stroke="#000000" stroke-width="0.5" stroke-dasharray="0,3,1,3,1,3,1,3,1,0" points="74.8789,231.91 521.281,231.91"/>
<polyline fill="none" stroke="#000000" stroke-width="0.5" stroke-dasharray="0,3,1,3,1,3,1,3,1,0" points="74.8789,220.176 521.281,220.176"/>
<polyline fill="none" stroke="#000000" stroke-width="0.5" stroke-dasharray="0,3,1,3,1,3,1,3,1,0" points="74.8789,196.699 521.281,196.699"/>
<polyline fill="none" stroke="#000000" stroke-width="0.5" stroke-dasharray="0,3,1,3,1,3,1,3,1,0" points="74.8789,184.969 521.281,184.969"/>
<polyline fill="none" stroke="#000000" stroke-width="0.5" stroke-dasharray="0,3,1,3,1,3,1,3,1,0" points="74.8789,173.23 521.281,173.23"/>
<polyline fill="none" stroke="#000000" stroke-width="0.5" stroke-dasharray="0,3,1,3,1,3,1,3,1,0" points="74.8789,161.496 521.281,161.496"/>
<polyline fill="none" stroke="#000000" stroke-width="0.5" stroke-dasharray="0,3,1,3,1,3,1,3,1,0" points="74.8789,138.023 521.281,138.023"/>
<polyline fill="none" stroke="#000000" stroke-width="0.5" stroke-dasharray="0,3,1,3,1,3,1,3,1,0" points="74.8789,126.289 521.281,126.289"/>
<polyline fill="none" stroke="#000000" stroke-width="0.5" stroke-dasharray="0,3,1,3,1,3,1,3,1,0" points="74.8789,114.551 521.281,114.551"/>
<polyline fill="none" stroke="#000000" stroke-width="0.5" stroke-dasharray="0,3,1,3,1,3,1,3,1,0" points="74.8789,102.816 521.281,102.816"/>
<polyline fill="none" stroke="#000000" stroke-width="0.5" stroke-dasharray="0,3,1,3,1,3,1,3,1,0" points="74.8789,79.3438 521.281,79.3438"/>
<polyline fill="none" stroke="#000000" stroke-width="0.5" stroke-dasharray="0,3,1,3,1,3,1,3,1,0" points="74.8789,67.6055 521.281,67.6055"/>
<polyline fill="none" stroke="#000000" stroke-width="0.5" stroke-dasharray="0,3,1,3,1,3,1,3,1,0" points="74.8789,55.8711 521.281,55.8711"/>
<polyline fill="none" stroke="#000000" stroke-width="0.5" stroke-dasharray="0,3,1,3,1,3,1,3,1,0" points="74.8789,44.1367 521.281,44.1367"/>
<polyline fill="none" stroke="#ff0000" stroke-width="1.5" points="75.9961,206.562 77.1133,197.992 78.2266,177.926 79.3438,217.707 80.4609,214.543 81.5742,222.285 82.6914,177.102 83.8086,176.633 84.9258,188.254 86.0391,213.367 87.1562,179.566 88.2734,280.73 89.3867,253.27 90.5039,268.645 91.6211,225.336 92.7344,240.711 93.8516,111.266 94.9688,83.332 96.0859,104.457 97.1992,82.043 98.3164,108.801 99.4336,118.07 100.547,138.844 101.664,121.004 102.781,118.305 103.895,112.32 105.012,144.477 106.129,109.504 107.242,105.867 108.359,93.3086 109.477,112.672 110.594,103.988 111.707,220.996 112.824,249.043 113.941,208.203 115.055,143.305 116.172,157.387 117.289,139.078 118.402,152.691 119.52,174.992 120.637,131.449 121.754,138.727 122.867,122.766 123.984,123.234 125.102,130.277 126.215,143.07 127.332,100.938 128.449,95.3008 129.562,57.3945 130.68,205.738 131.797,205.27 132.91,253.855 134.027,117.25 135.145,116.664 136.262,103.988 137.375,134.621 138.492,149.641 139.609,173.113 140.723,216.301 141.84,230.973 142.957,197.055 144.07,212.664 145.188,233.32 146.305,219.117 147.422,162.434 148.535,191.188 149.652,297.984 150.77,333.309 151.883,346.102 153,181.562 154.117,203.273 155.23,178.043 156.348,166.188 157.465,176.633 158.578,107.039 159.695,114.785 160.812,101.523 161.93,128.398 163.043,117.836 164.16,165.484 165.277,138.961 166.391,160.203 167.508,308.781 168.625,291.527 169.738,265.711 170.855,249.633 171.973,194.473 173.09,250.102 174.203,115.371 175.32,123.117 176.438,114.199 177.551,106.336 178.668,107.156 179.785,116.664 180.898,114.785 182.016,84.1523 183.133,125.23 184.246,114.199 185.363,111.969 186.48,247.871 187.598,245.523 188.711,290.59 189.828,245.996 190.945,204.449 192.059,151.637 193.176,132.391 194.293,138.023 195.406,278.148 196.523,271.695 197.641,284.371 198.758,249.984 199.871,296.223 200.988,296.34 202.105,313.711 203.219,272.164 204.336,283.785 205.453,284.84 206.566,375.793 207.684,219 208.801,193.301 209.914,222.168 211.031,204.332 212.148,182.738 213.266,180.27 214.379,185.789 215.496,175.227 216.613,210.199 217.727,172.645 218.844,231.676 219.961,226.277 221.074,227.566 222.191,205.27 223.309,275.215 224.426,267.586 225.539,237.309 226.656,252.918 227.773,248.695 228.887,259.02 230.004,259.254 231.121,261.25 232.234,259.137 233.352,218.062 234.469,271.461 235.586,230.387 236.699,235.312 237.816,248.695 238.934,232.969 240.047,259.844 241.164,265.238 242.281,250.453 243.395,263.48 244.512,258.551 245.629,293.762 246.742,326.973 247.859,301.973 248.977,326.387 250.094,310.426 251.207,294.465 252.324,267.586 253.441,288.594 254.555,273.102 255.672,254.211 256.789,295.871 257.902,285.895 259.02,262.66 260.137,287.422 261.254,279.559 262.367,286.836 263.484,257.73 264.602,293.641 265.715,292.82 266.832,293.641 267.949,199.637 269.062,287.422 270.18,326.621 271.297,298.102 272.41,306.082 273.527,300.918 274.645,305.258 275.762,294.816 276.875,294.699 277.992,301.973 279.109,275.57 280.223,252.566 281.34,242.824 282.457,264.535 283.57,250.102 284.688,207.5 285.805,221.23 286.922,198.934 288.035,209.145 289.152,257.73 290.27,255.383 291.383,246.465 292.5,230.387 293.617,210.551 294.73,167.598 295.848,177.453 296.965,135.441 298.078,164.309 299.195,133.094 300.312,190.836 301.43,156.094 302.543,174.168 303.66,169.477 304.777,192.359 305.891,136.145 307.008,147.176 308.125,166.188 309.238,186.844 310.355,164.547 311.473,165.25 312.59,193.535 313.703,194.59 314.82,173.113 315.938,169.594 317.051,181.68 318.168,203.156 319.285,162.902 320.398,136.613 321.516,141.309 322.633,153.867 323.746,144.008 324.863,141.66 325.98,145.062 327.098,131.805 328.211,119.48 329.328,132.742 330.445,121.004 331.559,126.051 332.676,134.621 333.793,114.434 334.906,119.129 336.023,154.57 337.141,164.781 338.258,193.414 339.371,190.719 340.488,176.164 341.605,181.328 342.719,192.242 343.836,170.531 344.953,177.691 346.066,160.906 347.184,179.332 348.301,169.238 349.414,172.172 350.531,185.082 351.648,201.75 352.766,169.941 353.879,197.406 354.996,149.289 356.113,131.449 357.227,125.934 358.344,131.098 359.461,146.941 360.574,132.625 361.691,147.879 362.809,170.297 363.926,184.73 365.039,173.465 366.156,183.324 367.273,200.809 368.387,152.34 369.504,159.969 370.621,194.824 371.734,190.602 372.852,175.227 373.969,179.688 375.082,163.961 376.199,151.52 377.316,160.203 378.434,189.074 379.547,198.344 380.664,194.473 381.781,178.277 382.895,224.984 384.012,180.391 385.129,182.621 386.242,201.75 387.359,197.758 388.477,196.234 389.594,193.535 390.707,143.656 391.824,150.695 392.941,160.789 394.055,183.441 395.172,177.453 396.289,165.953 397.402,184.73 398.52,134.266 399.637,138.023 400.75,147.176 401.867,150.578 402.984,169.004 404.102,167.125 405.215,157.621 406.332,159.5 407.449,172.762 408.562,163.605 409.68,175.227 410.797,204.566 411.91,198.816 413.027,196.352 414.145,206.445 415.262,174.051 416.375,259.609 417.492,263.363 418.609,268.762 419.723,284.84 420.84,255.5 421.957,250.688 423.07,304.438 424.188,265.359 425.305,250.805 426.422,273.336 427.535,288.477 428.652,262.07 429.77,266.883 430.883,258.551 432,285.543 433.117,258.199 434.23,294.699 435.348,281.434 436.465,268.41 437.578,263.598 438.695,256.32 439.812,256.438 440.93,346.219 442.043,280.027 443.16,259.488 444.277,294.934 445.391,329.32 446.508,330.492 447.625,313.945 448.738,334.484 449.855,322.277 450.973,293.172 452.09,289.062 453.203,286.836 454.32,323.336 455.438,308.312 456.551,292.469 457.668,295.402 458.785,265.125 459.898,286.246 461.016,273.691 462.133,260.781 463.246,270.168 464.363,244.117 465.48,255.383 466.598,227.801 467.711,222.992 468.828,227.566 469.945,258.785 471.059,218.414 472.176,217.941 473.293,258.082 474.406,236.957 475.523,233.086"/>
<polyline fill="none" stroke="#000000" stroke-width="0.5" stroke-dasharray="16,0" points="521.281,384.477 521.281,384.477"/>
<polyline fill="none" stroke="#000000" stroke-width="0.5" stroke-dasharray="16,0" points="74.8789,384.477 74.8789,384.477"/>
<polyline fill="none" stroke="#000000" stroke-width="0.5" stroke-dasharray="16,0" points="74.8789,32.3984 74.8789,32.3984"/>
<polyline fill="none" stroke="#000000" stroke-width="0.5" stroke-dasharray="16,0" points="521.281,32.3984 521.281,32.3984"/>
<text fill="#000000" x="298.08" y="22.3994" font-size="10" text-anchor="middle" baseline-shift="0" font-family="Helvetica">Lamp Ikea 20W (RMS voltage)</text>
<polyline fill="none" stroke="#000000" stroke-width="0.5" stroke-dasharray="16,0" points="521.281,384.477 521.281,32.3984"/>
<polyline fill="none" stroke="#000000" stroke-width="0.5" stroke-dasharray="16,0" points="74.8789,384.477 74.8789,32.3984 521.281,32.3984"/>
<polyline fill="none" stroke="#000000" stroke-width="0.5" stroke-dasharray="16,0" points="74.8789,384.477 521.281,384.477"/>
</g>
</svg>
