<?xml version="1.0" encoding="UTF-8" standalone="no"?>
<svg xmlns="http://www.w3.org/2000/svg"
     xmlns:xlink="http://www.w3.org/1999/xlink"
     width="576px" height="432px" viewBox="0 0 576 432">
<title>glps_renderer figure</title>
<desc>
Creator: GL2PS 1.3.5, (C) 1999-2009 C. Geuzaine
For: Octave
CreationDate: Tue Jan 31 15:39:43 2012
</desc>
<defs>
</defs>
<g shape-rendering="crispEdges">
<text fill="#000000" x="298.08" y="389.481" font-size="10" text-anchor="middle" baseline-shift="-10" font-family="Helvetica">200</text>
<text fill="#000000" x="409.68" y="389.481" font-size="10" text-anchor="middle" baseline-shift="-10" font-family="Helvetica">300</text>
<text fill="#000000" x="521.28" y="389.481" font-size="10" text-anchor="middle" baseline-shift="-10" font-family="Helvetica">400</text>
<text fill="#000000" x="69.8755" y="384.48" font-size="10" text-anchor="end" baseline-shift="-5" font-family="Helvetica">-3</text>
<text fill="#000000" x="69.8755" y="325.8" font-size="10" text-anchor="end" baseline-shift="-5" font-family="Helvetica">-2.5</text>
<text fill="#000000" x="69.8755" y="267.12" font-size="10" text-anchor="end" baseline-shift="-5" font-family="Helvetica">-2</text>
<text fill="#000000" x="74.88" y="389.481" font-size="10" text-anchor="middle" baseline-shift="-10" font-family="Helvetica">0</text>
<text fill="#000000" x="186.48" y="389.481" font-size="10" text-anchor="middle" baseline-shift="-10" font-family="Helvetica">100</text>
<text fill="#000000" x="69.8755" y="208.44" font-size="10" text-anchor="end" baseline-shift="-5" font-family="Helvetica">-1.5</text>
<text fill="#000000" x="69.8755" y="149.76" font-size="10" text-anchor="end" baseline-shift="-5" font-family="Helvetica">-1</text>
<text fill="#000000" x="69.8755" y="91.08" font-size="10" text-anchor="end" baseline-shift="-5" font-family="Helvetica">-0.5</text>
<text fill="#000000" x="69.8755" y="32.4" font-size="10" text-anchor="end" baseline-shift="-5" font-family="Helvetica">0</text>
<text fill="#000000" x="298.08" y="402.481" font-size="10" text-anchor="middle" baseline-shift="-10" font-family="Helvetica">time (10 seconds per unit)</text>
<text fill="#000000" x="51.8755" y="208.44" font-size="10" transform="rotate(-90, 51.8755, 208.44)" text-anchor="middle" baseline-shift="0" font-family="Helvetica">volt-ampere reactive (var)</text>
<polyline fill="none" stroke="#000000" stroke-width="0.5" stroke-dasharray="16,0" points="74.8789,32.3984 521.281,32.3984"/>
<polyline fill="none" stroke="#000000" stroke-width="0.5" stroke-dasharray="16,0" points="74.8789,384.48 74.8789,32.3984"/>
<polyline fill="none" stroke="#000000" stroke-width="0.5" stroke-dasharray="16,0" points="521.281,384.48 521.281,32.3984"/>
<polyline fill="none" stroke="#000000" stroke-width="0.5" stroke-dasharray="0,3,1,3,1,3,1,3,1,0" points="74.8789,384.48 74.8789,32.3984"/>
<polyline fill="none" stroke="#000000" stroke-width="0.5" stroke-dasharray="0,3,1,3,1,3,1,3,1,0" points="186.48,384.48 186.48,32.3984"/>
<polyline fill="none" stroke="#000000" stroke-width="0.5" stroke-dasharray="0,3,1,3,1,3,1,3,1,0" points="298.078,384.48 298.078,32.3984"/>
<polyline fill="none" stroke="#000000" stroke-width="0.5" stroke-dasharray="0,3,1,3,1,3,1,3,1,0" points="409.68,384.48 409.68,32.3984"/>
<polyline fill="none" stroke="#000000" stroke-width="0.5" stroke-dasharray="16,0" points="74.8789,384.48 521.281,384.48"/>
<polyline fill="none" stroke="#000000" stroke-width="0.5" stroke-dasharray="0,3,1,3,1,3,1,3,1,0" points="521.281,384.48 521.281,32.3984"/>
<polyline fill="none" stroke="#000000" stroke-width="0.5" stroke-dasharray="16,0" points="74.8789,384.48 74.8789,377.477"/>
<polyline fill="none" stroke="#000000" stroke-width="0.5" stroke-dasharray="16,0" points="74.8789,32.3984 74.8789,39.4023"/>
<polyline fill="none" stroke="#000000" stroke-width="0.5" stroke-dasharray="16,0" points="186.48,384.48 186.48,377.477"/>
<polyline fill="none" stroke="#000000" stroke-width="0.5" stroke-dasharray="16,0" points="186.48,32.3984 186.48,39.4023"/>
<polyline fill="none" stroke="#000000" stroke-width="0.5" stroke-dasharray="16,0" points="298.078,384.48 298.078,377.477"/>
<polyline fill="none" stroke="#000000" stroke-width="0.5" stroke-dasharray="16,0" points="298.078,32.3984 298.078,39.4023"/>
<polyline fill="none" stroke="#000000" stroke-width="0.5" stroke-dasharray="16,0" points="409.68,384.48 409.68,377.477"/>
<polyline fill="none" stroke="#000000" stroke-width="0.5" stroke-dasharray="16,0" points="409.68,32.3984 409.68,39.4023"/>
<polyline fill="none" stroke="#000000" stroke-width="0.5" stroke-dasharray="16,0" points="521.281,384.48 521.281,377.477"/>
<polyline fill="none" stroke="#000000" stroke-width="0.5" stroke-dasharray="16,0" points="521.281,32.3984 521.281,39.4023"/>
<polyline fill="none" stroke="#000000" stroke-width="0.5" stroke-dasharray="0,3,1,3,1,3,1,3,1,0" points="97.1992,384.48 97.1992,32.3984"/>
<polyline fill="none" stroke="#000000" stroke-width="0.5" stroke-dasharray="0,3,1,3,1,3,1,3,1,0" points="119.52,384.48 119.52,32.3984"/>
<polyline fill="none" stroke="#000000" stroke-width="0.5" stroke-dasharray="0,3,1,3,1,3,1,3,1,0" points="141.84,384.48 141.84,32.3984"/>
<polyline fill="none" stroke="#000000" stroke-width="0.5" stroke-dasharray="0,3,1,3,1,3,1,3,1,0" points="164.16,384.48 164.16,32.3984"/>
<polyline fill="none" stroke="#000000" stroke-width="0.5" stroke-dasharray="0,3,1,3,1,3,1,3,1,0" points="208.801,384.48 208.801,32.3984"/>
<polyline fill="none" stroke="#000000" stroke-width="0.5" stroke-dasharray="0,3,1,3,1,3,1,3,1,0" points="231.121,384.48 231.121,32.3984"/>
<polyline fill="none" stroke="#000000" stroke-width="0.5" stroke-dasharray="0,3,1,3,1,3,1,3,1,0" points="253.441,384.48 253.441,32.3984"/>
<polyline fill="none" stroke="#000000" stroke-width="0.5" stroke-dasharray="0,3,1,3,1,3,1,3,1,0" points="275.762,384.48 275.762,32.3984"/>
<polyline fill="none" stroke="#000000" stroke-width="0.5" stroke-dasharray="0,3,1,3,1,3,1,3,1,0" points="320.398,384.48 320.398,32.3984"/>
<polyline fill="none" stroke="#000000" stroke-width="0.5" stroke-dasharray="0,3,1,3,1,3,1,3,1,0" points="342.719,384.48 342.719,32.3984"/>
<polyline fill="none" stroke="#000000" stroke-width="0.5" stroke-dasharray="0,3,1,3,1,3,1,3,1,0" points="365.039,384.48 365.039,32.3984"/>
<polyline fill="none" stroke="#000000" stroke-width="0.5" stroke-dasharray="0,3,1,3,1,3,1,3,1,0" points="387.359,384.48 387.359,32.3984"/>
<polyline fill="none" stroke="#000000" stroke-width="0.5" stroke-dasharray="0,3,1,3,1,3,1,3,1,0" points="432,384.48 432,32.3984"/>
<polyline fill="none" stroke="#000000" stroke-width="0.5" stroke-dasharray="0,3,1,3,1,3,1,3,1,0" points="454.32,384.48 454.32,32.3984"/>
<polyline fill="none" stroke="#000000" stroke-width="0.5" stroke-dasharray="0,3,1,3,1,3,1,3,1,0" points="476.641,384.48 476.641,32.3984"/>
<polyline fill="none" stroke="#000000" stroke-width="0.5" stroke-dasharray="0,3,1,3,1,3,1,3,1,0" points="498.961,384.48 498.961,32.3984"/>
<polyline fill="none" stroke="#000000" stroke-width="0.5" stroke-dasharray="0,3,1,3,1,3,1,3,1,0" points="74.8789,384.48 521.281,384.48"/>
<polyline fill="none" stroke="#000000" stroke-width="0.5" stroke-dasharray="0,3,1,3,1,3,1,3,1,0" points="74.8789,325.801 521.281,325.801"/>
<polyline fill="none" stroke="#000000" stroke-width="0.5" stroke-dasharray="0,3,1,3,1,3,1,3,1,0" points="74.8789,267.121 521.281,267.121"/>
<polyline fill="none" stroke="#000000" stroke-width="0.5" stroke-dasharray="0,3,1,3,1,3,1,3,1,0" points="74.8789,208.441 521.281,208.441"/>
<polyline fill="none" stroke="#000000" stroke-width="0.5" stroke-dasharray="0,3,1,3,1,3,1,3,1,0" points="74.8789,149.762 521.281,149.762"/>
<polyline fill="none" stroke="#000000" stroke-width="0.5" stroke-dasharray="0,3,1,3,1,3,1,3,1,0" points="74.8789,91.0781 521.281,91.0781"/>
<polyline fill="none" stroke="#000000" stroke-width="0.5" stroke-dasharray="0,3,1,3,1,3,1,3,1,0" points="74.8789,32.3984 521.281,32.3984"/>
<polyline fill="none" stroke="#000000" stroke-width="0.5" stroke-dasharray="16,0" points="74.8789,384.48 81.8867,384.48"/>
<polyline fill="none" stroke="#000000" stroke-width="0.5" stroke-dasharray="16,0" points="521.281,384.48 514.273,384.48"/>
<polyline fill="none" stroke="#000000" stroke-width="0.5" stroke-dasharray="16,0" points="74.8789,325.801 81.8867,325.801"/>
<polyline fill="none" stroke="#000000" stroke-width="0.5" stroke-dasharray="16,0" points="521.281,325.801 514.273,325.801"/>
<polyline fill="none" stroke="#000000" stroke-width="0.5" stroke-dasharray="16,0" points="74.8789,267.121 81.8867,267.121"/>
<polyline fill="none" stroke="#000000" stroke-width="0.5" stroke-dasharray="16,0" points="521.281,267.121 514.273,267.121"/>
<polyline fill="none" stroke="#000000" stroke-width="0.5" stroke-dasharray="16,0" points="74.8789,208.441 81.8867,208.441"/>
<polyline fill="none" stroke="#000000" stroke-width="0.5" stroke-dasharray="16,0" points="521.281,208.441 514.273,208.441"/>
<polyline fill="none" stroke="#000000" stroke-width="0.5" stroke-dasharray="16,0" points="74.8789,149.762 81.8867,149.762"/>
<polyline fill="none" stroke="#000000" stroke-width="0.5" stroke-dasharray="16,0" points="521.281,149.762 514.273,149.762"/>
<polyline fill="none" stroke="#000000" stroke-width="0.5" stroke-dasharray="16,0" points="74.8789,91.0781 81.8867,91.0781"/>
<polyline fill="none" stroke="#000000" stroke-width="0.5" stroke-dasharray="16,0" points="521.281,91.0781 514.273,91.0781"/>
<polyline fill="none" stroke="#000000" stroke-width="0.5" stroke-dasharray="16,0" points="74.8789,32.3984 81.8867,32.3984"/>
<polyline fill="none" stroke="#000000" stroke-width="0.5" stroke-dasharray="16,0" points="521.281,32.3984 514.273,32.3984"/>
<polyline fill="none" stroke="#000000" stroke-width="0.5" stroke-dasharray="0,3,1,3,1,3,1,3,1,0" points="74.8789,372.742 521.281,372.742"/>
<polyline fill="none" stroke="#000000" stroke-width="0.5" stroke-dasharray="0,3,1,3,1,3,1,3,1,0" points="74.8789,361.008 521.281,361.008"/>
<polyline fill="none" stroke="#000000" stroke-width="0.5" stroke-dasharray="0,3,1,3,1,3,1,3,1,0" points="74.8789,349.273 521.281,349.273"/>
<polyline fill="none" stroke="#000000" stroke-width="0.5" stroke-dasharray="0,3,1,3,1,3,1,3,1,0" points="74.8789,337.535 521.281,337.535"/>
<polyline fill="none" stroke="#000000" stroke-width="0.5" stroke-dasharray="0,3,1,3,1,3,1,3,1,0" points="74.8789,314.062 521.281,314.062"/>
<polyline fill="none" stroke="#000000" stroke-width="0.5" stroke-dasharray="0,3,1,3,1,3,1,3,1,0" points="74.8789,302.328 521.281,302.328"/>
<polyline fill="none" stroke="#000000" stroke-width="0.5" stroke-dasharray="0,3,1,3,1,3,1,3,1,0" points="74.8789,290.594 521.281,290.594"/>
<polyline fill="none" stroke="#000000" stroke-width="0.5" stroke-dasharray="0,3,1,3,1,3,1,3,1,0" points="74.8789,278.855 521.281,278.855"/>
<polyline fill="none" stroke="#000000" stroke-width="0.5" stroke-dasharray="0,3,1,3,1,3,1,3,1,0" points="74.8789,255.383 521.281,255.383"/>
<polyline fill="none" stroke="#000000" stroke-width="0.5" stroke-dasharray="0,3,1,3,1,3,1,3,1,0" points="74.8789,243.648 521.281,243.648"/>
<polyline fill="none" stroke="#000000" stroke-width="0.5" stroke-dasharray="0,3,1,3,1,3,1,3,1,0" points="74.8789,231.91 521.281,231.91"/>
<polyline fill="none" stroke="#000000" stroke-width="0.5" stroke-dasharray="0,3,1,3,1,3,1,3,1,0" points="74.8789,220.176 521.281,220.176"/>
<polyline fill="none" stroke="#000000" stroke-width="0.5" stroke-dasharray="0,3,1,3,1,3,1,3,1,0" points="74.8789,196.703 521.281,196.703"/>
<polyline fill="none" stroke="#000000" stroke-width="0.5" stroke-dasharray="0,3,1,3,1,3,1,3,1,0" points="74.8789,184.969 521.281,184.969"/>
<polyline fill="none" stroke="#000000" stroke-width="0.5" stroke-dasharray="0,3,1,3,1,3,1,3,1,0" points="74.8789,173.23 521.281,173.23"/>
<polyline fill="none" stroke="#000000" stroke-width="0.5" stroke-dasharray="0,3,1,3,1,3,1,3,1,0" points="74.8789,161.496 521.281,161.496"/>
<polyline fill="none" stroke="#000000" stroke-width="0.5" stroke-dasharray="0,3,1,3,1,3,1,3,1,0" points="74.8789,138.023 521.281,138.023"/>
<polyline fill="none" stroke="#000000" stroke-width="0.5" stroke-dasharray="0,3,1,3,1,3,1,3,1,0" points="74.8789,126.289 521.281,126.289"/>
<polyline fill="none" stroke="#000000" stroke-width="0.5" stroke-dasharray="0,3,1,3,1,3,1,3,1,0" points="74.8789,114.551 521.281,114.551"/>
<polyline fill="none" stroke="#000000" stroke-width="0.5" stroke-dasharray="0,3,1,3,1,3,1,3,1,0" points="74.8789,102.816 521.281,102.816"/>
<polyline fill="none" stroke="#000000" stroke-width="0.5" stroke-dasharray="0,3,1,3,1,3,1,3,1,0" points="74.8789,79.3438 521.281,79.3438"/>
<polyline fill="none" stroke="#000000" stroke-width="0.5" stroke-dasharray="0,3,1,3,1,3,1,3,1,0" points="74.8789,67.6094 521.281,67.6094"/>
<polyline fill="none" stroke="#000000" stroke-width="0.5" stroke-dasharray="0,3,1,3,1,3,1,3,1,0" points="74.8789,55.8711 521.281,55.8711"/>
<polyline fill="none" stroke="#000000" stroke-width="0.5" stroke-dasharray="0,3,1,3,1,3,1,3,1,0" points="74.8789,44.1367 521.281,44.1367"/>
<polyline fill="none" stroke="#ff0000" stroke-width="1.5" points="75.9961,32.3984 77.1133,32.3984 78.2266,32.3984 79.3438,32.3984 80.4609,32.3984 81.5742,362.18 82.6914,362.18 83.8086,362.18 84.9258,362.18 86.0391,362.18 87.1562,349.977 88.2734,362.18 89.3867,349.977 90.5039,349.977 91.6211,349.977 92.7344,349.977 93.8516,349.977 94.9688,349.977 96.0859,349.977 97.1992,349.977 98.3164,349.977 99.4336,349.977 100.547,349.977 101.664,349.977 102.781,349.977 103.895,349.977 105.012,349.977 106.129,349.977 107.242,349.977 108.359,349.977 109.477,349.977 110.594,349.977 111.707,349.977 112.824,349.977 113.941,349.977 115.055,349.977 116.172,349.977 117.289,349.977 118.402,349.977 119.52,349.977 120.637,349.977 121.754,349.977 122.867,349.977 123.984,349.977 125.102,349.977 126.215,349.977 127.332,349.977 128.449,349.977 129.562,337.652 130.68,349.977 131.797,349.977 132.91,349.977 134.027,349.977 135.145,337.652 136.262,349.977 137.375,349.977 138.492,337.652 139.609,349.977 140.723,337.652 141.84,337.652 142.957,337.652 144.07,337.652 145.188,349.977 146.305,337.652 147.422,337.652 148.535,337.652 149.652,337.652 150.77,337.652 151.883,337.652 153,337.652 154.117,337.652 155.23,349.977 156.348,337.652 157.465,337.652 158.578,337.652 159.695,337.652 160.812,337.652 161.93,337.652 163.043,337.652 164.16,337.652 165.277,337.652 166.391,349.977 167.508,337.652 168.625,337.652 169.738,337.652 170.855,337.652 171.973,337.652 173.09,337.652 174.203,337.652 175.32,337.652 176.438,337.652 177.551,337.652 178.668,337.652 179.785,337.652 180.898,337.652 182.016,337.652 183.133,337.652 184.246,337.652 185.363,337.652 186.48,337.652 187.598,337.652 188.711,337.652 189.828,337.652 190.945,337.652 192.059,337.652 193.176,337.652 194.293,337.652 195.406,337.652 196.523,337.652 197.641,337.652 198.758,337.652 199.871,337.652 200.988,337.652 202.105,337.652 203.219,337.652 204.336,337.652 205.453,337.652 206.566,337.652 207.684,337.652 208.801,337.652 209.914,337.652 211.031,337.652 212.148,337.652 213.266,337.652 214.379,337.652 215.496,337.652 216.613,337.652 217.727,337.652 218.844,337.652 219.961,337.652 221.074,337.652 222.191,337.652 223.309,337.652 224.426,337.652 225.539,337.652 226.656,337.652 227.773,337.652 228.887,337.652 230.004,337.652 231.121,337.652 232.234,337.652 233.352,337.652 234.469,337.652 235.586,337.652 236.699,337.652 237.816,337.652 238.934,337.652 240.047,337.652 241.164,337.652 242.281,337.652 243.395,337.652 244.512,337.652 245.629,337.652 246.742,337.652 247.859,337.652 248.977,337.652 250.094,337.652 251.207,337.652 252.324,337.652 253.441,337.652 254.555,337.652 255.672,337.652 256.789,337.652 257.902,337.652 259.02,337.652 260.137,337.652 261.254,337.652 262.367,337.652 263.484,337.652 264.602,337.652 265.715,337.652 266.832,337.652 267.949,337.652 269.062,337.652 270.18,337.652 271.297,337.652 272.41,337.652 273.527,337.652 274.645,337.652 275.762,337.652 276.875,337.652 277.992,337.652 279.109,337.652 280.223,337.652 281.34,337.652 282.457,337.652 283.57,337.652 284.688,337.652 285.805,337.652 286.922,337.652 288.035,337.652 289.152,337.652 290.27,337.652 291.383,337.652 292.5,337.652 293.617,337.652 294.73,337.652 295.848,337.652 296.965,337.652 298.078,337.652 299.195,337.652 300.312,337.652 301.43,337.652 302.543,337.652 303.66,337.652 304.777,337.652 305.891,337.652 307.008,337.652 308.125,337.652 309.238,337.652 310.355,337.652 311.473,337.652 312.59,337.652 313.703,337.652 314.82,337.652 315.938,337.652 317.051,325.449 318.168,337.652 319.285,337.652 320.398,337.652 321.516,337.652 322.633,337.652 323.746,325.449 324.863,337.652 325.98,337.652 327.098,337.652 328.211,337.652 329.328,337.652 330.445,337.652 331.559,337.652 332.676,337.652 333.793,337.652 334.906,337.652 336.023,337.652 337.141,337.652 338.258,337.652 339.371,337.652 340.488,337.652 341.605,337.652 342.719,337.652 343.836,337.652 344.953,337.652 346.066,337.652 347.184,337.652 348.301,337.652 349.414,337.652 350.531,337.652 351.648,337.652 352.766,337.652 353.879,337.652 354.996,337.652 356.113,337.652 357.227,337.652 358.344,337.652 359.461,337.652 360.574,337.652 361.691,337.652 362.809,337.652 363.926,337.652 365.039,337.652 366.156,337.652 367.273,337.652 368.387,337.652 369.504,337.652 370.621,337.652 371.734,337.652 372.852,337.652 373.969,337.652 375.082,337.652 376.199,337.652 377.316,337.652 378.434,337.652 379.547,337.652 380.664,337.652 381.781,337.652 382.895,337.652 384.012,337.652 385.129,337.652 386.242,337.652 387.359,337.652 388.477,337.652 389.594,337.652 390.707,337.652 391.824,337.652 392.941,337.652 394.055,337.652 395.172,337.652 396.289,337.652 397.402,337.652 398.52,337.652 399.637,337.652 400.75,337.652 401.867,337.652 402.984,337.652 404.102,337.652 405.215,337.652 406.332,337.652 407.449,337.652 408.562,337.652 409.68,337.652 410.797,337.652 411.91,337.652 413.027,337.652 414.145,337.652 415.262,337.652 416.375,337.652 417.492,337.652 418.609,337.652 419.723,337.652 420.84,337.652 421.957,337.652 423.07,337.652 424.188,337.652 425.305,337.652 426.422,337.652 427.535,337.652 428.652,337.652 429.77,337.652 430.883,337.652 432,337.652 433.117,337.652 434.23,337.652 435.348,337.652 436.465,337.652 437.578,337.652 438.695,337.652 439.812,337.652 440.93,337.652 442.043,337.652 443.16,337.652 444.277,337.652 445.391,337.652 446.508,337.652 447.625,337.652 448.738,337.652 449.855,337.652 450.973,337.652 452.09,337.652 453.203,337.652 454.32,337.652 455.438,337.652 456.551,337.652 457.668,337.652 458.785,337.652 459.898,337.652 461.016,337.652 462.133,337.652 463.246,337.652 464.363,337.652 465.48,337.652 466.598,337.652 467.711,337.652 468.828,337.652 469.945,337.652 471.059,337.652 472.176,337.652 473.293,337.652 474.406,337.652 475.523,337.652 476.641,32.3984"/>
<polyline fill="none" stroke="#000000" stroke-width="0.5" stroke-dasharray="16,0" points="521.281,384.48 521.281,384.48"/>
<polyline fill="none" stroke="#000000" stroke-width="0.5" stroke-dasharray="16,0" points="74.8789,384.48 74.8789,384.48"/>
<polyline fill="none" stroke="#000000" stroke-width="0.5" stroke-dasharray="16,0" points="74.8789,32.3984 74.8789,32.3984"/>
<polyline fill="none" stroke="#000000" stroke-width="0.5" stroke-dasharray="16,0" points="521.281,32.3984 521.281,32.3984"/>
<text fill="#000000" x="298.08" y="22.4" font-size="10" text-anchor="middle" baseline-shift="0" font-family="Helvetica">Lamp Lexman 5W (reactive power)</text>
<polyline fill="none" stroke="#000000" stroke-width="0.5" stroke-dasharray="16,0" points="521.281,384.48 521.281,32.3984"/>
<polyline fill="none" stroke="#000000" stroke-width="0.5" stroke-dasharray="16,0" points="74.8789,384.48 74.8789,32.3984 521.281,32.3984"/>
<polyline fill="none" stroke="#000000" stroke-width="0.5" stroke-dasharray="16,0" points="74.8789,384.48 521.281,384.48"/>
</g>
</svg>
