<?xml version="1.0" encoding="UTF-8" standalone="no"?>
<svg xmlns="http://www.w3.org/2000/svg"
     xmlns:xlink="http://www.w3.org/1999/xlink"
     width="576px" height="432px" viewBox="0 0 576 432">
<title>glps_renderer figure</title>
<desc>
Creator: GL2PS 1.3.5, (C) 1999-2009 C. Geuzaine
For: Octave
CreationDate: Tue Jan 31 15:37:49 2012
</desc>
<defs>
</defs>
<g shape-rendering="crispEdges">
<text fill="#000000" x="298.08" y="389.482" font-size="10" text-anchor="middle" baseline-shift="-10" font-family="Helvetica">200</text>
<text fill="#000000" x="409.68" y="389.482" font-size="10" text-anchor="middle" baseline-shift="-10" font-family="Helvetica">300</text>
<text fill="#000000" x="521.28" y="389.482" font-size="10" text-anchor="middle" baseline-shift="-10" font-family="Helvetica">400</text>
<text fill="#000000" x="69.8755" y="384.48" font-size="10" text-anchor="end" baseline-shift="-5" font-family="Helvetica">226</text>
<text fill="#000000" x="69.8755" y="314.065" font-size="10" text-anchor="end" baseline-shift="-5" font-family="Helvetica">226.5</text>
<text fill="#000000" x="69.8755" y="243.647" font-size="10" text-anchor="end" baseline-shift="-5" font-family="Helvetica">227</text>
<text fill="#000000" x="74.88" y="389.482" font-size="10" text-anchor="middle" baseline-shift="-10" font-family="Helvetica">0</text>
<text fill="#000000" x="186.48" y="389.482" font-size="10" text-anchor="middle" baseline-shift="-10" font-family="Helvetica">100</text>
<text fill="#000000" x="69.8755" y="173.233" font-size="10" text-anchor="end" baseline-shift="-5" font-family="Helvetica">227.5</text>
<text fill="#000000" x="69.8755" y="102.815" font-size="10" text-anchor="end" baseline-shift="-5" font-family="Helvetica">228</text>
<text fill="#000000" x="69.8755" y="32.4" font-size="10" text-anchor="end" baseline-shift="-5" font-family="Helvetica">228.5</text>
<text fill="#000000" x="298.08" y="402.483" font-size="10" text-anchor="middle" baseline-shift="-10" font-family="Helvetica">time (10 seconds per unit)</text>
<text fill="#000000" x="42.8755" y="208.44" font-size="10" transform="rotate(-90, 42.8755, 208.44)" text-anchor="middle" baseline-shift="0" font-family="Helvetica">volt (V)</text>
<polyline fill="none" stroke="#000000" stroke-width="0.5" stroke-dasharray="16,0" points="74.8789,32.3984 521.281,32.3984"/>
<polyline fill="none" stroke="#000000" stroke-width="0.5" stroke-dasharray="16,0" points="74.8789,384.48 74.8789,32.3984"/>
<polyline fill="none" stroke="#000000" stroke-width="0.5" stroke-dasharray="16,0" points="521.281,384.48 521.281,32.3984"/>
<polyline fill="none" stroke="#000000" stroke-width="0.5" stroke-dasharray="0,3,1,3,1,3,1,3,1,0" points="74.8789,384.48 74.8789,32.3984"/>
<polyline fill="none" stroke="#000000" stroke-width="0.5" stroke-dasharray="0,3,1,3,1,3,1,3,1,0" points="186.48,384.48 186.48,32.3984"/>
<polyline fill="none" stroke="#000000" stroke-width="0.5" stroke-dasharray="0,3,1,3,1,3,1,3,1,0" points="298.078,384.48 298.078,32.3984"/>
<polyline fill="none" stroke="#000000" stroke-width="0.5" stroke-dasharray="0,3,1,3,1,3,1,3,1,0" points="409.68,384.48 409.68,32.3984"/>
<polyline fill="none" stroke="#000000" stroke-width="0.5" stroke-dasharray="16,0" points="74.8789,384.48 521.281,384.48"/>
<polyline fill="none" stroke="#000000" stroke-width="0.5" stroke-dasharray="0,3,1,3,1,3,1,3,1,0" points="521.281,384.48 521.281,32.3984"/>
<polyline fill="none" stroke="#000000" stroke-width="0.5" stroke-dasharray="16,0" points="74.8789,384.48 74.8789,377.48"/>
<polyline fill="none" stroke="#000000" stroke-width="0.5" stroke-dasharray="16,0" points="74.8789,32.3984 74.8789,39.4023"/>
<polyline fill="none" stroke="#000000" stroke-width="0.5" stroke-dasharray="16,0" points="186.48,384.48 186.48,377.48"/>
<polyline fill="none" stroke="#000000" stroke-width="0.5" stroke-dasharray="16,0" points="186.48,32.3984 186.48,39.4023"/>
<polyline fill="none" stroke="#000000" stroke-width="0.5" stroke-dasharray="16,0" points="298.078,384.48 298.078,377.48"/>
<polyline fill="none" stroke="#000000" stroke-width="0.5" stroke-dasharray="16,0" points="298.078,32.3984 298.078,39.4023"/>
<polyline fill="none" stroke="#000000" stroke-width="0.5" stroke-dasharray="16,0" points="409.68,384.48 409.68,377.48"/>
<polyline fill="none" stroke="#000000" stroke-width="0.5" stroke-dasharray="16,0" points="409.68,32.3984 409.68,39.4023"/>
<polyline fill="none" stroke="#000000" stroke-width="0.5" stroke-dasharray="16,0" points="521.281,384.48 521.281,377.48"/>
<polyline fill="none" stroke="#000000" stroke-width="0.5" stroke-dasharray="16,0" points="521.281,32.3984 521.281,39.4023"/>
<polyline fill="none" stroke="#000000" stroke-width="0.5" stroke-dasharray="0,3,1,3,1,3,1,3,1,0" points="97.1992,384.48 97.1992,32.3984"/>
<polyline fill="none" stroke="#000000" stroke-width="0.5" stroke-dasharray="0,3,1,3,1,3,1,3,1,0" points="119.52,384.48 119.52,32.3984"/>
<polyline fill="none" stroke="#000000" stroke-width="0.5" stroke-dasharray="0,3,1,3,1,3,1,3,1,0" points="141.84,384.48 141.84,32.3984"/>
<polyline fill="none" stroke="#000000" stroke-width="0.5" stroke-dasharray="0,3,1,3,1,3,1,3,1,0" points="164.16,384.48 164.16,32.3984"/>
<polyline fill="none" stroke="#000000" stroke-width="0.5" stroke-dasharray="0,3,1,3,1,3,1,3,1,0" points="208.801,384.48 208.801,32.3984"/>
<polyline fill="none" stroke="#000000" stroke-width="0.5" stroke-dasharray="0,3,1,3,1,3,1,3,1,0" points="231.121,384.48 231.121,32.3984"/>
<polyline fill="none" stroke="#000000" stroke-width="0.5" stroke-dasharray="0,3,1,3,1,3,1,3,1,0" points="253.441,384.48 253.441,32.3984"/>
<polyline fill="none" stroke="#000000" stroke-width="0.5" stroke-dasharray="0,3,1,3,1,3,1,3,1,0" points="275.762,384.48 275.762,32.3984"/>
<polyline fill="none" stroke="#000000" stroke-width="0.5" stroke-dasharray="0,3,1,3,1,3,1,3,1,0" points="320.398,384.48 320.398,32.3984"/>
<polyline fill="none" stroke="#000000" stroke-width="0.5" stroke-dasharray="0,3,1,3,1,3,1,3,1,0" points="342.719,384.48 342.719,32.3984"/>
<polyline fill="none" stroke="#000000" stroke-width="0.5" stroke-dasharray="0,3,1,3,1,3,1,3,1,0" points="365.039,384.48 365.039,32.3984"/>
<polyline fill="none" stroke="#000000" stroke-width="0.5" stroke-dasharray="0,3,1,3,1,3,1,3,1,0" points="387.359,384.48 387.359,32.3984"/>
<polyline fill="none" stroke="#000000" stroke-width="0.5" stroke-dasharray="0,3,1,3,1,3,1,3,1,0" points="432,384.48 432,32.3984"/>
<polyline fill="none" stroke="#000000" stroke-width="0.5" stroke-dasharray="0,3,1,3,1,3,1,3,1,0" points="454.32,384.48 454.32,32.3984"/>
<polyline fill="none" stroke="#000000" stroke-width="0.5" stroke-dasharray="0,3,1,3,1,3,1,3,1,0" points="476.641,384.48 476.641,32.3984"/>
<polyline fill="none" stroke="#000000" stroke-width="0.5" stroke-dasharray="0,3,1,3,1,3,1,3,1,0" points="498.961,384.48 498.961,32.3984"/>
<polyline fill="none" stroke="#000000" stroke-width="0.5" stroke-dasharray="0,3,1,3,1,3,1,3,1,0" points="74.8789,384.48 521.281,384.48"/>
<polyline fill="none" stroke="#000000" stroke-width="0.5" stroke-dasharray="0,3,1,3,1,3,1,3,1,0" points="74.8789,314.062 521.281,314.062"/>
<polyline fill="none" stroke="#000000" stroke-width="0.5" stroke-dasharray="0,3,1,3,1,3,1,3,1,0" points="74.8789,243.648 521.281,243.648"/>
<polyline fill="none" stroke="#000000" stroke-width="0.5" stroke-dasharray="0,3,1,3,1,3,1,3,1,0" points="74.8789,173.234 521.281,173.234"/>
<polyline fill="none" stroke="#000000" stroke-width="0.5" stroke-dasharray="0,3,1,3,1,3,1,3,1,0" points="74.8789,102.816 521.281,102.816"/>
<polyline fill="none" stroke="#000000" stroke-width="0.5" stroke-dasharray="0,3,1,3,1,3,1,3,1,0" points="74.8789,32.3984 521.281,32.3984"/>
<polyline fill="none" stroke="#000000" stroke-width="0.5" stroke-dasharray="16,0" points="74.8789,384.48 81.8867,384.48"/>
<polyline fill="none" stroke="#000000" stroke-width="0.5" stroke-dasharray="16,0" points="521.281,384.48 514.273,384.48"/>
<polyline fill="none" stroke="#000000" stroke-width="0.5" stroke-dasharray="16,0" points="74.8789,314.062 81.8867,314.062"/>
<polyline fill="none" stroke="#000000" stroke-width="0.5" stroke-dasharray="16,0" points="521.281,314.062 514.273,314.062"/>
<polyline fill="none" stroke="#000000" stroke-width="0.5" stroke-dasharray="16,0" points="74.8789,243.648 81.8867,243.648"/>
<polyline fill="none" stroke="#000000" stroke-width="0.5" stroke-dasharray="16,0" points="521.281,243.648 514.273,243.648"/>
<polyline fill="none" stroke="#000000" stroke-width="0.5" stroke-dasharray="16,0" points="74.8789,173.234 81.8867,173.234"/>
<polyline fill="none" stroke="#000000" stroke-width="0.5" stroke-dasharray="16,0" points="521.281,173.234 514.273,173.234"/>
<polyline fill="none" stroke="#000000" stroke-width="0.5" stroke-dasharray="16,0" points="74.8789,102.816 81.8867,102.816"/>
<polyline fill="none" stroke="#000000" stroke-width="0.5" stroke-dasharray="16,0" points="521.281,102.816 514.273,102.816"/>
<polyline fill="none" stroke="#000000" stroke-width="0.5" stroke-dasharray="16,0" points="74.8789,32.3984 81.8867,32.3984"/>
<polyline fill="none" stroke="#000000" stroke-width="0.5" stroke-dasharray="16,0" points="521.281,32.3984 514.273,32.3984"/>
<polyline fill="none" stroke="#000000" stroke-width="0.5" stroke-dasharray="0,3,1,3,1,3,1,3,1,0" points="74.8789,370.395 521.281,370.395"/>
<polyline fill="none" stroke="#000000" stroke-width="0.5" stroke-dasharray="0,3,1,3,1,3,1,3,1,0" points="74.8789,356.312 521.281,356.312"/>
<polyline fill="none" stroke="#000000" stroke-width="0.5" stroke-dasharray="0,3,1,3,1,3,1,3,1,0" points="74.8789,342.23 521.281,342.23"/>
<polyline fill="none" stroke="#000000" stroke-width="0.5" stroke-dasharray="0,3,1,3,1,3,1,3,1,0" points="74.8789,328.148 521.281,328.148"/>
<polyline fill="none" stroke="#000000" stroke-width="0.5" stroke-dasharray="0,3,1,3,1,3,1,3,1,0" points="74.8789,299.98 521.281,299.98"/>
<polyline fill="none" stroke="#000000" stroke-width="0.5" stroke-dasharray="0,3,1,3,1,3,1,3,1,0" points="74.8789,285.898 521.281,285.898"/>
<polyline fill="none" stroke="#000000" stroke-width="0.5" stroke-dasharray="0,3,1,3,1,3,1,3,1,0" points="74.8789,271.812 521.281,271.812"/>
<polyline fill="none" stroke="#000000" stroke-width="0.5" stroke-dasharray="0,3,1,3,1,3,1,3,1,0" points="74.8789,257.734 521.281,257.734"/>
<polyline fill="none" stroke="#000000" stroke-width="0.5" stroke-dasharray="0,3,1,3,1,3,1,3,1,0" points="74.8789,229.562 521.281,229.562"/>
<polyline fill="none" stroke="#000000" stroke-width="0.5" stroke-dasharray="0,3,1,3,1,3,1,3,1,0" points="74.8789,215.484 521.281,215.484"/>
<polyline fill="none" stroke="#000000" stroke-width="0.5" stroke-dasharray="0,3,1,3,1,3,1,3,1,0" points="74.8789,201.398 521.281,201.398"/>
<polyline fill="none" stroke="#000000" stroke-width="0.5" stroke-dasharray="0,3,1,3,1,3,1,3,1,0" points="74.8789,187.316 521.281,187.316"/>
<polyline fill="none" stroke="#000000" stroke-width="0.5" stroke-dasharray="0,3,1,3,1,3,1,3,1,0" points="74.8789,159.148 521.281,159.148"/>
<polyline fill="none" stroke="#000000" stroke-width="0.5" stroke-dasharray="0,3,1,3,1,3,1,3,1,0" points="74.8789,145.066 521.281,145.066"/>
<polyline fill="none" stroke="#000000" stroke-width="0.5" stroke-dasharray="0,3,1,3,1,3,1,3,1,0" points="74.8789,130.98 521.281,130.98"/>
<polyline fill="none" stroke="#000000" stroke-width="0.5" stroke-dasharray="0,3,1,3,1,3,1,3,1,0" points="74.8789,116.898 521.281,116.898"/>
<polyline fill="none" stroke="#000000" stroke-width="0.5" stroke-dasharray="0,3,1,3,1,3,1,3,1,0" points="74.8789,88.7305 521.281,88.7305"/>
<polyline fill="none" stroke="#000000" stroke-width="0.5" stroke-dasharray="0,3,1,3,1,3,1,3,1,0" points="74.8789,74.6484 521.281,74.6484"/>
<polyline fill="none" stroke="#000000" stroke-width="0.5" stroke-dasharray="0,3,1,3,1,3,1,3,1,0" points="74.8789,60.5664 521.281,60.5664"/>
<polyline fill="none" stroke="#000000" stroke-width="0.5" stroke-dasharray="0,3,1,3,1,3,1,3,1,0" points="74.8789,46.4844 521.281,46.4844"/>
<polyline fill="none" stroke="#ff0000" stroke-width="1.5" points="75.9961,317.445 77.1133,336.176 78.2266,308.852 79.3438,341.949 80.4609,336.879 81.5742,267.73 82.6914,265.898 83.8086,281.676 84.9258,265.195 86.0391,273.223 87.1562,249.566 88.2734,244.492 89.3867,235.621 90.5039,243.508 91.6211,260.41 92.7344,257.453 93.8516,267.309 94.9688,268.012 96.0859,261.957 97.1992,263.645 98.3164,267.73 99.4336,291.531 100.547,298.293 101.664,301.953 102.781,318.715 103.895,311.527 105.012,269.141 106.129,305.617 107.242,318.148 108.359,305.895 109.477,316.457 110.594,306.461 111.707,290.262 112.824,297.867 113.941,257.164 115.055,248.297 116.172,235.059 117.289,261.395 118.402,254.773 119.52,250.125 120.637,261.531 121.754,253.086 122.867,252.379 123.984,253.223 125.102,278.996 126.215,288.012 127.332,307.445 128.449,291.672 129.562,279.137 130.68,304.348 131.797,322.938 132.91,310.402 134.027,287.309 135.145,332.793 136.262,337.301 137.375,311.391 138.492,325.895 139.609,309.98 140.723,340.68 141.84,345.469 142.957,318.43 144.07,331.387 145.188,301.391 146.305,261.531 147.422,254.633 148.535,231.113 149.652,247.027 150.77,251.957 151.883,249.844 153,243.789 154.117,252.523 155.23,246.605 156.348,221.957 157.465,228.016 158.578,233.371 159.695,222.664 160.812,185.488 161.93,223.648 163.043,199.707 164.16,232.945 165.277,209.285 166.391,235.902 167.508,234.777 168.625,293.223 169.738,280.125 170.855,275.336 171.973,221.68 173.09,271.531 174.203,221.395 175.32,217.172 176.438,212.102 177.551,194.074 178.668,192.668 179.785,200.41 180.898,185.344 182.016,154.078 183.133,197.738 184.246,208.863 185.363,223.086 186.48,208.297 187.598,214.641 188.711,217.734 189.828,218.301 190.945,217.734 192.059,224.918 193.176,224.355 194.293,193.23 195.406,250.832 196.523,219.988 197.641,226.605 198.758,175.91 199.871,137.883 200.988,136.051 202.105,113.941 203.219,118.871 204.336,119.859 205.453,99.8594 206.566,103.805 207.684,106.195 208.801,250.41 209.914,224.918 211.031,221.957 212.148,257.164 213.266,236.891 214.379,244.355 215.496,223.227 216.613,243.789 217.727,282.375 218.844,264.211 219.961,257.309 221.074,224.355 222.191,236.043 223.309,218.16 224.426,233.371 225.539,222.242 226.656,233.648 227.773,209.43 228.887,197.035 230.004,182.242 231.121,168.586 232.234,188.723 233.352,198.16 234.469,190.555 235.586,218.723 236.699,237.875 237.816,237.734 238.934,240.129 240.047,238.016 241.164,216.469 242.281,218.301 243.395,221.68 244.512,209.848 245.629,207.172 246.742,190.695 247.859,179.285 248.977,210.836 250.094,163.234 251.207,217.594 252.324,210.551 253.441,193.934 254.555,166.754 255.672,199.852 256.789,222.527 257.902,157.035 259.02,176.895 260.137,177.598 261.254,146.191 262.367,175.344 263.484,175.766 264.602,183.375 265.715,202.523 266.832,195.625 267.949,181.965 269.062,185.766 270.18,168.301 271.297,178.582 272.41,195.766 273.527,196.332 274.645,203.09 275.762,217.312 276.875,205.34 277.992,187.879 279.109,198.02 280.223,189.285 281.34,195.34 282.457,194.496 283.57,212.102 284.688,191.965 285.805,203.371 286.922,194.496 288.035,188.863 289.152,201.117 290.27,195.625 291.383,178.301 292.5,212.527 293.617,216.328 294.73,197.598 295.848,218.723 296.965,177.738 298.078,159.008 299.195,173.234 300.312,156.191 301.43,149.43 302.543,179.992 303.66,169.008 304.777,184.074 305.891,171.543 307.008,182.242 308.125,207.316 309.238,169.852 310.355,151.402 311.473,153.375 312.59,170.699 313.703,165.629 314.82,161.824 315.938,166.613 317.051,168.164 318.168,139.148 319.285,177.738 320.398,156.613 321.516,151.543 322.633,174.219 323.746,162.812 324.863,181.684 325.98,177.031 327.098,172.953 328.211,154.223 329.328,167.18 330.445,151.824 331.559,170.699 332.676,167.035 333.793,169.289 334.906,171.121 336.023,217.453 337.141,247.168 338.258,203.652 339.371,167.879 340.488,164.219 341.605,149.293 342.719,171.543 343.836,234.918 344.953,221.258 346.066,195.34 347.184,185.203 348.301,199.145 349.414,209.004 350.531,210.836 351.648,220.551 352.766,216.328 353.879,225.34 354.996,241.535 356.113,242.523 357.227,250.547 358.344,203.934 359.461,200.836 360.574,188.16 361.691,179.008 362.809,164.5 363.926,166.188 365.039,157.883 366.156,142.812 367.273,170.414 368.387,183.512 369.504,178.301 370.621,185.062 371.734,168.301 372.852,150.559 373.969,167.035 375.082,180.133 376.199,171.543 377.316,181.824 378.434,153.375 379.547,128.027 380.664,163.09 381.781,160.699 382.895,156.191 384.012,171.824 385.129,98.168 386.242,75.4961 387.359,76.4805 388.477,92.957 389.594,112.676 390.707,82.6758 391.824,109.996 392.941,105.914 394.055,122.531 395.172,110.562 396.289,120.984 397.402,103.242 398.52,116.898 399.637,96.4766 400.75,97.1836 401.867,104.789 402.984,109.574 404.102,112.109 405.215,104.789 406.332,111.828 407.449,121.973 408.562,111.266 409.68,99.7188 410.797,84.5078 411.91,116.758 413.027,129.012 414.145,87.043 415.262,87.7461 416.375,73.9453 417.492,81.1289 418.609,123.238 419.723,101.691 420.84,123.379 421.957,118.871 423.07,133.938 424.188,134.926 425.305,150.137 426.422,159.008 427.535,140.281 428.652,152.953 429.77,143.656 430.883,158.023 432,147.883 433.117,164.641 434.23,152.391 435.348,174.219 436.465,134.363 437.578,137.035 438.695,179.148 439.812,145.207 440.93,125.488 442.043,136.898 443.16,141.688 444.277,145.066 445.391,163.234 446.508,126.051 447.625,143.375 448.738,128.871 449.855,130.559 450.973,99.1523 452.09,128.164 453.203,123.66 454.32,119.719 455.438,113.66 456.551,98.0312 457.668,90.9883 458.785,73.9453 459.898,83.6641 461.016,150.418 462.133,145.066 463.246,115.492 464.363,123.238 465.48,122.531 466.598,150.559 467.711,154.922 468.828,154.223 469.945,129.434 471.059,119.719 472.176,67.4688 473.293,71.1289 474.406,81.6914 475.523,83.9414"/>
<polyline fill="none" stroke="#000000" stroke-width="0.5" stroke-dasharray="16,0" points="521.281,384.48 521.281,384.48"/>
<polyline fill="none" stroke="#000000" stroke-width="0.5" stroke-dasharray="16,0" points="74.8789,384.48 74.8789,384.48"/>
<polyline fill="none" stroke="#000000" stroke-width="0.5" stroke-dasharray="16,0" points="74.8789,32.3984 74.8789,32.3984"/>
<polyline fill="none" stroke="#000000" stroke-width="0.5" stroke-dasharray="16,0" points="521.281,32.3984 521.281,32.3984"/>
<text fill="#000000" x="298.08" y="22.4021" font-size="10" text-anchor="middle" baseline-shift="0" font-family="Helvetica">Lamp 3EmmeLight EB11G-C9 9W (RMS voltage)</text>
<polyline fill="none" stroke="#000000" stroke-width="0.5" stroke-dasharray="16,0" points="521.281,384.48 521.281,32.3984"/>
<polyline fill="none" stroke="#000000" stroke-width="0.5" stroke-dasharray="16,0" points="74.8789,384.48 74.8789,32.3984 521.281,32.3984"/>
<polyline fill="none" stroke="#000000" stroke-width="0.5" stroke-dasharray="16,0" points="74.8789,384.48 521.281,384.48"/>
</g>
</svg>
