<?xml version="1.0" encoding="UTF-8" standalone="no"?>
<svg xmlns="http://www.w3.org/2000/svg"
     xmlns:xlink="http://www.w3.org/1999/xlink"
     width="576px" height="432px" viewBox="0 0 576 432">
<title>glps_renderer figure</title>
<desc>
Creator: GL2PS 1.3.5, (C) 1999-2009 C. Geuzaine
For: Octave
CreationDate: Tue Jan 31 15:38:37 2012
</desc>
<defs>
</defs>
<g shape-rendering="crispEdges">
<text fill="#000000" x="298.08" y="389.481" font-size="10" text-anchor="middle" baseline-shift="-10" font-family="Helvetica">200</text>
<text fill="#000000" x="409.68" y="389.481" font-size="10" text-anchor="middle" baseline-shift="-10" font-family="Helvetica">300</text>
<text fill="#000000" x="521.28" y="389.481" font-size="10" text-anchor="middle" baseline-shift="-10" font-family="Helvetica">400</text>
<text fill="#000000" x="69.8755" y="384.48" font-size="10" text-anchor="end" baseline-shift="-5" font-family="Helvetica">-10</text>
<text fill="#000000" x="69.8755" y="314.064" font-size="10" text-anchor="end" baseline-shift="-5" font-family="Helvetica">-8</text>
<text fill="#000000" x="69.8755" y="243.648" font-size="10" text-anchor="end" baseline-shift="-5" font-family="Helvetica">-6</text>
<text fill="#000000" x="74.88" y="389.481" font-size="10" text-anchor="middle" baseline-shift="-10" font-family="Helvetica">0</text>
<text fill="#000000" x="186.48" y="389.481" font-size="10" text-anchor="middle" baseline-shift="-10" font-family="Helvetica">100</text>
<text fill="#000000" x="69.8755" y="173.232" font-size="10" text-anchor="end" baseline-shift="-5" font-family="Helvetica">-4</text>
<text fill="#000000" x="69.8755" y="102.816" font-size="10" text-anchor="end" baseline-shift="-5" font-family="Helvetica">-2</text>
<text fill="#000000" x="69.8755" y="32.4" font-size="10" text-anchor="end" baseline-shift="-5" font-family="Helvetica">0</text>
<text fill="#000000" x="298.08" y="402.481" font-size="10" text-anchor="middle" baseline-shift="-10" font-family="Helvetica">time (10 seconds per unit)</text>
<text fill="#000000" x="54.8755" y="208.44" font-size="10" transform="rotate(-90, 54.8755, 208.44)" text-anchor="middle" baseline-shift="0" font-family="Helvetica">volt-ampere reactive (var)</text>
<polyline fill="none" stroke="#000000" stroke-width="0.5" stroke-dasharray="16,0" points="74.8789,32.3984 521.281,32.3984"/>
<polyline fill="none" stroke="#000000" stroke-width="0.5" stroke-dasharray="16,0" points="74.8789,384.48 74.8789,32.3984"/>
<polyline fill="none" stroke="#000000" stroke-width="0.5" stroke-dasharray="16,0" points="521.281,384.48 521.281,32.3984"/>
<polyline fill="none" stroke="#000000" stroke-width="0.5" stroke-dasharray="0,3,1,3,1,3,1,3,1,0" points="74.8789,384.48 74.8789,32.3984"/>
<polyline fill="none" stroke="#000000" stroke-width="0.5" stroke-dasharray="0,3,1,3,1,3,1,3,1,0" points="186.48,384.48 186.48,32.3984"/>
<polyline fill="none" stroke="#000000" stroke-width="0.5" stroke-dasharray="0,3,1,3,1,3,1,3,1,0" points="298.078,384.48 298.078,32.3984"/>
<polyline fill="none" stroke="#000000" stroke-width="0.5" stroke-dasharray="0,3,1,3,1,3,1,3,1,0" points="409.68,384.48 409.68,32.3984"/>
<polyline fill="none" stroke="#000000" stroke-width="0.5" stroke-dasharray="16,0" points="74.8789,384.48 521.281,384.48"/>
<polyline fill="none" stroke="#000000" stroke-width="0.5" stroke-dasharray="0,3,1,3,1,3,1,3,1,0" points="521.281,384.48 521.281,32.3984"/>
<polyline fill="none" stroke="#000000" stroke-width="0.5" stroke-dasharray="16,0" points="74.8789,384.48 74.8789,377.477"/>
<polyline fill="none" stroke="#000000" stroke-width="0.5" stroke-dasharray="16,0" points="74.8789,32.3984 74.8789,39.4023"/>
<polyline fill="none" stroke="#000000" stroke-width="0.5" stroke-dasharray="16,0" points="186.48,384.48 186.48,377.477"/>
<polyline fill="none" stroke="#000000" stroke-width="0.5" stroke-dasharray="16,0" points="186.48,32.3984 186.48,39.4023"/>
<polyline fill="none" stroke="#000000" stroke-width="0.5" stroke-dasharray="16,0" points="298.078,384.48 298.078,377.477"/>
<polyline fill="none" stroke="#000000" stroke-width="0.5" stroke-dasharray="16,0" points="298.078,32.3984 298.078,39.4023"/>
<polyline fill="none" stroke="#000000" stroke-width="0.5" stroke-dasharray="16,0" points="409.68,384.48 409.68,377.477"/>
<polyline fill="none" stroke="#000000" stroke-width="0.5" stroke-dasharray="16,0" points="409.68,32.3984 409.68,39.4023"/>
<polyline fill="none" stroke="#000000" stroke-width="0.5" stroke-dasharray="16,0" points="521.281,384.48 521.281,377.477"/>
<polyline fill="none" stroke="#000000" stroke-width="0.5" stroke-dasharray="16,0" points="521.281,32.3984 521.281,39.4023"/>
<polyline fill="none" stroke="#000000" stroke-width="0.5" stroke-dasharray="0,3,1,3,1,3,1,3,1,0" points="97.1992,384.48 97.1992,32.3984"/>
<polyline fill="none" stroke="#000000" stroke-width="0.5" stroke-dasharray="0,3,1,3,1,3,1,3,1,0" points="119.52,384.48 119.52,32.3984"/>
<polyline fill="none" stroke="#000000" stroke-width="0.5" stroke-dasharray="0,3,1,3,1,3,1,3,1,0" points="141.84,384.48 141.84,32.3984"/>
<polyline fill="none" stroke="#000000" stroke-width="0.5" stroke-dasharray="0,3,1,3,1,3,1,3,1,0" points="164.16,384.48 164.16,32.3984"/>
<polyline fill="none" stroke="#000000" stroke-width="0.5" stroke-dasharray="0,3,1,3,1,3,1,3,1,0" points="208.801,384.48 208.801,32.3984"/>
<polyline fill="none" stroke="#000000" stroke-width="0.5" stroke-dasharray="0,3,1,3,1,3,1,3,1,0" points="231.121,384.48 231.121,32.3984"/>
<polyline fill="none" stroke="#000000" stroke-width="0.5" stroke-dasharray="0,3,1,3,1,3,1,3,1,0" points="253.441,384.48 253.441,32.3984"/>
<polyline fill="none" stroke="#000000" stroke-width="0.5" stroke-dasharray="0,3,1,3,1,3,1,3,1,0" points="275.762,384.48 275.762,32.3984"/>
<polyline fill="none" stroke="#000000" stroke-width="0.5" stroke-dasharray="0,3,1,3,1,3,1,3,1,0" points="320.398,384.48 320.398,32.3984"/>
<polyline fill="none" stroke="#000000" stroke-width="0.5" stroke-dasharray="0,3,1,3,1,3,1,3,1,0" points="342.719,384.48 342.719,32.3984"/>
<polyline fill="none" stroke="#000000" stroke-width="0.5" stroke-dasharray="0,3,1,3,1,3,1,3,1,0" points="365.039,384.48 365.039,32.3984"/>
<polyline fill="none" stroke="#000000" stroke-width="0.5" stroke-dasharray="0,3,1,3,1,3,1,3,1,0" points="387.359,384.48 387.359,32.3984"/>
<polyline fill="none" stroke="#000000" stroke-width="0.5" stroke-dasharray="0,3,1,3,1,3,1,3,1,0" points="432,384.48 432,32.3984"/>
<polyline fill="none" stroke="#000000" stroke-width="0.5" stroke-dasharray="0,3,1,3,1,3,1,3,1,0" points="454.32,384.48 454.32,32.3984"/>
<polyline fill="none" stroke="#000000" stroke-width="0.5" stroke-dasharray="0,3,1,3,1,3,1,3,1,0" points="476.641,384.48 476.641,32.3984"/>
<polyline fill="none" stroke="#000000" stroke-width="0.5" stroke-dasharray="0,3,1,3,1,3,1,3,1,0" points="498.961,384.48 498.961,32.3984"/>
<polyline fill="none" stroke="#000000" stroke-width="0.5" stroke-dasharray="0,3,1,3,1,3,1,3,1,0" points="74.8789,384.48 521.281,384.48"/>
<polyline fill="none" stroke="#000000" stroke-width="0.5" stroke-dasharray="0,3,1,3,1,3,1,3,1,0" points="74.8789,314.062 521.281,314.062"/>
<polyline fill="none" stroke="#000000" stroke-width="0.5" stroke-dasharray="0,3,1,3,1,3,1,3,1,0" points="74.8789,243.648 521.281,243.648"/>
<polyline fill="none" stroke="#000000" stroke-width="0.5" stroke-dasharray="0,3,1,3,1,3,1,3,1,0" points="74.8789,173.23 521.281,173.23"/>
<polyline fill="none" stroke="#000000" stroke-width="0.5" stroke-dasharray="0,3,1,3,1,3,1,3,1,0" points="74.8789,102.816 521.281,102.816"/>
<polyline fill="none" stroke="#000000" stroke-width="0.5" stroke-dasharray="0,3,1,3,1,3,1,3,1,0" points="74.8789,32.3984 521.281,32.3984"/>
<polyline fill="none" stroke="#000000" stroke-width="0.5" stroke-dasharray="16,0" points="74.8789,384.48 81.8867,384.48"/>
<polyline fill="none" stroke="#000000" stroke-width="0.5" stroke-dasharray="16,0" points="521.281,384.48 514.273,384.48"/>
<polyline fill="none" stroke="#000000" stroke-width="0.5" stroke-dasharray="16,0" points="74.8789,314.062 81.8867,314.062"/>
<polyline fill="none" stroke="#000000" stroke-width="0.5" stroke-dasharray="16,0" points="521.281,314.062 514.273,314.062"/>
<polyline fill="none" stroke="#000000" stroke-width="0.5" stroke-dasharray="16,0" points="74.8789,243.648 81.8867,243.648"/>
<polyline fill="none" stroke="#000000" stroke-width="0.5" stroke-dasharray="16,0" points="521.281,243.648 514.273,243.648"/>
<polyline fill="none" stroke="#000000" stroke-width="0.5" stroke-dasharray="16,0" points="74.8789,173.23 81.8867,173.23"/>
<polyline fill="none" stroke="#000000" stroke-width="0.5" stroke-dasharray="16,0" points="521.281,173.23 514.273,173.23"/>
<polyline fill="none" stroke="#000000" stroke-width="0.5" stroke-dasharray="16,0" points="74.8789,102.816 81.8867,102.816"/>
<polyline fill="none" stroke="#000000" stroke-width="0.5" stroke-dasharray="16,0" points="521.281,102.816 514.273,102.816"/>
<polyline fill="none" stroke="#000000" stroke-width="0.5" stroke-dasharray="16,0" points="74.8789,32.3984 81.8867,32.3984"/>
<polyline fill="none" stroke="#000000" stroke-width="0.5" stroke-dasharray="16,0" points="521.281,32.3984 514.273,32.3984"/>
<polyline fill="none" stroke="#000000" stroke-width="0.5" stroke-dasharray="0,3,1,3,1,3,1,3,1,0" points="74.8789,370.398 521.281,370.398"/>
<polyline fill="none" stroke="#000000" stroke-width="0.5" stroke-dasharray="0,3,1,3,1,3,1,3,1,0" points="74.8789,356.312 521.281,356.312"/>
<polyline fill="none" stroke="#000000" stroke-width="0.5" stroke-dasharray="0,3,1,3,1,3,1,3,1,0" points="74.8789,342.23 521.281,342.23"/>
<polyline fill="none" stroke="#000000" stroke-width="0.5" stroke-dasharray="0,3,1,3,1,3,1,3,1,0" points="74.8789,328.148 521.281,328.148"/>
<polyline fill="none" stroke="#000000" stroke-width="0.5" stroke-dasharray="0,3,1,3,1,3,1,3,1,0" points="74.8789,299.98 521.281,299.98"/>
<polyline fill="none" stroke="#000000" stroke-width="0.5" stroke-dasharray="0,3,1,3,1,3,1,3,1,0" points="74.8789,285.898 521.281,285.898"/>
<polyline fill="none" stroke="#000000" stroke-width="0.5" stroke-dasharray="0,3,1,3,1,3,1,3,1,0" points="74.8789,271.812 521.281,271.812"/>
<polyline fill="none" stroke="#000000" stroke-width="0.5" stroke-dasharray="0,3,1,3,1,3,1,3,1,0" points="74.8789,257.73 521.281,257.73"/>
<polyline fill="none" stroke="#000000" stroke-width="0.5" stroke-dasharray="0,3,1,3,1,3,1,3,1,0" points="74.8789,229.566 521.281,229.566"/>
<polyline fill="none" stroke="#000000" stroke-width="0.5" stroke-dasharray="0,3,1,3,1,3,1,3,1,0" points="74.8789,215.48 521.281,215.48"/>
<polyline fill="none" stroke="#000000" stroke-width="0.5" stroke-dasharray="0,3,1,3,1,3,1,3,1,0" points="74.8789,201.398 521.281,201.398"/>
<polyline fill="none" stroke="#000000" stroke-width="0.5" stroke-dasharray="0,3,1,3,1,3,1,3,1,0" points="74.8789,187.316 521.281,187.316"/>
<polyline fill="none" stroke="#000000" stroke-width="0.5" stroke-dasharray="0,3,1,3,1,3,1,3,1,0" points="74.8789,159.148 521.281,159.148"/>
<polyline fill="none" stroke="#000000" stroke-width="0.5" stroke-dasharray="0,3,1,3,1,3,1,3,1,0" points="74.8789,145.066 521.281,145.066"/>
<polyline fill="none" stroke="#000000" stroke-width="0.5" stroke-dasharray="0,3,1,3,1,3,1,3,1,0" points="74.8789,130.98 521.281,130.98"/>
<polyline fill="none" stroke="#000000" stroke-width="0.5" stroke-dasharray="0,3,1,3,1,3,1,3,1,0" points="74.8789,116.898 521.281,116.898"/>
<polyline fill="none" stroke="#000000" stroke-width="0.5" stroke-dasharray="0,3,1,3,1,3,1,3,1,0" points="74.8789,88.7344 521.281,88.7344"/>
<polyline fill="none" stroke="#000000" stroke-width="0.5" stroke-dasharray="0,3,1,3,1,3,1,3,1,0" points="74.8789,74.6484 521.281,74.6484"/>
<polyline fill="none" stroke="#000000" stroke-width="0.5" stroke-dasharray="0,3,1,3,1,3,1,3,1,0" points="74.8789,60.5664 521.281,60.5664"/>
<polyline fill="none" stroke="#000000" stroke-width="0.5" stroke-dasharray="0,3,1,3,1,3,1,3,1,0" points="74.8789,46.4844 521.281,46.4844"/>
<polyline fill="none" stroke="#ff0000" stroke-width="1.5" points="75.9961,32.3984 77.1133,32.3984 78.2266,32.3984 79.3438,32.3984 80.4609,32.3984 81.5742,32.3984 82.6914,32.3984 83.8086,32.3984 84.9258,310.895 86.0391,314.559 87.1562,321.879 88.2734,325.543 89.3867,329.203 90.5039,325.543 91.6211,325.543 92.7344,329.203 93.8516,332.863 94.9688,336.527 96.0859,340.188 97.1992,343.852 98.3164,347.512 99.4336,351.172 100.547,354.871 101.664,358.531 102.781,362.191 103.895,365.855 105.012,369.516 106.129,369.516 107.242,373.18 108.359,376.84 109.477,376.84 110.594,376.84 111.707,376.84 112.824,380.5 113.941,376.84 115.055,380.5 116.172,380.5 117.289,380.5 118.402,380.5 119.52,376.84 120.637,380.5 121.754,380.5 122.867,376.84 123.984,376.84 125.102,376.84 126.215,373.18 127.332,373.18 128.449,373.18 129.562,369.516 130.68,369.516 131.797,369.516 132.91,365.855 134.027,369.516 135.145,369.516 136.262,373.18 137.375,369.516 138.492,369.516 139.609,369.516 140.723,369.516 141.84,369.516 142.957,369.516 144.07,369.516 145.188,369.516 146.305,365.855 147.422,365.855 148.535,365.855 149.652,362.191 150.77,362.191 151.883,362.191 153,362.191 154.117,362.191 155.23,362.191 156.348,365.855 157.465,365.855 158.578,365.855 159.695,365.855 160.812,365.855 161.93,365.855 163.043,365.855 164.16,365.855 165.277,365.855 166.391,365.855 167.508,362.191 168.625,362.191 169.738,362.191 170.855,362.191 171.973,362.191 173.09,362.191 174.203,362.191 175.32,362.191 176.438,362.191 177.551,362.191 178.668,362.191 179.785,362.191 180.898,362.191 182.016,362.191 183.133,362.191 184.246,358.531 185.363,362.191 186.48,358.531 187.598,358.531 188.711,358.531 189.828,362.191 190.945,358.531 192.059,358.531 193.176,358.531 194.293,358.531 195.406,358.531 196.523,358.531 197.641,358.531 198.758,358.531 199.871,358.531 200.988,354.871 202.105,354.871 203.219,358.531 204.336,354.871 205.453,354.871 206.566,354.871 207.684,354.871 208.801,354.871 209.914,354.871 211.031,358.531 212.148,358.531 213.266,358.531 214.379,354.871 215.496,354.871 216.613,354.871 217.727,354.871 218.844,354.871 219.961,354.871 221.074,354.871 222.191,354.871 223.309,354.871 224.426,354.871 225.539,354.871 226.656,354.871 227.773,354.871 228.887,354.871 230.004,354.871 231.121,354.871 232.234,354.871 233.352,354.871 234.469,354.871 235.586,358.531 236.699,354.871 237.816,354.871 238.934,354.871 240.047,354.871 241.164,354.871 242.281,358.531 243.395,354.871 244.512,354.871 245.629,354.871 246.742,354.871 247.859,354.871 248.977,354.871 250.094,354.871 251.207,358.531 252.324,358.531 253.441,358.531 254.555,358.531 255.672,358.531 256.789,358.531 257.902,358.531 259.02,358.531 260.137,362.191 261.254,358.531 262.367,358.531 263.484,362.191 264.602,358.531 265.715,358.531 266.832,358.531 267.949,362.191 269.062,362.191 270.18,358.531 271.297,362.191 272.41,362.191 273.527,362.191 274.645,362.191 275.762,362.191 276.875,362.191 277.992,362.191 279.109,362.191 280.223,362.191 281.34,362.191 282.457,362.191 283.57,362.191 284.688,362.191 285.805,365.855 286.922,365.855 288.035,365.855 289.152,362.191 290.27,362.191 291.383,365.855 292.5,365.855 293.617,365.855 294.73,365.855 295.848,369.516 296.965,365.855 298.078,365.855 299.195,365.855 300.312,365.855 301.43,365.855 302.543,365.855 303.66,365.855 304.777,365.855 305.891,365.855 307.008,365.855 308.125,365.855 309.238,365.855 310.355,365.855 311.473,365.855 312.59,365.855 313.703,365.855 314.82,365.855 315.938,365.855 317.051,365.855 318.168,369.516 319.285,369.516 320.398,365.855 321.516,365.855 322.633,365.855 323.746,365.855 324.863,365.855 325.98,365.855 327.098,365.855 328.211,365.855 329.328,365.855 330.445,365.855 331.559,365.855 332.676,365.855 333.793,365.855 334.906,365.855 336.023,365.855 337.141,365.855 338.258,365.855 339.371,365.855 340.488,365.855 341.605,365.855 342.719,365.855 343.836,365.855 344.953,365.855 346.066,365.855 347.184,365.855 348.301,365.855 349.414,365.855 350.531,365.855 351.648,365.855 352.766,365.855 353.879,365.855 354.996,365.855 356.113,365.855 357.227,365.855 358.344,365.855 359.461,365.855 360.574,365.855 361.691,365.855 362.809,365.855 363.926,365.855 365.039,365.855 366.156,365.855 367.273,365.855 368.387,365.855 369.504,369.516 370.621,369.516 371.734,369.516 372.852,369.516 373.969,369.516 375.082,369.516 376.199,369.516 377.316,369.516 378.434,365.855 379.547,369.516 380.664,365.855 381.781,369.516 382.895,365.855 384.012,365.855 385.129,369.516 386.242,365.855 387.359,369.516 388.477,365.855 389.594,369.516 390.707,369.516 391.824,369.516 392.941,369.516 394.055,369.516 395.172,369.516 396.289,369.516 397.402,369.516 398.52,369.516 399.637,369.516 400.75,369.516 401.867,369.516 402.984,369.516 404.102,369.516 405.215,369.516 406.332,369.516 407.449,369.516 408.562,373.18 409.68,369.516 410.797,369.516 411.91,369.516 413.027,369.516 414.145,369.516 415.262,373.18 416.375,369.516 417.492,369.516 418.609,369.516 419.723,369.516 420.84,369.516 421.957,373.18 423.07,369.516 424.188,373.18 425.305,373.18 426.422,369.516 427.535,369.516 428.652,373.18 429.77,373.18 430.883,373.18 432,369.516 433.117,373.18 434.23,369.516 435.348,369.516 436.465,369.516 437.578,369.516 438.695,373.18 439.812,369.516 440.93,369.516 442.043,369.516 443.16,369.516 444.277,369.516 445.391,369.516 446.508,369.516 447.625,369.516 448.738,369.516 449.855,369.516 450.973,373.18 452.09,373.18 453.203,369.516 454.32,369.516 455.438,369.516 456.551,369.516 457.668,369.516 458.785,369.516 459.898,369.516 461.016,373.18 462.133,373.18 463.246,369.516 464.363,373.18 465.48,369.516 466.598,373.18 467.711,369.516 468.828,373.18 469.945,369.516 471.059,369.516 472.176,373.18 473.293,369.516 474.406,369.516 475.523,369.516"/>
<polyline fill="none" stroke="#000000" stroke-width="0.5" stroke-dasharray="16,0" points="521.281,384.48 521.281,384.48"/>
<polyline fill="none" stroke="#000000" stroke-width="0.5" stroke-dasharray="16,0" points="74.8789,384.48 74.8789,384.48"/>
<polyline fill="none" stroke="#000000" stroke-width="0.5" stroke-dasharray="16,0" points="74.8789,32.3984 74.8789,32.3984"/>
<polyline fill="none" stroke="#000000" stroke-width="0.5" stroke-dasharray="16,0" points="521.281,32.3984 521.281,32.3984"/>
<text fill="#000000" x="298.08" y="22.4" font-size="10" text-anchor="middle" baseline-shift="0" font-family="Helvetica">Lamp Ikea 20W (reactive power)</text>
<polyline fill="none" stroke="#000000" stroke-width="0.5" stroke-dasharray="16,0" points="521.281,384.48 521.281,32.3984"/>
<polyline fill="none" stroke="#000000" stroke-width="0.5" stroke-dasharray="16,0" points="74.8789,384.48 74.8789,32.3984 521.281,32.3984"/>
<polyline fill="none" stroke="#000000" stroke-width="0.5" stroke-dasharray="16,0" points="74.8789,384.48 521.281,384.48"/>
</g>
</svg>
