<?xml version="1.0" encoding="UTF-8" standalone="no"?>
<svg xmlns="http://www.w3.org/2000/svg"
     xmlns:xlink="http://www.w3.org/1999/xlink"
     width="576px" height="432px" viewBox="0 0 576 432">
<title>glps_renderer figure</title>
<desc>
Creator: GL2PS 1.3.5, (C) 1999-2009 C. Geuzaine
For: Octave
CreationDate: Tue Jan 31 15:39:47 2012
</desc>
<defs>
</defs>
<g shape-rendering="crispEdges">
<text fill="#000000" x="298.08" y="389.481" font-size="10" text-anchor="middle" baseline-shift="-10" font-family="Helvetica">200</text>
<text fill="#000000" x="409.68" y="389.481" font-size="10" text-anchor="middle" baseline-shift="-10" font-family="Helvetica">300</text>
<text fill="#000000" x="521.28" y="389.481" font-size="10" text-anchor="middle" baseline-shift="-10" font-family="Helvetica">400</text>
<text fill="#000000" x="69.8755" y="384.48" font-size="10" text-anchor="end" baseline-shift="-5" font-family="Helvetica">0</text>
<text fill="#000000" x="69.8755" y="325.8" font-size="10" text-anchor="end" baseline-shift="-5" font-family="Helvetica">0.005</text>
<text fill="#000000" x="69.8755" y="267.12" font-size="10" text-anchor="end" baseline-shift="-5" font-family="Helvetica">0.01</text>
<text fill="#000000" x="74.88" y="389.481" font-size="10" text-anchor="middle" baseline-shift="-10" font-family="Helvetica">0</text>
<text fill="#000000" x="186.48" y="389.481" font-size="10" text-anchor="middle" baseline-shift="-10" font-family="Helvetica">100</text>
<text fill="#000000" x="69.8755" y="208.44" font-size="10" text-anchor="end" baseline-shift="-5" font-family="Helvetica">0.015</text>
<text fill="#000000" x="69.8755" y="149.76" font-size="10" text-anchor="end" baseline-shift="-5" font-family="Helvetica">0.02</text>
<text fill="#000000" x="69.8755" y="91.08" font-size="10" text-anchor="end" baseline-shift="-5" font-family="Helvetica">0.025</text>
<text fill="#000000" x="69.8755" y="32.4" font-size="10" text-anchor="end" baseline-shift="-5" font-family="Helvetica">0.03</text>
<text fill="#000000" x="298.08" y="402.481" font-size="10" text-anchor="middle" baseline-shift="-10" font-family="Helvetica">time (10 seconds per unit)</text>
<text fill="#000000" x="42.8755" y="208.44" font-size="10" transform="rotate(-90, 42.8755, 208.44)" text-anchor="middle" baseline-shift="0" font-family="Helvetica">ampere (A)</text>
<polyline fill="none" stroke="#000000" stroke-width="0.5" stroke-dasharray="16,0" points="74.8789,32.3984 521.281,32.3984"/>
<polyline fill="none" stroke="#000000" stroke-width="0.5" stroke-dasharray="16,0" points="74.8789,384.48 74.8789,32.3984"/>
<polyline fill="none" stroke="#000000" stroke-width="0.5" stroke-dasharray="16,0" points="521.281,384.48 521.281,32.3984"/>
<polyline fill="none" stroke="#000000" stroke-width="0.5" stroke-dasharray="0,3,1,3,1,3,1,3,1,0" points="74.8789,384.48 74.8789,32.3984"/>
<polyline fill="none" stroke="#000000" stroke-width="0.5" stroke-dasharray="0,3,1,3,1,3,1,3,1,0" points="186.48,384.48 186.48,32.3984"/>
<polyline fill="none" stroke="#000000" stroke-width="0.5" stroke-dasharray="0,3,1,3,1,3,1,3,1,0" points="298.078,384.48 298.078,32.3984"/>
<polyline fill="none" stroke="#000000" stroke-width="0.5" stroke-dasharray="0,3,1,3,1,3,1,3,1,0" points="409.68,384.48 409.68,32.3984"/>
<polyline fill="none" stroke="#000000" stroke-width="0.5" stroke-dasharray="16,0" points="74.8789,384.48 521.281,384.48"/>
<polyline fill="none" stroke="#000000" stroke-width="0.5" stroke-dasharray="0,3,1,3,1,3,1,3,1,0" points="521.281,384.48 521.281,32.3984"/>
<polyline fill="none" stroke="#000000" stroke-width="0.5" stroke-dasharray="16,0" points="74.8789,384.48 74.8789,377.477"/>
<polyline fill="none" stroke="#000000" stroke-width="0.5" stroke-dasharray="16,0" points="74.8789,32.3984 74.8789,39.4023"/>
<polyline fill="none" stroke="#000000" stroke-width="0.5" stroke-dasharray="16,0" points="186.48,384.48 186.48,377.477"/>
<polyline fill="none" stroke="#000000" stroke-width="0.5" stroke-dasharray="16,0" points="186.48,32.3984 186.48,39.4023"/>
<polyline fill="none" stroke="#000000" stroke-width="0.5" stroke-dasharray="16,0" points="298.078,384.48 298.078,377.477"/>
<polyline fill="none" stroke="#000000" stroke-width="0.5" stroke-dasharray="16,0" points="298.078,32.3984 298.078,39.4023"/>
<polyline fill="none" stroke="#000000" stroke-width="0.5" stroke-dasharray="16,0" points="409.68,384.48 409.68,377.477"/>
<polyline fill="none" stroke="#000000" stroke-width="0.5" stroke-dasharray="16,0" points="409.68,32.3984 409.68,39.4023"/>
<polyline fill="none" stroke="#000000" stroke-width="0.5" stroke-dasharray="16,0" points="521.281,384.48 521.281,377.477"/>
<polyline fill="none" stroke="#000000" stroke-width="0.5" stroke-dasharray="16,0" points="521.281,32.3984 521.281,39.4023"/>
<polyline fill="none" stroke="#000000" stroke-width="0.5" stroke-dasharray="0,3,1,3,1,3,1,3,1,0" points="97.1992,384.48 97.1992,32.3984"/>
<polyline fill="none" stroke="#000000" stroke-width="0.5" stroke-dasharray="0,3,1,3,1,3,1,3,1,0" points="119.52,384.48 119.52,32.3984"/>
<polyline fill="none" stroke="#000000" stroke-width="0.5" stroke-dasharray="0,3,1,3,1,3,1,3,1,0" points="141.84,384.48 141.84,32.3984"/>
<polyline fill="none" stroke="#000000" stroke-width="0.5" stroke-dasharray="0,3,1,3,1,3,1,3,1,0" points="164.16,384.48 164.16,32.3984"/>
<polyline fill="none" stroke="#000000" stroke-width="0.5" stroke-dasharray="0,3,1,3,1,3,1,3,1,0" points="208.801,384.48 208.801,32.3984"/>
<polyline fill="none" stroke="#000000" stroke-width="0.5" stroke-dasharray="0,3,1,3,1,3,1,3,1,0" points="231.121,384.48 231.121,32.3984"/>
<polyline fill="none" stroke="#000000" stroke-width="0.5" stroke-dasharray="0,3,1,3,1,3,1,3,1,0" points="253.441,384.48 253.441,32.3984"/>
<polyline fill="none" stroke="#000000" stroke-width="0.5" stroke-dasharray="0,3,1,3,1,3,1,3,1,0" points="275.762,384.48 275.762,32.3984"/>
<polyline fill="none" stroke="#000000" stroke-width="0.5" stroke-dasharray="0,3,1,3,1,3,1,3,1,0" points="320.398,384.48 320.398,32.3984"/>
<polyline fill="none" stroke="#000000" stroke-width="0.5" stroke-dasharray="0,3,1,3,1,3,1,3,1,0" points="342.719,384.48 342.719,32.3984"/>
<polyline fill="none" stroke="#000000" stroke-width="0.5" stroke-dasharray="0,3,1,3,1,3,1,3,1,0" points="365.039,384.48 365.039,32.3984"/>
<polyline fill="none" stroke="#000000" stroke-width="0.5" stroke-dasharray="0,3,1,3,1,3,1,3,1,0" points="387.359,384.48 387.359,32.3984"/>
<polyline fill="none" stroke="#000000" stroke-width="0.5" stroke-dasharray="0,3,1,3,1,3,1,3,1,0" points="432,384.48 432,32.3984"/>
<polyline fill="none" stroke="#000000" stroke-width="0.5" stroke-dasharray="0,3,1,3,1,3,1,3,1,0" points="454.32,384.48 454.32,32.3984"/>
<polyline fill="none" stroke="#000000" stroke-width="0.5" stroke-dasharray="0,3,1,3,1,3,1,3,1,0" points="476.641,384.48 476.641,32.3984"/>
<polyline fill="none" stroke="#000000" stroke-width="0.5" stroke-dasharray="0,3,1,3,1,3,1,3,1,0" points="498.961,384.48 498.961,32.3984"/>
<polyline fill="none" stroke="#000000" stroke-width="0.5" stroke-dasharray="0,3,1,3,1,3,1,3,1,0" points="74.8789,384.48 521.281,384.48"/>
<polyline fill="none" stroke="#000000" stroke-width="0.5" stroke-dasharray="0,3,1,3,1,3,1,3,1,0" points="74.8789,325.801 521.281,325.801"/>
<polyline fill="none" stroke="#000000" stroke-width="0.5" stroke-dasharray="0,3,1,3,1,3,1,3,1,0" points="74.8789,267.121 521.281,267.121"/>
<polyline fill="none" stroke="#000000" stroke-width="0.5" stroke-dasharray="0,3,1,3,1,3,1,3,1,0" points="74.8789,208.441 521.281,208.441"/>
<polyline fill="none" stroke="#000000" stroke-width="0.5" stroke-dasharray="0,3,1,3,1,3,1,3,1,0" points="74.8789,149.762 521.281,149.762"/>
<polyline fill="none" stroke="#000000" stroke-width="0.5" stroke-dasharray="0,3,1,3,1,3,1,3,1,0" points="74.8789,91.0781 521.281,91.0781"/>
<polyline fill="none" stroke="#000000" stroke-width="0.5" stroke-dasharray="0,3,1,3,1,3,1,3,1,0" points="74.8789,32.3984 521.281,32.3984"/>
<polyline fill="none" stroke="#000000" stroke-width="0.5" stroke-dasharray="16,0" points="74.8789,384.48 81.8867,384.48"/>
<polyline fill="none" stroke="#000000" stroke-width="0.5" stroke-dasharray="16,0" points="521.281,384.48 514.273,384.48"/>
<polyline fill="none" stroke="#000000" stroke-width="0.5" stroke-dasharray="16,0" points="74.8789,325.801 81.8867,325.801"/>
<polyline fill="none" stroke="#000000" stroke-width="0.5" stroke-dasharray="16,0" points="521.281,325.801 514.273,325.801"/>
<polyline fill="none" stroke="#000000" stroke-width="0.5" stroke-dasharray="16,0" points="74.8789,267.121 81.8867,267.121"/>
<polyline fill="none" stroke="#000000" stroke-width="0.5" stroke-dasharray="16,0" points="521.281,267.121 514.273,267.121"/>
<polyline fill="none" stroke="#000000" stroke-width="0.5" stroke-dasharray="16,0" points="74.8789,208.441 81.8867,208.441"/>
<polyline fill="none" stroke="#000000" stroke-width="0.5" stroke-dasharray="16,0" points="521.281,208.441 514.273,208.441"/>
<polyline fill="none" stroke="#000000" stroke-width="0.5" stroke-dasharray="16,0" points="74.8789,149.762 81.8867,149.762"/>
<polyline fill="none" stroke="#000000" stroke-width="0.5" stroke-dasharray="16,0" points="521.281,149.762 514.273,149.762"/>
<polyline fill="none" stroke="#000000" stroke-width="0.5" stroke-dasharray="16,0" points="74.8789,91.0781 81.8867,91.0781"/>
<polyline fill="none" stroke="#000000" stroke-width="0.5" stroke-dasharray="16,0" points="521.281,91.0781 514.273,91.0781"/>
<polyline fill="none" stroke="#000000" stroke-width="0.5" stroke-dasharray="16,0" points="74.8789,32.3984 81.8867,32.3984"/>
<polyline fill="none" stroke="#000000" stroke-width="0.5" stroke-dasharray="16,0" points="521.281,32.3984 514.273,32.3984"/>
<polyline fill="none" stroke="#000000" stroke-width="0.5" stroke-dasharray="0,3,1,3,1,3,1,3,1,0" points="74.8789,372.742 521.281,372.742"/>
<polyline fill="none" stroke="#000000" stroke-width="0.5" stroke-dasharray="0,3,1,3,1,3,1,3,1,0" points="74.8789,361.008 521.281,361.008"/>
<polyline fill="none" stroke="#000000" stroke-width="0.5" stroke-dasharray="0,3,1,3,1,3,1,3,1,0" points="74.8789,349.273 521.281,349.273"/>
<polyline fill="none" stroke="#000000" stroke-width="0.5" stroke-dasharray="0,3,1,3,1,3,1,3,1,0" points="74.8789,337.535 521.281,337.535"/>
<polyline fill="none" stroke="#000000" stroke-width="0.5" stroke-dasharray="0,3,1,3,1,3,1,3,1,0" points="74.8789,314.062 521.281,314.062"/>
<polyline fill="none" stroke="#000000" stroke-width="0.5" stroke-dasharray="0,3,1,3,1,3,1,3,1,0" points="74.8789,302.328 521.281,302.328"/>
<polyline fill="none" stroke="#000000" stroke-width="0.5" stroke-dasharray="0,3,1,3,1,3,1,3,1,0" points="74.8789,290.594 521.281,290.594"/>
<polyline fill="none" stroke="#000000" stroke-width="0.5" stroke-dasharray="0,3,1,3,1,3,1,3,1,0" points="74.8789,278.855 521.281,278.855"/>
<polyline fill="none" stroke="#000000" stroke-width="0.5" stroke-dasharray="0,3,1,3,1,3,1,3,1,0" points="74.8789,255.383 521.281,255.383"/>
<polyline fill="none" stroke="#000000" stroke-width="0.5" stroke-dasharray="0,3,1,3,1,3,1,3,1,0" points="74.8789,243.648 521.281,243.648"/>
<polyline fill="none" stroke="#000000" stroke-width="0.5" stroke-dasharray="0,3,1,3,1,3,1,3,1,0" points="74.8789,231.91 521.281,231.91"/>
<polyline fill="none" stroke="#000000" stroke-width="0.5" stroke-dasharray="0,3,1,3,1,3,1,3,1,0" points="74.8789,220.176 521.281,220.176"/>
<polyline fill="none" stroke="#000000" stroke-width="0.5" stroke-dasharray="0,3,1,3,1,3,1,3,1,0" points="74.8789,196.703 521.281,196.703"/>
<polyline fill="none" stroke="#000000" stroke-width="0.5" stroke-dasharray="0,3,1,3,1,3,1,3,1,0" points="74.8789,184.969 521.281,184.969"/>
<polyline fill="none" stroke="#000000" stroke-width="0.5" stroke-dasharray="0,3,1,3,1,3,1,3,1,0" points="74.8789,173.23 521.281,173.23"/>
<polyline fill="none" stroke="#000000" stroke-width="0.5" stroke-dasharray="0,3,1,3,1,3,1,3,1,0" points="74.8789,161.496 521.281,161.496"/>
<polyline fill="none" stroke="#000000" stroke-width="0.5" stroke-dasharray="0,3,1,3,1,3,1,3,1,0" points="74.8789,138.023 521.281,138.023"/>
<polyline fill="none" stroke="#000000" stroke-width="0.5" stroke-dasharray="0,3,1,3,1,3,1,3,1,0" points="74.8789,126.289 521.281,126.289"/>
<polyline fill="none" stroke="#000000" stroke-width="0.5" stroke-dasharray="0,3,1,3,1,3,1,3,1,0" points="74.8789,114.551 521.281,114.551"/>
<polyline fill="none" stroke="#000000" stroke-width="0.5" stroke-dasharray="0,3,1,3,1,3,1,3,1,0" points="74.8789,102.816 521.281,102.816"/>
<polyline fill="none" stroke="#000000" stroke-width="0.5" stroke-dasharray="0,3,1,3,1,3,1,3,1,0" points="74.8789,79.3438 521.281,79.3438"/>
<polyline fill="none" stroke="#000000" stroke-width="0.5" stroke-dasharray="0,3,1,3,1,3,1,3,1,0" points="74.8789,67.6094 521.281,67.6094"/>
<polyline fill="none" stroke="#000000" stroke-width="0.5" stroke-dasharray="0,3,1,3,1,3,1,3,1,0" points="74.8789,55.8711 521.281,55.8711"/>
<polyline fill="none" stroke="#000000" stroke-width="0.5" stroke-dasharray="0,3,1,3,1,3,1,3,1,0" points="74.8789,44.1367 521.281,44.1367"/>
<polyline fill="none" stroke="#ff0000" stroke-width="1.5" points="75.9961,384.48 77.1133,384.48 78.2266,384.48 79.3438,384.48 80.4609,384.48 81.5742,79.3438 82.6914,79.3438 83.8086,79.3438 84.9258,79.3438 86.0391,79.3438 87.1562,79.3438 88.2734,79.3438 89.3867,79.3438 90.5039,79.3438 91.6211,79.3438 92.7344,79.3438 93.8516,91.0781 94.9688,91.0781 96.0859,91.0781 97.1992,91.0781 98.3164,91.0781 99.4336,91.0781 100.547,91.0781 101.664,91.0781 102.781,91.0781 103.895,91.0781 105.012,91.0781 106.129,91.0781 107.242,91.0781 108.359,91.0781 109.477,91.0781 110.594,91.0781 111.707,91.0781 112.824,91.0781 113.941,91.0781 115.055,91.0781 116.172,91.0781 117.289,91.0781 118.402,91.0781 119.52,91.0781 120.637,91.0781 121.754,91.0781 122.867,91.0781 123.984,91.0781 125.102,91.0781 126.215,91.0781 127.332,91.0781 128.449,91.0781 129.562,91.0781 130.68,91.0781 131.797,91.0781 132.91,91.0781 134.027,91.0781 135.145,91.0781 136.262,91.0781 137.375,91.0781 138.492,91.0781 139.609,91.0781 140.723,91.0781 141.84,91.0781 142.957,91.0781 144.07,91.0781 145.188,91.0781 146.305,91.0781 147.422,91.0781 148.535,91.0781 149.652,102.816 150.77,102.816 151.883,91.0781 153,91.0781 154.117,91.0781 155.23,91.0781 156.348,102.816 157.465,102.816 158.578,102.816 159.695,91.0781 160.812,102.816 161.93,102.816 163.043,102.816 164.16,102.816 165.277,102.816 166.391,91.0781 167.508,102.816 168.625,102.816 169.738,102.816 170.855,102.816 171.973,102.816 173.09,102.816 174.203,102.816 175.32,102.816 176.438,102.816 177.551,102.816 178.668,91.0781 179.785,102.816 180.898,102.816 182.016,102.816 183.133,102.816 184.246,91.0781 185.363,102.816 186.48,102.816 187.598,102.816 188.711,102.816 189.828,102.816 190.945,102.816 192.059,102.816 193.176,102.816 194.293,102.816 195.406,102.816 196.523,102.816 197.641,102.816 198.758,102.816 199.871,102.816 200.988,102.816 202.105,102.816 203.219,102.816 204.336,102.816 205.453,102.816 206.566,102.816 207.684,102.816 208.801,102.816 209.914,102.816 211.031,102.816 212.148,102.816 213.266,102.816 214.379,102.816 215.496,102.816 216.613,102.816 217.727,102.816 218.844,102.816 219.961,102.816 221.074,102.816 222.191,102.816 223.309,102.816 224.426,102.816 225.539,102.816 226.656,102.816 227.773,102.816 228.887,102.816 230.004,102.816 231.121,102.816 232.234,102.816 233.352,102.816 234.469,102.816 235.586,102.816 236.699,102.816 237.816,102.816 238.934,102.816 240.047,102.816 241.164,102.816 242.281,102.816 243.395,102.816 244.512,102.816 245.629,102.816 246.742,102.816 247.859,102.816 248.977,102.816 250.094,102.816 251.207,102.816 252.324,102.816 253.441,102.816 254.555,102.816 255.672,102.816 256.789,102.816 257.902,102.816 259.02,102.816 260.137,102.816 261.254,102.816 262.367,102.816 263.484,102.816 264.602,102.816 265.715,102.816 266.832,102.816 267.949,102.816 269.062,102.816 270.18,102.816 271.297,102.816 272.41,102.816 273.527,102.816 274.645,102.816 275.762,102.816 276.875,102.816 277.992,102.816 279.109,102.816 280.223,102.816 281.34,102.816 282.457,102.816 283.57,102.816 284.688,102.816 285.805,102.816 286.922,102.816 288.035,102.816 289.152,102.816 290.27,102.816 291.383,102.816 292.5,102.816 293.617,102.816 294.73,102.816 295.848,102.816 296.965,102.816 298.078,102.816 299.195,102.816 300.312,102.816 301.43,102.816 302.543,102.816 303.66,102.816 304.777,102.816 305.891,102.816 307.008,102.816 308.125,102.816 309.238,102.816 310.355,102.816 311.473,102.816 312.59,102.816 313.703,102.816 314.82,102.816 315.938,102.816 317.051,102.816 318.168,102.816 319.285,102.816 320.398,102.816 321.516,102.816 322.633,102.816 323.746,102.816 324.863,102.816 325.98,102.816 327.098,102.816 328.211,102.816 329.328,102.816 330.445,102.816 331.559,102.816 332.676,102.816 333.793,102.816 334.906,102.816 336.023,102.816 337.141,102.816 338.258,102.816 339.371,102.816 340.488,102.816 341.605,102.816 342.719,102.816 343.836,102.816 344.953,102.816 346.066,102.816 347.184,102.816 348.301,102.816 349.414,102.816 350.531,102.816 351.648,102.816 352.766,102.816 353.879,102.816 354.996,102.816 356.113,102.816 357.227,102.816 358.344,102.816 359.461,102.816 360.574,102.816 361.691,102.816 362.809,102.816 363.926,102.816 365.039,102.816 366.156,102.816 367.273,102.816 368.387,102.816 369.504,102.816 370.621,102.816 371.734,102.816 372.852,102.816 373.969,102.816 375.082,102.816 376.199,102.816 377.316,102.816 378.434,102.816 379.547,102.816 380.664,102.816 381.781,102.816 382.895,102.816 384.012,102.816 385.129,102.816 386.242,102.816 387.359,102.816 388.477,102.816 389.594,102.816 390.707,102.816 391.824,102.816 392.941,102.816 394.055,102.816 395.172,102.816 396.289,102.816 397.402,102.816 398.52,102.816 399.637,102.816 400.75,102.816 401.867,102.816 402.984,102.816 404.102,102.816 405.215,102.816 406.332,102.816 407.449,102.816 408.562,102.816 409.68,102.816 410.797,102.816 411.91,102.816 413.027,102.816 414.145,102.816 415.262,102.816 416.375,102.816 417.492,102.816 418.609,102.816 419.723,102.816 420.84,102.816 421.957,102.816 423.07,102.816 424.188,102.816 425.305,102.816 426.422,102.816 427.535,102.816 428.652,102.816 429.77,102.816 430.883,102.816 432,102.816 433.117,102.816 434.23,102.816 435.348,102.816 436.465,102.816 437.578,102.816 438.695,102.816 439.812,102.816 440.93,102.816 442.043,102.816 443.16,102.816 444.277,102.816 445.391,102.816 446.508,102.816 447.625,102.816 448.738,102.816 449.855,102.816 450.973,102.816 452.09,102.816 453.203,102.816 454.32,102.816 455.438,102.816 456.551,102.816 457.668,102.816 458.785,102.816 459.898,102.816 461.016,102.816 462.133,102.816 463.246,102.816 464.363,102.816 465.48,102.816 466.598,102.816 467.711,102.816 468.828,102.816 469.945,102.816 471.059,102.816 472.176,102.816 473.293,102.816 474.406,102.816 475.523,102.816 476.641,384.48"/>
<polyline fill="none" stroke="#000000" stroke-width="0.5" stroke-dasharray="16,0" points="521.281,384.48 521.281,384.48"/>
<polyline fill="none" stroke="#000000" stroke-width="0.5" stroke-dasharray="16,0" points="74.8789,384.48 74.8789,384.48"/>
<polyline fill="none" stroke="#000000" stroke-width="0.5" stroke-dasharray="16,0" points="74.8789,32.3984 74.8789,32.3984"/>
<polyline fill="none" stroke="#000000" stroke-width="0.5" stroke-dasharray="16,0" points="521.281,32.3984 521.281,32.3984"/>
<text fill="#000000" x="298.08" y="22.4" font-size="10" text-anchor="middle" baseline-shift="0" font-family="Helvetica">Lamp Lexman 5W (RMS current)</text>
<polyline fill="none" stroke="#000000" stroke-width="0.5" stroke-dasharray="16,0" points="521.281,384.48 521.281,32.3984"/>
<polyline fill="none" stroke="#000000" stroke-width="0.5" stroke-dasharray="16,0" points="74.8789,384.48 74.8789,32.3984 521.281,32.3984"/>
<polyline fill="none" stroke="#000000" stroke-width="0.5" stroke-dasharray="16,0" points="74.8789,384.48 521.281,384.48"/>
</g>
</svg>
