<?xml version="1.0" encoding="UTF-8" standalone="no"?>
<svg xmlns="http://www.w3.org/2000/svg"
     xmlns:xlink="http://www.w3.org/1999/xlink"
     width="576px" height="432px" viewBox="0 0 576 432">
<title>glps_renderer figure</title>
<desc>
Creator: GL2PS 1.3.5, (C) 1999-2009 C. Geuzaine
For: Octave
CreationDate: Tue Jan 31 15:37:28 2012
</desc>
<defs>
</defs>
<g shape-rendering="crispEdges">
<text fill="#000000" x="298.08" y="389.481" font-size="10" text-anchor="middle" baseline-shift="-10" font-family="Helvetica">200</text>
<text fill="#000000" x="409.68" y="389.481" font-size="10" text-anchor="middle" baseline-shift="-10" font-family="Helvetica">300</text>
<text fill="#000000" x="521.28" y="389.481" font-size="10" text-anchor="middle" baseline-shift="-10" font-family="Helvetica">400</text>
<text fill="#000000" x="69.8755" y="384.48" font-size="10" text-anchor="end" baseline-shift="-5" font-family="Helvetica">0</text>
<text fill="#000000" x="69.8755" y="334.183" font-size="10" text-anchor="end" baseline-shift="-5" font-family="Helvetica">50</text>
<text fill="#000000" x="69.8755" y="283.886" font-size="10" text-anchor="end" baseline-shift="-5" font-family="Helvetica">100</text>
<text fill="#000000" x="74.88" y="389.481" font-size="10" text-anchor="middle" baseline-shift="-10" font-family="Helvetica">0</text>
<text fill="#000000" x="186.48" y="389.481" font-size="10" text-anchor="middle" baseline-shift="-10" font-family="Helvetica">100</text>
<text fill="#000000" x="69.8755" y="233.589" font-size="10" text-anchor="end" baseline-shift="-5" font-family="Helvetica">150</text>
<text fill="#000000" x="69.8755" y="183.291" font-size="10" text-anchor="end" baseline-shift="-5" font-family="Helvetica">200</text>
<text fill="#000000" x="69.8755" y="132.994" font-size="10" text-anchor="end" baseline-shift="-5" font-family="Helvetica">250</text>
<text fill="#000000" x="69.8755" y="82.6971" font-size="10" text-anchor="end" baseline-shift="-5" font-family="Helvetica">300</text>
<text fill="#000000" x="69.8755" y="32.4" font-size="10" text-anchor="end" baseline-shift="-5" font-family="Helvetica">350</text>
<text fill="#000000" x="298.08" y="402.481" font-size="10" text-anchor="middle" baseline-shift="-10" font-family="Helvetica">time (10 seconds per unit)</text>
<text fill="#000000" x="51.8755" y="208.44" font-size="10" transform="rotate(-90, 51.8755, 208.44)" text-anchor="middle" baseline-shift="0" font-family="Helvetica">degree (°)</text>
<polyline fill="none" stroke="#000000" stroke-width="0.5" stroke-dasharray="16,0" points="74.8789,32.3984 521.281,32.3984"/>
<polyline fill="none" stroke="#000000" stroke-width="0.5" stroke-dasharray="16,0" points="74.8789,384.48 74.8789,32.3984"/>
<polyline fill="none" stroke="#000000" stroke-width="0.5" stroke-dasharray="16,0" points="521.281,384.48 521.281,32.3984"/>
<polyline fill="none" stroke="#000000" stroke-width="0.5" stroke-dasharray="0,3,1,3,1,3,1,3,1,0" points="74.8789,384.48 74.8789,32.3984"/>
<polyline fill="none" stroke="#000000" stroke-width="0.5" stroke-dasharray="0,3,1,3,1,3,1,3,1,0" points="186.48,384.48 186.48,32.3984"/>
<polyline fill="none" stroke="#000000" stroke-width="0.5" stroke-dasharray="0,3,1,3,1,3,1,3,1,0" points="298.078,384.48 298.078,32.3984"/>
<polyline fill="none" stroke="#000000" stroke-width="0.5" stroke-dasharray="0,3,1,3,1,3,1,3,1,0" points="409.68,384.48 409.68,32.3984"/>
<polyline fill="none" stroke="#000000" stroke-width="0.5" stroke-dasharray="16,0" points="74.8789,384.48 521.281,384.48"/>
<polyline fill="none" stroke="#000000" stroke-width="0.5" stroke-dasharray="0,3,1,3,1,3,1,3,1,0" points="521.281,384.48 521.281,32.3984"/>
<polyline fill="none" stroke="#000000" stroke-width="0.5" stroke-dasharray="16,0" points="74.8789,384.48 74.8789,377.477"/>
<polyline fill="none" stroke="#000000" stroke-width="0.5" stroke-dasharray="16,0" points="74.8789,32.3984 74.8789,39.4023"/>
<polyline fill="none" stroke="#000000" stroke-width="0.5" stroke-dasharray="16,0" points="186.48,384.48 186.48,377.477"/>
<polyline fill="none" stroke="#000000" stroke-width="0.5" stroke-dasharray="16,0" points="186.48,32.3984 186.48,39.4023"/>
<polyline fill="none" stroke="#000000" stroke-width="0.5" stroke-dasharray="16,0" points="298.078,384.48 298.078,377.477"/>
<polyline fill="none" stroke="#000000" stroke-width="0.5" stroke-dasharray="16,0" points="298.078,32.3984 298.078,39.4023"/>
<polyline fill="none" stroke="#000000" stroke-width="0.5" stroke-dasharray="16,0" points="409.68,384.48 409.68,377.477"/>
<polyline fill="none" stroke="#000000" stroke-width="0.5" stroke-dasharray="16,0" points="409.68,32.3984 409.68,39.4023"/>
<polyline fill="none" stroke="#000000" stroke-width="0.5" stroke-dasharray="16,0" points="521.281,384.48 521.281,377.477"/>
<polyline fill="none" stroke="#000000" stroke-width="0.5" stroke-dasharray="16,0" points="521.281,32.3984 521.281,39.4023"/>
<polyline fill="none" stroke="#000000" stroke-width="0.5" stroke-dasharray="0,3,1,3,1,3,1,3,1,0" points="97.1992,384.48 97.1992,32.3984"/>
<polyline fill="none" stroke="#000000" stroke-width="0.5" stroke-dasharray="0,3,1,3,1,3,1,3,1,0" points="119.52,384.48 119.52,32.3984"/>
<polyline fill="none" stroke="#000000" stroke-width="0.5" stroke-dasharray="0,3,1,3,1,3,1,3,1,0" points="141.84,384.48 141.84,32.3984"/>
<polyline fill="none" stroke="#000000" stroke-width="0.5" stroke-dasharray="0,3,1,3,1,3,1,3,1,0" points="164.16,384.48 164.16,32.3984"/>
<polyline fill="none" stroke="#000000" stroke-width="0.5" stroke-dasharray="0,3,1,3,1,3,1,3,1,0" points="208.801,384.48 208.801,32.3984"/>
<polyline fill="none" stroke="#000000" stroke-width="0.5" stroke-dasharray="0,3,1,3,1,3,1,3,1,0" points="231.121,384.48 231.121,32.3984"/>
<polyline fill="none" stroke="#000000" stroke-width="0.5" stroke-dasharray="0,3,1,3,1,3,1,3,1,0" points="253.441,384.48 253.441,32.3984"/>
<polyline fill="none" stroke="#000000" stroke-width="0.5" stroke-dasharray="0,3,1,3,1,3,1,3,1,0" points="275.762,384.48 275.762,32.3984"/>
<polyline fill="none" stroke="#000000" stroke-width="0.5" stroke-dasharray="0,3,1,3,1,3,1,3,1,0" points="320.398,384.48 320.398,32.3984"/>
<polyline fill="none" stroke="#000000" stroke-width="0.5" stroke-dasharray="0,3,1,3,1,3,1,3,1,0" points="342.719,384.48 342.719,32.3984"/>
<polyline fill="none" stroke="#000000" stroke-width="0.5" stroke-dasharray="0,3,1,3,1,3,1,3,1,0" points="365.039,384.48 365.039,32.3984"/>
<polyline fill="none" stroke="#000000" stroke-width="0.5" stroke-dasharray="0,3,1,3,1,3,1,3,1,0" points="387.359,384.48 387.359,32.3984"/>
<polyline fill="none" stroke="#000000" stroke-width="0.5" stroke-dasharray="0,3,1,3,1,3,1,3,1,0" points="432,384.48 432,32.3984"/>
<polyline fill="none" stroke="#000000" stroke-width="0.5" stroke-dasharray="0,3,1,3,1,3,1,3,1,0" points="454.32,384.48 454.32,32.3984"/>
<polyline fill="none" stroke="#000000" stroke-width="0.5" stroke-dasharray="0,3,1,3,1,3,1,3,1,0" points="476.641,384.48 476.641,32.3984"/>
<polyline fill="none" stroke="#000000" stroke-width="0.5" stroke-dasharray="0,3,1,3,1,3,1,3,1,0" points="498.961,384.48 498.961,32.3984"/>
<polyline fill="none" stroke="#000000" stroke-width="0.5" stroke-dasharray="0,3,1,3,1,3,1,3,1,0" points="74.8789,384.48 521.281,384.48"/>
<polyline fill="none" stroke="#000000" stroke-width="0.5" stroke-dasharray="0,3,1,3,1,3,1,3,1,0" points="74.8789,334.184 521.281,334.184"/>
<polyline fill="none" stroke="#000000" stroke-width="0.5" stroke-dasharray="0,3,1,3,1,3,1,3,1,0" points="74.8789,283.887 521.281,283.887"/>
<polyline fill="none" stroke="#000000" stroke-width="0.5" stroke-dasharray="0,3,1,3,1,3,1,3,1,0" points="74.8789,233.59 521.281,233.59"/>
<polyline fill="none" stroke="#000000" stroke-width="0.5" stroke-dasharray="0,3,1,3,1,3,1,3,1,0" points="74.8789,183.293 521.281,183.293"/>
<polyline fill="none" stroke="#000000" stroke-width="0.5" stroke-dasharray="0,3,1,3,1,3,1,3,1,0" points="74.8789,132.996 521.281,132.996"/>
<polyline fill="none" stroke="#000000" stroke-width="0.5" stroke-dasharray="0,3,1,3,1,3,1,3,1,0" points="74.8789,82.6953 521.281,82.6953"/>
<polyline fill="none" stroke="#000000" stroke-width="0.5" stroke-dasharray="0,3,1,3,1,3,1,3,1,0" points="74.8789,32.3984 521.281,32.3984"/>
<polyline fill="none" stroke="#000000" stroke-width="0.5" stroke-dasharray="16,0" points="74.8789,384.48 81.8867,384.48"/>
<polyline fill="none" stroke="#000000" stroke-width="0.5" stroke-dasharray="16,0" points="521.281,384.48 514.273,384.48"/>
<polyline fill="none" stroke="#000000" stroke-width="0.5" stroke-dasharray="16,0" points="74.8789,334.184 81.8867,334.184"/>
<polyline fill="none" stroke="#000000" stroke-width="0.5" stroke-dasharray="16,0" points="521.281,334.184 514.273,334.184"/>
<polyline fill="none" stroke="#000000" stroke-width="0.5" stroke-dasharray="16,0" points="74.8789,283.887 81.8867,283.887"/>
<polyline fill="none" stroke="#000000" stroke-width="0.5" stroke-dasharray="16,0" points="521.281,283.887 514.273,283.887"/>
<polyline fill="none" stroke="#000000" stroke-width="0.5" stroke-dasharray="16,0" points="74.8789,233.59 81.8867,233.59"/>
<polyline fill="none" stroke="#000000" stroke-width="0.5" stroke-dasharray="16,0" points="521.281,233.59 514.273,233.59"/>
<polyline fill="none" stroke="#000000" stroke-width="0.5" stroke-dasharray="16,0" points="74.8789,183.293 81.8867,183.293"/>
<polyline fill="none" stroke="#000000" stroke-width="0.5" stroke-dasharray="16,0" points="521.281,183.293 514.273,183.293"/>
<polyline fill="none" stroke="#000000" stroke-width="0.5" stroke-dasharray="16,0" points="74.8789,132.996 81.8867,132.996"/>
<polyline fill="none" stroke="#000000" stroke-width="0.5" stroke-dasharray="16,0" points="521.281,132.996 514.273,132.996"/>
<polyline fill="none" stroke="#000000" stroke-width="0.5" stroke-dasharray="16,0" points="74.8789,82.6953 81.8867,82.6953"/>
<polyline fill="none" stroke="#000000" stroke-width="0.5" stroke-dasharray="16,0" points="521.281,82.6953 514.273,82.6953"/>
<polyline fill="none" stroke="#000000" stroke-width="0.5" stroke-dasharray="16,0" points="74.8789,32.3984 81.8867,32.3984"/>
<polyline fill="none" stroke="#000000" stroke-width="0.5" stroke-dasharray="16,0" points="521.281,32.3984 514.273,32.3984"/>
<polyline fill="none" stroke="#000000" stroke-width="0.5" stroke-dasharray="0,3,1,3,1,3,1,3,1,0" points="74.8789,374.422 521.281,374.422"/>
<polyline fill="none" stroke="#000000" stroke-width="0.5" stroke-dasharray="0,3,1,3,1,3,1,3,1,0" points="74.8789,364.359 521.281,364.359"/>
<polyline fill="none" stroke="#000000" stroke-width="0.5" stroke-dasharray="0,3,1,3,1,3,1,3,1,0" points="74.8789,354.301 521.281,354.301"/>
<polyline fill="none" stroke="#000000" stroke-width="0.5" stroke-dasharray="0,3,1,3,1,3,1,3,1,0" points="74.8789,344.242 521.281,344.242"/>
<polyline fill="none" stroke="#000000" stroke-width="0.5" stroke-dasharray="0,3,1,3,1,3,1,3,1,0" points="74.8789,324.125 521.281,324.125"/>
<polyline fill="none" stroke="#000000" stroke-width="0.5" stroke-dasharray="0,3,1,3,1,3,1,3,1,0" points="74.8789,314.062 521.281,314.062"/>
<polyline fill="none" stroke="#000000" stroke-width="0.5" stroke-dasharray="0,3,1,3,1,3,1,3,1,0" points="74.8789,304.004 521.281,304.004"/>
<polyline fill="none" stroke="#000000" stroke-width="0.5" stroke-dasharray="0,3,1,3,1,3,1,3,1,0" points="74.8789,293.945 521.281,293.945"/>
<polyline fill="none" stroke="#000000" stroke-width="0.5" stroke-dasharray="0,3,1,3,1,3,1,3,1,0" points="74.8789,273.828 521.281,273.828"/>
<polyline fill="none" stroke="#000000" stroke-width="0.5" stroke-dasharray="0,3,1,3,1,3,1,3,1,0" points="74.8789,263.766 521.281,263.766"/>
<polyline fill="none" stroke="#000000" stroke-width="0.5" stroke-dasharray="0,3,1,3,1,3,1,3,1,0" points="74.8789,253.707 521.281,253.707"/>
<polyline fill="none" stroke="#000000" stroke-width="0.5" stroke-dasharray="0,3,1,3,1,3,1,3,1,0" points="74.8789,243.648 521.281,243.648"/>
<polyline fill="none" stroke="#000000" stroke-width="0.5" stroke-dasharray="0,3,1,3,1,3,1,3,1,0" points="74.8789,223.527 521.281,223.527"/>
<polyline fill="none" stroke="#000000" stroke-width="0.5" stroke-dasharray="0,3,1,3,1,3,1,3,1,0" points="74.8789,213.469 521.281,213.469"/>
<polyline fill="none" stroke="#000000" stroke-width="0.5" stroke-dasharray="0,3,1,3,1,3,1,3,1,0" points="74.8789,203.41 521.281,203.41"/>
<polyline fill="none" stroke="#000000" stroke-width="0.5" stroke-dasharray="0,3,1,3,1,3,1,3,1,0" points="74.8789,193.352 521.281,193.352"/>
<polyline fill="none" stroke="#000000" stroke-width="0.5" stroke-dasharray="0,3,1,3,1,3,1,3,1,0" points="74.8789,173.23 521.281,173.23"/>
<polyline fill="none" stroke="#000000" stroke-width="0.5" stroke-dasharray="0,3,1,3,1,3,1,3,1,0" points="74.8789,163.172 521.281,163.172"/>
<polyline fill="none" stroke="#000000" stroke-width="0.5" stroke-dasharray="0,3,1,3,1,3,1,3,1,0" points="74.8789,153.113 521.281,153.113"/>
<polyline fill="none" stroke="#000000" stroke-width="0.5" stroke-dasharray="0,3,1,3,1,3,1,3,1,0" points="74.8789,143.055 521.281,143.055"/>
<polyline fill="none" stroke="#000000" stroke-width="0.5" stroke-dasharray="0,3,1,3,1,3,1,3,1,0" points="74.8789,122.934 521.281,122.934"/>
<polyline fill="none" stroke="#000000" stroke-width="0.5" stroke-dasharray="0,3,1,3,1,3,1,3,1,0" points="74.8789,112.875 521.281,112.875"/>
<polyline fill="none" stroke="#000000" stroke-width="0.5" stroke-dasharray="0,3,1,3,1,3,1,3,1,0" points="74.8789,102.816 521.281,102.816"/>
<polyline fill="none" stroke="#000000" stroke-width="0.5" stroke-dasharray="0,3,1,3,1,3,1,3,1,0" points="74.8789,92.7578 521.281,92.7578"/>
<polyline fill="none" stroke="#000000" stroke-width="0.5" stroke-dasharray="0,3,1,3,1,3,1,3,1,0" points="74.8789,72.6367 521.281,72.6367"/>
<polyline fill="none" stroke="#000000" stroke-width="0.5" stroke-dasharray="0,3,1,3,1,3,1,3,1,0" points="74.8789,62.5781 521.281,62.5781"/>
<polyline fill="none" stroke="#000000" stroke-width="0.5" stroke-dasharray="0,3,1,3,1,3,1,3,1,0" points="74.8789,52.5195 521.281,52.5195"/>
<polyline fill="none" stroke="#000000" stroke-width="0.5" stroke-dasharray="0,3,1,3,1,3,1,3,1,0" points="74.8789,42.4609 521.281,42.4609"/>
<polyline fill="none" stroke="#ff0000" stroke-width="1.5" points="75.9961,384.48 77.1133,384.48 78.2266,384.48 79.3438,384.48 80.4609,384.48 81.5742,41.4531 82.6914,41.4531 83.8086,41.4531 84.9258,41.4531 86.0391,49.5 87.1562,49.5 88.2734,49.5 89.3867,49.5 90.5039,49.5 91.6211,49.5 92.7344,49.5 93.8516,36.4219 94.9688,36.4219 96.0859,36.4219 97.1992,41.4531 98.3164,41.4531 99.4336,41.4531 100.547,41.4531 101.664,41.4531 102.781,41.4531 103.895,41.4531 105.012,41.4531 106.129,41.4531 107.242,41.4531 108.359,41.4531 109.477,41.4531 110.594,41.4531 111.707,41.4531 112.824,41.4531 113.941,41.4531 115.055,41.4531 116.172,41.4531 117.289,41.4531 118.402,41.4531 119.52,41.4531 120.637,41.4531 121.754,41.4531 122.867,41.4531 123.984,41.4531 125.102,41.4531 126.215,41.4531 127.332,41.4531 128.449,41.4531 129.562,41.4531 130.68,41.4531 131.797,41.4531 132.91,41.4531 134.027,41.4531 135.145,41.4531 136.262,41.4531 137.375,41.4531 138.492,41.4531 139.609,41.4531 140.723,41.4531 141.84,41.4531 142.957,41.4531 144.07,41.4531 145.188,41.4531 146.305,41.4531 147.422,41.4531 148.535,41.4531 149.652,41.4531 150.77,41.4531 151.883,41.4531 153,41.4531 154.117,41.4531 155.23,41.4531 156.348,41.4531 157.465,41.4531 158.578,41.4531 159.695,41.4531 160.812,41.4531 161.93,41.4531 163.043,41.4531 164.16,41.4531 165.277,41.4531 166.391,41.4531 167.508,41.4531 168.625,41.4531 169.738,41.4531 170.855,41.4531 171.973,41.4531 173.09,41.4531 174.203,41.4531 175.32,41.4531 176.438,41.4531 177.551,41.4531 178.668,41.4531 179.785,41.4531 180.898,41.4531 182.016,41.4531 183.133,41.4531 184.246,41.4531 185.363,41.4531 186.48,36.4219 187.598,36.4219 188.711,36.4219 189.828,36.4219 190.945,36.4219 192.059,36.4219 193.176,36.4219 194.293,36.4219 195.406,36.4219 196.523,49.5 197.641,49.5 198.758,49.5 199.871,49.5 200.988,49.5 202.105,49.5 203.219,49.5 204.336,49.5 205.453,49.5 206.566,49.5 207.684,49.5 208.801,49.5 209.914,49.5 211.031,49.5 212.148,49.5 213.266,49.5 214.379,49.5 215.496,49.5 216.613,49.5 217.727,49.5 218.844,49.5 219.961,49.5 221.074,49.5 222.191,49.5 223.309,49.5 224.426,49.5 225.539,49.5 226.656,49.5 227.773,49.5 228.887,49.5 230.004,49.5 231.121,49.5 232.234,49.5 233.352,49.5 234.469,49.5 235.586,49.5 236.699,49.5 237.816,49.5 238.934,49.5 240.047,49.5 241.164,49.5 242.281,49.5 243.395,49.5 244.512,49.5 245.629,49.5 246.742,49.5 247.859,49.5 248.977,49.5 250.094,49.5 251.207,49.5 252.324,49.5 253.441,49.5 254.555,49.5 255.672,49.5 256.789,49.5 257.902,49.5 259.02,49.5 260.137,49.5 261.254,49.5 262.367,49.5 263.484,49.5 264.602,49.5 265.715,49.5 266.832,49.5 267.949,49.5 269.062,49.5 270.18,49.5 271.297,49.5 272.41,49.5 273.527,49.5 274.645,49.5 275.762,49.5 276.875,49.5 277.992,49.5 279.109,49.5 280.223,49.5 281.34,49.5 282.457,49.5 283.57,49.5 284.688,49.5 285.805,49.5 286.922,49.5 288.035,49.5 289.152,49.5 290.27,49.5 291.383,49.5 292.5,49.5 293.617,49.5 294.73,49.5 295.848,49.5 296.965,49.5 298.078,49.5 299.195,49.5 300.312,49.5 301.43,49.5 302.543,49.5 303.66,384.48 304.777,384.48 305.891,384.48 307.008,384.48 308.125,384.48 309.238,384.48 310.355,384.48 311.473,384.48 312.59,384.48 313.703,41.4531 314.82,41.4531 315.938,41.4531 317.051,41.4531 318.168,41.4531 319.285,36.4219 320.398,49.5 321.516,49.5 322.633,49.5 323.746,49.5 324.863,49.5 325.98,49.5 327.098,49.5 328.211,49.5 329.328,49.5 330.445,49.5 331.559,49.5 332.676,49.5 333.793,49.5 334.906,49.5 336.023,49.5 337.141,49.5 338.258,49.5 339.371,49.5 340.488,49.5 341.605,49.5 342.719,49.5 343.836,49.5 344.953,49.5 346.066,49.5 347.184,49.5 348.301,49.5 349.414,49.5 350.531,49.5 351.648,49.5 352.766,49.5 353.879,49.5 354.996,49.5 356.113,49.5 357.227,49.5 358.344,49.5 359.461,49.5 360.574,49.5 361.691,49.5 362.809,49.5 363.926,49.5 365.039,49.5 366.156,49.5 367.273,49.5 368.387,49.5 369.504,49.5 370.621,49.5 371.734,49.5 372.852,49.5 373.969,49.5 375.082,49.5 376.199,49.5 377.316,49.5 378.434,49.5 379.547,49.5 380.664,49.5 381.781,49.5 382.895,49.5 384.012,49.5 385.129,49.5 386.242,49.5 387.359,49.5 388.477,49.5 389.594,49.5 390.707,49.5 391.824,49.5 392.941,49.5 394.055,49.5 395.172,49.5 396.289,49.5 397.402,49.5 398.52,49.5 399.637,49.5 400.75,49.5 401.867,49.5 402.984,49.5 404.102,49.5 405.215,49.5 406.332,49.5 407.449,49.5 408.562,49.5 409.68,49.5 410.797,49.5 411.91,49.5 413.027,49.5 414.145,49.5 415.262,49.5 416.375,49.5 417.492,49.5 418.609,49.5 419.723,49.5 420.84,49.5 421.957,49.5 423.07,49.5 424.188,49.5 425.305,49.5 426.422,49.5 427.535,49.5 428.652,49.5 429.77,49.5 430.883,49.5 432,49.5 433.117,49.5 434.23,49.5 435.348,49.5 436.465,49.5 437.578,49.5 438.695,49.5 439.812,49.5 440.93,49.5 442.043,49.5 443.16,49.5 444.277,49.5 445.391,49.5 446.508,49.5 447.625,49.5 448.738,49.5 449.855,49.5 450.973,49.5 452.09,49.5 453.203,49.5 454.32,49.5 455.438,49.5 456.551,49.5 457.668,49.5 458.785,49.5 459.898,49.5 461.016,49.5 462.133,49.5 463.246,49.5 464.363,49.5 465.48,49.5 466.598,49.5 467.711,49.5 468.828,49.5 469.945,49.5 471.059,49.5 472.176,49.5 473.293,49.5 474.406,49.5 475.523,49.5"/>
<polyline fill="none" stroke="#000000" stroke-width="0.5" stroke-dasharray="16,0" points="521.281,384.48 521.281,384.48"/>
<polyline fill="none" stroke="#000000" stroke-width="0.5" stroke-dasharray="16,0" points="74.8789,384.48 74.8789,384.48"/>
<polyline fill="none" stroke="#000000" stroke-width="0.5" stroke-dasharray="16,0" points="74.8789,32.3984 74.8789,32.3984"/>
<polyline fill="none" stroke="#000000" stroke-width="0.5" stroke-dasharray="16,0" points="521.281,32.3984 521.281,32.3984"/>
<text fill="#000000" x="298.08" y="22.4" font-size="10" text-anchor="middle" baseline-shift="0" font-family="Helvetica">Lamp 3EmmeLight EB11G-C9 9W (phase angle)</text>
<polyline fill="none" stroke="#000000" stroke-width="0.5" stroke-dasharray="16,0" points="521.281,384.48 521.281,32.3984"/>
<polyline fill="none" stroke="#000000" stroke-width="0.5" stroke-dasharray="16,0" points="74.8789,384.48 74.8789,32.3984 521.281,32.3984"/>
<polyline fill="none" stroke="#000000" stroke-width="0.5" stroke-dasharray="16,0" points="74.8789,384.48 521.281,384.48"/>
</g>
</svg>
