<?xml version="1.0" encoding="UTF-8" standalone="no"?>
<svg xmlns="http://www.w3.org/2000/svg"
     xmlns:xlink="http://www.w3.org/1999/xlink"
     width="576px" height="432px" viewBox="0 0 576 432">
<title>glps_renderer figure</title>
<desc>
Creator: GL2PS 1.3.5, (C) 1999-2009 C. Geuzaine
For: Octave
CreationDate: Tue Jan 31 15:38:41 2012
</desc>
<defs>
</defs>
<g shape-rendering="crispEdges">
<text fill="#000000" x="298.08" y="389.481" font-size="10" text-anchor="middle" baseline-shift="-10" font-family="Helvetica">200</text>
<text fill="#000000" x="409.68" y="389.481" font-size="10" text-anchor="middle" baseline-shift="-10" font-family="Helvetica">300</text>
<text fill="#000000" x="521.28" y="389.481" font-size="10" text-anchor="middle" baseline-shift="-10" font-family="Helvetica">400</text>
<text fill="#000000" x="69.8755" y="384.48" font-size="10" text-anchor="end" baseline-shift="-5" font-family="Helvetica">0</text>
<text fill="#000000" x="69.8755" y="325.8" font-size="10" text-anchor="end" baseline-shift="-5" font-family="Helvetica">0.02</text>
<text fill="#000000" x="69.8755" y="267.12" font-size="10" text-anchor="end" baseline-shift="-5" font-family="Helvetica">0.04</text>
<text fill="#000000" x="74.88" y="389.481" font-size="10" text-anchor="middle" baseline-shift="-10" font-family="Helvetica">0</text>
<text fill="#000000" x="186.48" y="389.481" font-size="10" text-anchor="middle" baseline-shift="-10" font-family="Helvetica">100</text>
<text fill="#000000" x="69.8755" y="208.44" font-size="10" text-anchor="end" baseline-shift="-5" font-family="Helvetica">0.06</text>
<text fill="#000000" x="69.8755" y="149.76" font-size="10" text-anchor="end" baseline-shift="-5" font-family="Helvetica">0.08</text>
<text fill="#000000" x="69.8755" y="91.08" font-size="10" text-anchor="end" baseline-shift="-5" font-family="Helvetica">0.1</text>
<text fill="#000000" x="69.8755" y="32.4" font-size="10" text-anchor="end" baseline-shift="-5" font-family="Helvetica">0.12</text>
<text fill="#000000" x="298.08" y="402.481" font-size="10" text-anchor="middle" baseline-shift="-10" font-family="Helvetica">time (10 seconds per unit)</text>
<text fill="#000000" x="48.8755" y="208.44" font-size="10" transform="rotate(-90, 48.8755, 208.44)" text-anchor="middle" baseline-shift="0" font-family="Helvetica">ampere (A)</text>
<polyline fill="none" stroke="#000000" stroke-width="0.5" stroke-dasharray="16,0" points="74.8789,32.3984 521.281,32.3984"/>
<polyline fill="none" stroke="#000000" stroke-width="0.5" stroke-dasharray="16,0" points="74.8789,384.48 74.8789,32.3984"/>
<polyline fill="none" stroke="#000000" stroke-width="0.5" stroke-dasharray="16,0" points="521.281,384.48 521.281,32.3984"/>
<polyline fill="none" stroke="#000000" stroke-width="0.5" stroke-dasharray="0,3,1,3,1,3,1,3,1,0" points="74.8789,384.48 74.8789,32.3984"/>
<polyline fill="none" stroke="#000000" stroke-width="0.5" stroke-dasharray="0,3,1,3,1,3,1,3,1,0" points="186.48,384.48 186.48,32.3984"/>
<polyline fill="none" stroke="#000000" stroke-width="0.5" stroke-dasharray="0,3,1,3,1,3,1,3,1,0" points="298.078,384.48 298.078,32.3984"/>
<polyline fill="none" stroke="#000000" stroke-width="0.5" stroke-dasharray="0,3,1,3,1,3,1,3,1,0" points="409.68,384.48 409.68,32.3984"/>
<polyline fill="none" stroke="#000000" stroke-width="0.5" stroke-dasharray="16,0" points="74.8789,384.48 521.281,384.48"/>
<polyline fill="none" stroke="#000000" stroke-width="0.5" stroke-dasharray="0,3,1,3,1,3,1,3,1,0" points="521.281,384.48 521.281,32.3984"/>
<polyline fill="none" stroke="#000000" stroke-width="0.5" stroke-dasharray="16,0" points="74.8789,384.48 74.8789,377.477"/>
<polyline fill="none" stroke="#000000" stroke-width="0.5" stroke-dasharray="16,0" points="74.8789,32.3984 74.8789,39.4023"/>
<polyline fill="none" stroke="#000000" stroke-width="0.5" stroke-dasharray="16,0" points="186.48,384.48 186.48,377.477"/>
<polyline fill="none" stroke="#000000" stroke-width="0.5" stroke-dasharray="16,0" points="186.48,32.3984 186.48,39.4023"/>
<polyline fill="none" stroke="#000000" stroke-width="0.5" stroke-dasharray="16,0" points="298.078,384.48 298.078,377.477"/>
<polyline fill="none" stroke="#000000" stroke-width="0.5" stroke-dasharray="16,0" points="298.078,32.3984 298.078,39.4023"/>
<polyline fill="none" stroke="#000000" stroke-width="0.5" stroke-dasharray="16,0" points="409.68,384.48 409.68,377.477"/>
<polyline fill="none" stroke="#000000" stroke-width="0.5" stroke-dasharray="16,0" points="409.68,32.3984 409.68,39.4023"/>
<polyline fill="none" stroke="#000000" stroke-width="0.5" stroke-dasharray="16,0" points="521.281,384.48 521.281,377.477"/>
<polyline fill="none" stroke="#000000" stroke-width="0.5" stroke-dasharray="16,0" points="521.281,32.3984 521.281,39.4023"/>
<polyline fill="none" stroke="#000000" stroke-width="0.5" stroke-dasharray="0,3,1,3,1,3,1,3,1,0" points="97.1992,384.48 97.1992,32.3984"/>
<polyline fill="none" stroke="#000000" stroke-width="0.5" stroke-dasharray="0,3,1,3,1,3,1,3,1,0" points="119.52,384.48 119.52,32.3984"/>
<polyline fill="none" stroke="#000000" stroke-width="0.5" stroke-dasharray="0,3,1,3,1,3,1,3,1,0" points="141.84,384.48 141.84,32.3984"/>
<polyline fill="none" stroke="#000000" stroke-width="0.5" stroke-dasharray="0,3,1,3,1,3,1,3,1,0" points="164.16,384.48 164.16,32.3984"/>
<polyline fill="none" stroke="#000000" stroke-width="0.5" stroke-dasharray="0,3,1,3,1,3,1,3,1,0" points="208.801,384.48 208.801,32.3984"/>
<polyline fill="none" stroke="#000000" stroke-width="0.5" stroke-dasharray="0,3,1,3,1,3,1,3,1,0" points="231.121,384.48 231.121,32.3984"/>
<polyline fill="none" stroke="#000000" stroke-width="0.5" stroke-dasharray="0,3,1,3,1,3,1,3,1,0" points="253.441,384.48 253.441,32.3984"/>
<polyline fill="none" stroke="#000000" stroke-width="0.5" stroke-dasharray="0,3,1,3,1,3,1,3,1,0" points="275.762,384.48 275.762,32.3984"/>
<polyline fill="none" stroke="#000000" stroke-width="0.5" stroke-dasharray="0,3,1,3,1,3,1,3,1,0" points="320.398,384.48 320.398,32.3984"/>
<polyline fill="none" stroke="#000000" stroke-width="0.5" stroke-dasharray="0,3,1,3,1,3,1,3,1,0" points="342.719,384.48 342.719,32.3984"/>
<polyline fill="none" stroke="#000000" stroke-width="0.5" stroke-dasharray="0,3,1,3,1,3,1,3,1,0" points="365.039,384.48 365.039,32.3984"/>
<polyline fill="none" stroke="#000000" stroke-width="0.5" stroke-dasharray="0,3,1,3,1,3,1,3,1,0" points="387.359,384.48 387.359,32.3984"/>
<polyline fill="none" stroke="#000000" stroke-width="0.5" stroke-dasharray="0,3,1,3,1,3,1,3,1,0" points="432,384.48 432,32.3984"/>
<polyline fill="none" stroke="#000000" stroke-width="0.5" stroke-dasharray="0,3,1,3,1,3,1,3,1,0" points="454.32,384.48 454.32,32.3984"/>
<polyline fill="none" stroke="#000000" stroke-width="0.5" stroke-dasharray="0,3,1,3,1,3,1,3,1,0" points="476.641,384.48 476.641,32.3984"/>
<polyline fill="none" stroke="#000000" stroke-width="0.5" stroke-dasharray="0,3,1,3,1,3,1,3,1,0" points="498.961,384.48 498.961,32.3984"/>
<polyline fill="none" stroke="#000000" stroke-width="0.5" stroke-dasharray="0,3,1,3,1,3,1,3,1,0" points="74.8789,384.48 521.281,384.48"/>
<polyline fill="none" stroke="#000000" stroke-width="0.5" stroke-dasharray="0,3,1,3,1,3,1,3,1,0" points="74.8789,325.801 521.281,325.801"/>
<polyline fill="none" stroke="#000000" stroke-width="0.5" stroke-dasharray="0,3,1,3,1,3,1,3,1,0" points="74.8789,267.121 521.281,267.121"/>
<polyline fill="none" stroke="#000000" stroke-width="0.5" stroke-dasharray="0,3,1,3,1,3,1,3,1,0" points="74.8789,208.441 521.281,208.441"/>
<polyline fill="none" stroke="#000000" stroke-width="0.5" stroke-dasharray="0,3,1,3,1,3,1,3,1,0" points="74.8789,149.762 521.281,149.762"/>
<polyline fill="none" stroke="#000000" stroke-width="0.5" stroke-dasharray="0,3,1,3,1,3,1,3,1,0" points="74.8789,91.0781 521.281,91.0781"/>
<polyline fill="none" stroke="#000000" stroke-width="0.5" stroke-dasharray="0,3,1,3,1,3,1,3,1,0" points="74.8789,32.3984 521.281,32.3984"/>
<polyline fill="none" stroke="#000000" stroke-width="0.5" stroke-dasharray="16,0" points="74.8789,384.48 81.8867,384.48"/>
<polyline fill="none" stroke="#000000" stroke-width="0.5" stroke-dasharray="16,0" points="521.281,384.48 514.273,384.48"/>
<polyline fill="none" stroke="#000000" stroke-width="0.5" stroke-dasharray="16,0" points="74.8789,325.801 81.8867,325.801"/>
<polyline fill="none" stroke="#000000" stroke-width="0.5" stroke-dasharray="16,0" points="521.281,325.801 514.273,325.801"/>
<polyline fill="none" stroke="#000000" stroke-width="0.5" stroke-dasharray="16,0" points="74.8789,267.121 81.8867,267.121"/>
<polyline fill="none" stroke="#000000" stroke-width="0.5" stroke-dasharray="16,0" points="521.281,267.121 514.273,267.121"/>
<polyline fill="none" stroke="#000000" stroke-width="0.5" stroke-dasharray="16,0" points="74.8789,208.441 81.8867,208.441"/>
<polyline fill="none" stroke="#000000" stroke-width="0.5" stroke-dasharray="16,0" points="521.281,208.441 514.273,208.441"/>
<polyline fill="none" stroke="#000000" stroke-width="0.5" stroke-dasharray="16,0" points="74.8789,149.762 81.8867,149.762"/>
<polyline fill="none" stroke="#000000" stroke-width="0.5" stroke-dasharray="16,0" points="521.281,149.762 514.273,149.762"/>
<polyline fill="none" stroke="#000000" stroke-width="0.5" stroke-dasharray="16,0" points="74.8789,91.0781 81.8867,91.0781"/>
<polyline fill="none" stroke="#000000" stroke-width="0.5" stroke-dasharray="16,0" points="521.281,91.0781 514.273,91.0781"/>
<polyline fill="none" stroke="#000000" stroke-width="0.5" stroke-dasharray="16,0" points="74.8789,32.3984 81.8867,32.3984"/>
<polyline fill="none" stroke="#000000" stroke-width="0.5" stroke-dasharray="16,0" points="521.281,32.3984 514.273,32.3984"/>
<polyline fill="none" stroke="#000000" stroke-width="0.5" stroke-dasharray="0,3,1,3,1,3,1,3,1,0" points="74.8789,372.742 521.281,372.742"/>
<polyline fill="none" stroke="#000000" stroke-width="0.5" stroke-dasharray="0,3,1,3,1,3,1,3,1,0" points="74.8789,361.008 521.281,361.008"/>
<polyline fill="none" stroke="#000000" stroke-width="0.5" stroke-dasharray="0,3,1,3,1,3,1,3,1,0" points="74.8789,349.273 521.281,349.273"/>
<polyline fill="none" stroke="#000000" stroke-width="0.5" stroke-dasharray="0,3,1,3,1,3,1,3,1,0" points="74.8789,337.535 521.281,337.535"/>
<polyline fill="none" stroke="#000000" stroke-width="0.5" stroke-dasharray="0,3,1,3,1,3,1,3,1,0" points="74.8789,314.062 521.281,314.062"/>
<polyline fill="none" stroke="#000000" stroke-width="0.5" stroke-dasharray="0,3,1,3,1,3,1,3,1,0" points="74.8789,302.328 521.281,302.328"/>
<polyline fill="none" stroke="#000000" stroke-width="0.5" stroke-dasharray="0,3,1,3,1,3,1,3,1,0" points="74.8789,290.594 521.281,290.594"/>
<polyline fill="none" stroke="#000000" stroke-width="0.5" stroke-dasharray="0,3,1,3,1,3,1,3,1,0" points="74.8789,278.855 521.281,278.855"/>
<polyline fill="none" stroke="#000000" stroke-width="0.5" stroke-dasharray="0,3,1,3,1,3,1,3,1,0" points="74.8789,255.383 521.281,255.383"/>
<polyline fill="none" stroke="#000000" stroke-width="0.5" stroke-dasharray="0,3,1,3,1,3,1,3,1,0" points="74.8789,243.648 521.281,243.648"/>
<polyline fill="none" stroke="#000000" stroke-width="0.5" stroke-dasharray="0,3,1,3,1,3,1,3,1,0" points="74.8789,231.91 521.281,231.91"/>
<polyline fill="none" stroke="#000000" stroke-width="0.5" stroke-dasharray="0,3,1,3,1,3,1,3,1,0" points="74.8789,220.176 521.281,220.176"/>
<polyline fill="none" stroke="#000000" stroke-width="0.5" stroke-dasharray="0,3,1,3,1,3,1,3,1,0" points="74.8789,196.703 521.281,196.703"/>
<polyline fill="none" stroke="#000000" stroke-width="0.5" stroke-dasharray="0,3,1,3,1,3,1,3,1,0" points="74.8789,184.969 521.281,184.969"/>
<polyline fill="none" stroke="#000000" stroke-width="0.5" stroke-dasharray="0,3,1,3,1,3,1,3,1,0" points="74.8789,173.23 521.281,173.23"/>
<polyline fill="none" stroke="#000000" stroke-width="0.5" stroke-dasharray="0,3,1,3,1,3,1,3,1,0" points="74.8789,161.496 521.281,161.496"/>
<polyline fill="none" stroke="#000000" stroke-width="0.5" stroke-dasharray="0,3,1,3,1,3,1,3,1,0" points="74.8789,138.023 521.281,138.023"/>
<polyline fill="none" stroke="#000000" stroke-width="0.5" stroke-dasharray="0,3,1,3,1,3,1,3,1,0" points="74.8789,126.289 521.281,126.289"/>
<polyline fill="none" stroke="#000000" stroke-width="0.5" stroke-dasharray="0,3,1,3,1,3,1,3,1,0" points="74.8789,114.551 521.281,114.551"/>
<polyline fill="none" stroke="#000000" stroke-width="0.5" stroke-dasharray="0,3,1,3,1,3,1,3,1,0" points="74.8789,102.816 521.281,102.816"/>
<polyline fill="none" stroke="#000000" stroke-width="0.5" stroke-dasharray="0,3,1,3,1,3,1,3,1,0" points="74.8789,79.3438 521.281,79.3438"/>
<polyline fill="none" stroke="#000000" stroke-width="0.5" stroke-dasharray="0,3,1,3,1,3,1,3,1,0" points="74.8789,67.6094 521.281,67.6094"/>
<polyline fill="none" stroke="#000000" stroke-width="0.5" stroke-dasharray="0,3,1,3,1,3,1,3,1,0" points="74.8789,55.8711 521.281,55.8711"/>
<polyline fill="none" stroke="#000000" stroke-width="0.5" stroke-dasharray="0,3,1,3,1,3,1,3,1,0" points="74.8789,44.1367 521.281,44.1367"/>
<polyline fill="none" stroke="#ff0000" stroke-width="1.5" points="75.9961,384.48 77.1133,384.48 78.2266,384.48 79.3438,384.48 80.4609,384.48 81.5742,384.48 82.6914,384.48 83.8086,384.48 84.9258,132.156 86.0391,129.223 87.1562,123.355 88.2734,120.422 89.3867,117.484 90.5039,117.484 91.6211,117.484 92.7344,117.484 93.8516,114.551 94.9688,114.551 96.0859,111.617 97.1992,108.684 98.3164,105.75 99.4336,102.816 100.547,99.8828 101.664,96.9492 102.781,94.0156 103.895,94.0156 105.012,91.0781 106.129,91.0781 107.242,88.1445 108.359,85.2109 109.477,85.2109 110.594,85.2109 111.707,85.2109 112.824,85.2109 113.941,85.2109 115.055,82.2773 116.172,85.2109 117.289,82.2773 118.402,82.2773 119.52,85.2109 120.637,85.2109 121.754,85.2109 122.867,85.2109 123.984,85.2109 125.102,85.2109 126.215,88.1445 127.332,88.1445 128.449,88.1445 129.562,91.0781 130.68,91.0781 131.797,91.0781 132.91,91.0781 134.027,91.0781 135.145,88.1445 136.262,88.1445 137.375,88.1445 138.492,88.1445 139.609,91.0781 140.723,88.1445 141.84,91.0781 142.957,91.0781 144.07,91.0781 145.188,91.0781 146.305,91.0781 147.422,91.0781 148.535,94.0156 149.652,94.0156 150.77,91.0781 151.883,94.0156 153,94.0156 154.117,94.0156 155.23,94.0156 156.348,94.0156 157.465,91.0781 158.578,91.0781 159.695,91.0781 160.812,91.0781 161.93,91.0781 163.043,91.0781 164.16,91.0781 165.277,91.0781 166.391,91.0781 167.508,91.0781 168.625,91.0781 169.738,91.0781 170.855,91.0781 171.973,94.0156 173.09,91.0781 174.203,91.0781 175.32,91.0781 176.438,91.0781 177.551,91.0781 178.668,91.0781 179.785,94.0156 180.898,94.0156 182.016,94.0156 183.133,94.0156 184.246,94.0156 185.363,94.0156 186.48,94.0156 187.598,94.0156 188.711,94.0156 189.828,94.0156 190.945,96.9492 192.059,94.0156 193.176,94.0156 194.293,94.0156 195.406,96.9492 196.523,96.9492 197.641,96.9492 198.758,96.9492 199.871,96.9492 200.988,96.9492 202.105,96.9492 203.219,96.9492 204.336,96.9492 205.453,96.9492 206.566,96.9492 207.684,96.9492 208.801,96.9492 209.914,96.9492 211.031,96.9492 212.148,96.9492 213.266,96.9492 214.379,96.9492 215.496,96.9492 216.613,96.9492 217.727,96.9492 218.844,96.9492 219.961,96.9492 221.074,96.9492 222.191,99.8828 223.309,96.9492 224.426,96.9492 225.539,96.9492 226.656,96.9492 227.773,96.9492 228.887,96.9492 230.004,96.9492 231.121,96.9492 232.234,96.9492 233.352,96.9492 234.469,96.9492 235.586,96.9492 236.699,96.9492 237.816,96.9492 238.934,96.9492 240.047,96.9492 241.164,96.9492 242.281,96.9492 243.395,96.9492 244.512,96.9492 245.629,96.9492 246.742,96.9492 247.859,96.9492 248.977,96.9492 250.094,96.9492 251.207,96.9492 252.324,96.9492 253.441,96.9492 254.555,96.9492 255.672,96.9492 256.789,96.9492 257.902,96.9492 259.02,96.9492 260.137,96.9492 261.254,96.9492 262.367,96.9492 263.484,96.9492 264.602,96.9492 265.715,96.9492 266.832,96.9492 267.949,96.9492 269.062,96.9492 270.18,94.0156 271.297,96.9492 272.41,96.9492 273.527,96.9492 274.645,96.9492 275.762,94.0156 276.875,96.9492 277.992,94.0156 279.109,94.0156 280.223,94.0156 281.34,94.0156 282.457,94.0156 283.57,94.0156 284.688,94.0156 285.805,94.0156 286.922,94.0156 288.035,94.0156 289.152,94.0156 290.27,94.0156 291.383,94.0156 292.5,94.0156 293.617,94.0156 294.73,94.0156 295.848,91.0781 296.965,94.0156 298.078,94.0156 299.195,94.0156 300.312,94.0156 301.43,94.0156 302.543,94.0156 303.66,94.0156 304.777,94.0156 305.891,94.0156 307.008,94.0156 308.125,94.0156 309.238,94.0156 310.355,94.0156 311.473,91.0781 312.59,94.0156 313.703,94.0156 314.82,94.0156 315.938,94.0156 317.051,94.0156 318.168,91.0781 319.285,91.0781 320.398,94.0156 321.516,94.0156 322.633,94.0156 323.746,94.0156 324.863,94.0156 325.98,94.0156 327.098,94.0156 328.211,91.0781 329.328,94.0156 330.445,91.0781 331.559,94.0156 332.676,91.0781 333.793,91.0781 334.906,91.0781 336.023,94.0156 337.141,94.0156 338.258,94.0156 339.371,94.0156 340.488,94.0156 341.605,94.0156 342.719,94.0156 343.836,94.0156 344.953,94.0156 346.066,94.0156 347.184,94.0156 348.301,94.0156 349.414,94.0156 350.531,94.0156 351.648,94.0156 352.766,94.0156 353.879,94.0156 354.996,91.0781 356.113,91.0781 357.227,91.0781 358.344,91.0781 359.461,91.0781 360.574,91.0781 361.691,94.0156 362.809,94.0156 363.926,94.0156 365.039,94.0156 366.156,94.0156 367.273,94.0156 368.387,91.0781 369.504,91.0781 370.621,91.0781 371.734,91.0781 372.852,91.0781 373.969,91.0781 375.082,91.0781 376.199,91.0781 377.316,91.0781 378.434,94.0156 379.547,91.0781 380.664,94.0156 381.781,91.0781 382.895,91.0781 384.012,94.0156 385.129,91.0781 386.242,94.0156 387.359,91.0781 388.477,91.0781 389.594,91.0781 390.707,91.0781 391.824,91.0781 392.941,91.0781 394.055,91.0781 395.172,91.0781 396.289,91.0781 397.402,91.0781 398.52,91.0781 399.637,91.0781 400.75,91.0781 401.867,91.0781 402.984,91.0781 404.102,91.0781 405.215,91.0781 406.332,91.0781 407.449,91.0781 408.562,91.0781 409.68,91.0781 410.797,91.0781 411.91,91.0781 413.027,91.0781 414.145,91.0781 415.262,91.0781 416.375,91.0781 417.492,91.0781 418.609,91.0781 419.723,91.0781 420.84,91.0781 421.957,91.0781 423.07,91.0781 424.188,91.0781 425.305,91.0781 426.422,91.0781 427.535,91.0781 428.652,91.0781 429.77,91.0781 430.883,91.0781 432,91.0781 433.117,91.0781 434.23,91.0781 435.348,91.0781 436.465,91.0781 437.578,91.0781 438.695,91.0781 439.812,91.0781 440.93,91.0781 442.043,91.0781 443.16,91.0781 444.277,91.0781 445.391,91.0781 446.508,91.0781 447.625,91.0781 448.738,91.0781 449.855,91.0781 450.973,91.0781 452.09,91.0781 453.203,91.0781 454.32,91.0781 455.438,91.0781 456.551,91.0781 457.668,91.0781 458.785,91.0781 459.898,91.0781 461.016,91.0781 462.133,91.0781 463.246,91.0781 464.363,91.0781 465.48,91.0781 466.598,91.0781 467.711,91.0781 468.828,91.0781 469.945,91.0781 471.059,91.0781 472.176,91.0781 473.293,91.0781 474.406,91.0781 475.523,91.0781"/>
<polyline fill="none" stroke="#000000" stroke-width="0.5" stroke-dasharray="16,0" points="521.281,384.48 521.281,384.48"/>
<polyline fill="none" stroke="#000000" stroke-width="0.5" stroke-dasharray="16,0" points="74.8789,384.48 74.8789,384.48"/>
<polyline fill="none" stroke="#000000" stroke-width="0.5" stroke-dasharray="16,0" points="74.8789,32.3984 74.8789,32.3984"/>
<polyline fill="none" stroke="#000000" stroke-width="0.5" stroke-dasharray="16,0" points="521.281,32.3984 521.281,32.3984"/>
<text fill="#000000" x="298.08" y="22.4" font-size="10" text-anchor="middle" baseline-shift="0" font-family="Helvetica">Lamp Ikea 20W (RMS current)</text>
<polyline fill="none" stroke="#000000" stroke-width="0.5" stroke-dasharray="16,0" points="521.281,384.48 521.281,32.3984"/>
<polyline fill="none" stroke="#000000" stroke-width="0.5" stroke-dasharray="16,0" points="74.8789,384.48 74.8789,32.3984 521.281,32.3984"/>
<polyline fill="none" stroke="#000000" stroke-width="0.5" stroke-dasharray="16,0" points="74.8789,384.48 521.281,384.48"/>
</g>
</svg>
